<?xml version="1.0" standalone="no"?>
<!DOCTYPE svg PUBLIC "-//W3C//DTD SVG 1.1//EN" "http://www.w3.org/Graphics/SVG/1.1/DTD/svg11.dtd" >
<svg xmlns="http://www.w3.org/2000/svg" xmlns:xlink="http://www.w3.org/1999/xlink" version="1.1">
<metadata>
Created by FontForge 20170731 at Tue Dec 11 17:03:14 2012
 By ,,,
Copyright (c) 2012 by Nikola &#38; Zoran Kostic. All rights reserved.
</metadata>
<defs>
<font id="BreakersSlab-Bold" horiz-adv-x="500" >
  <font-face 
    font-family="BreakersSlab-Bold"
    font-weight="400"
    font-stretch="normal"
    units-per-em="1000"
    panose-1="2 0 0 0 0 0 0 0 0 0"
    ascent="777"
    descent="-223"
    x-height="520"
    cap-height="660"
    bbox="-70 -333 1175 910"
    underline-thickness="50"
    underline-position="-150"
    unicode-range="U+0020-FFFB"
  />
<missing-glyph horiz-adv-x="470" 
d="M117 59h235v616h-235v-616zM59 0v733h353v-733h-353z" />
    <glyph glyph-name="f_f" unicode="ff" horiz-adv-x="674" 
d="M390 118v290h-165v-290l65 -16v-102h-265v102l65 16v290h-65v112h65v37q0 99 45 141t137 42l74 -6l-10 -104l-11 -6q-24 4 -39 4q-33 0 -47 -15t-14 -52v-41h165v37q0 99 45 141t137 42l82 -6l-10 -104l-11 -6q-27 4 -44 4q-35 0 -49.5 -15t-14.5 -52v-41h119v-112h-119
v-290l90 -16v-102h-285v102z" />
    <glyph glyph-name="fi" unicode="fi" horiz-adv-x="595" 
d="M90 118v290h-65v112h65v37q0 100 50 141.5t157 41.5q87 0 165 -25l-18 -99l-11 -6q-73 17 -127 17q-48 0 -64.5 -16.5t-16.5 -57.5v-33h280v-402l70 -16v-102h-255v102l50 16v290h-145v-290l50 -16v-102h-250v102z" />
    <glyph glyph-name="fl" unicode="fl" horiz-adv-x="615" 
d="M90 118v290h-65v112h65v37q0 100 45.5 141.5t143.5 41.5q47 0 101 -10t84 -20l31 -10h30v-582l70 -16v-102h-265v102l60 16v496q-48 14 -92 14t-58.5 -16t-14.5 -56v-36h99v-112h-99v-290l60 -16v-102h-260v102z" />
    <glyph glyph-name="f_f_i" unicode="ffi" horiz-adv-x="895" 
d="M390 118v290h-165v-290l65 -16v-102h-265v102l65 16v290h-65v112h65v37q0 99 45 141t137 42l74 -6l-10 -104l-11 -6q-24 4 -39 4q-33 0 -47 -15t-14 -52v-41h165v37q0 100 50 141.5t157 41.5q87 0 165 -25l-18 -99l-11 -6q-73 17 -127 17q-48 0 -64.5 -16.5t-16.5 -57.5
v-33h280v-402l70 -16v-102h-255v102l50 16v290h-145v-290l50 -16v-102h-245v102z" />
    <glyph glyph-name="f_f_l" unicode="ffl" horiz-adv-x="915" 
d="M390 118v290h-165v-290l65 -16v-102h-265v102l65 16v290h-65v112h65v37q0 99 45 141t137 42l74 -6l-10 -104l-11 -6q-24 4 -39 4q-33 0 -47 -15t-14 -52v-41h165v37q0 100 45.5 141.5t143.5 41.5q47 0 101 -10t84 -20l31 -10h30v-582l70 -16v-102h-265v102l60 16v496
q-48 14 -92 14t-58.5 -16t-14.5 -56v-36h99v-112h-99v-290l60 -16v-102h-255v102z" />
    <glyph glyph-name="f_t" unicode="ft" horiz-adv-x="658" 
d="M90 118v290h-65v112h65v37q0 99 45 141t137 42l82 -6l-10 -104l-11 -6q-27 4 -44 4q-35 0 -49.5 -15t-14.5 -52v-41h160l37 120h98v-120h118v-112h-118v-237q0 -38 12.5 -54.5t43.5 -16.5l51 5l11 -5v-97q-39 -15 -92 -15q-90 0 -125.5 45t-35.5 136v239h-160v-290
l85 -16v-102h-285v102z" />
    <glyph glyph-name="f_f_t" unicode="fft" horiz-adv-x="958" 
d="M390 118v290h-165v-290l65 -16v-102h-265v102l65 16v290h-65v112h65v37q0 99 45 141t137 42l74 -6l-10 -104l-11 -6q-24 4 -39 4q-33 0 -47 -15t-14 -52v-41h165v37q0 99 45 141t137 42l82 -6l-10 -104l-11 -6q-27 4 -44 4q-35 0 -49.5 -15t-14.5 -52v-41h160l37 120h98
v-120h118v-112h-118v-237q0 -38 12.5 -54.5t43.5 -16.5l51 5l11 -5v-97q-39 -15 -92 -15q-90 0 -125.5 45t-35.5 136v239h-160v-290l85 -16v-102h-280v102z" />
    <glyph glyph-name="f_b" unicode="fb" horiz-adv-x="847" 
d="M90 118v290h-65v112h65v37q0 100 45.5 141.5t143.5 41.5q47 0 101 -10t84 -20l31 -10h30v-214h1q59 46 128 46q166 0 166 -259v-33q0 -125 -47.5 -188.5t-127.5 -63.5t-140 64h-2l-33 -52h-80v614q-48 14 -92 14t-58.5 -16t-14.5 -56v-36h99v-112h-99v-290l75 -16v-102
h-275v102zM685 251v18q0 85 -17.5 118t-59.5 33q-34 0 -83 -22v-279q40 -23 71 -23q89 0 89 155z" />
    <glyph glyph-name="f_h" unicode="fh" horiz-adv-x="895" 
d="M90 118v290h-65v112h65v37q0 100 45.5 141.5t143.5 41.5q47 0 101 -10t84 -20l31 -10h30v-224h2q64 56 143 56q64 0 102 -41t38 -109v-264l65 -16v-102h-200v360q0 60 -59 60q-50 0 -91 -32v-270l60 -16v-102h-255v102l60 16v496q-48 14 -92 14t-58.5 -16t-14.5 -56v-36
h99v-112h-99v-290l60 -16v-102h-260v102z" />
    <glyph glyph-name="f_j" unicode="fj" horiz-adv-x="575" 
d="M90 118v290h-65v112h65v37q0 100 50 141.5t157 41.5q87 0 165 -25l-18 -99l-11 -6q-73 17 -127 17q-48 0 -64.5 -16.5t-16.5 -57.5v-33h280v-573q0 -81 -31 -120t-101 -39q-24 0 -49 4.5t-38 9.5l-13 4l10 86l14 13q16 -5 29 -5q44 0 44 59v449h-145v-290l80 -16v-102
h-280v102z" />
    <glyph glyph-name="f_k" unicode="fk" horiz-adv-x="878" 
d="M90 118v290h-65v112h65v37q0 100 45.5 141.5t143.5 41.5q47 0 101 -10t84 -20l31 -10h30v-390h58l63 97l-38 11v102h240v-102l-70 -16l-86 -134l93 -150l73 -16v-102h-153l-131 212h-49v-94l60 -16v-102h-255v102l60 16v496q-48 14 -92 14t-58.5 -16t-14.5 -56v-36h99
v-112h-99v-290l60 -16v-102h-260v102z" />
    <glyph glyph-name="f_y" unicode="fy" horiz-adv-x="819" 
d="M90 118v290h-65v112h65v37q0 99 45 141t137 42l82 -6l-10 -104l-11 -6q-27 4 -44 4q-35 0 -49.5 -15t-14.5 -52v-41h273v-102l-39 -13l53 -153l21 -84h10q14 67 19 84l47 153l-41 13v102h231v-102l-56 -15l-147 -472q-23 -73 -60.5 -102t-106.5 -29h-84v100l14 12h53
q24 0 36 7.5t20 34.5l15 46h-17l-146 408h-95v-290l90 -16v-102h-290v102z" />
    <glyph glyph-name="f_f_b" unicode="ffb" horiz-adv-x="1147" 
d="M390 118v290h-165v-290l65 -16v-102h-265v102l65 16v290h-65v112h65v37q0 99 45 141t137 42l74 -6l-10 -104l-11 -6q-24 4 -39 4q-33 0 -47 -15t-14 -52v-41h165v37q0 100 45.5 141.5t143.5 41.5q47 0 101 -10t84 -20l31 -10h30v-214h1q59 46 128 46q166 0 166 -259v-33
q0 -125 -47.5 -188.5t-127.5 -63.5t-140 64h-2l-33 -52h-80v614q-48 14 -92 14t-58.5 -16t-14.5 -56v-36h99v-112h-99v-290l75 -16v-102h-270v102zM985 251v18q0 85 -17.5 118t-59.5 33q-34 0 -83 -22v-279q40 -23 71 -23q89 0 89 155z" />
    <glyph glyph-name="f_f_h" unicode="ffh" horiz-adv-x="1195" 
d="M390 118v290h-165v-290l65 -16v-102h-265v102l65 16v290h-65v112h65v37q0 99 45 141t137 42l74 -6l-10 -104l-11 -6q-24 4 -39 4q-33 0 -47 -15t-14 -52v-41h165v37q0 100 45.5 141.5t143.5 41.5q47 0 101 -10t84 -20l31 -10h30v-224h2q64 56 143 56q64 0 102 -41
t38 -109v-264l65 -16v-102h-200v360q0 60 -59 60q-50 0 -91 -32v-270l60 -16v-102h-255v102l60 16v496q-48 14 -92 14t-58.5 -16t-14.5 -56v-36h99v-112h-99v-290l60 -16v-102h-255v102z" />
    <glyph glyph-name="f_f_j" unicode="ffj" horiz-adv-x="875" 
d="M390 118v290h-165v-290l65 -16v-102h-265v102l65 16v290h-65v112h65v37q0 99 45 141t137 42l74 -6l-10 -104l-11 -6q-24 4 -39 4q-33 0 -47 -15t-14 -52v-41h165v37q0 100 50 141.5t157 41.5q87 0 165 -25l-18 -99l-11 -6q-73 17 -127 17q-48 0 -64.5 -16.5t-16.5 -57.5
v-33h280v-573q0 -81 -31 -120t-101 -39q-24 0 -49 4.5t-38 9.5l-13 4l10 86l14 13q16 -5 29 -5q44 0 44 59v449h-145v-290l80 -16v-102h-275v102z" />
    <glyph glyph-name="f_f_k" unicode="ffk" horiz-adv-x="1178" 
d="M90 118v290h-65v112h65v37q0 99 45 141t137 42l74 -6l-10 -104l-11 -6q-24 4 -39 4q-33 0 -47 -15t-14 -52v-41h165v37q0 100 45.5 141.5t143.5 41.5q47 0 101 -10t84 -20l31 -10h30v-390h58l63 97l-38 11v102h240v-102l-70 -16l-86 -134l93 -150l73 -16v-102h-153
l-131 212h-49v-94l60 -16v-102h-255v102l60 16v496q-48 14 -92 14t-58.5 -16t-14.5 -56v-36h99v-112h-99v-290l60 -16v-102h-255v102l60 16v290h-165v-290l65 -16v-102h-265v102z" />
    <glyph glyph-name="f_f_y" unicode="ffy" horiz-adv-x="1119" 
d="M90 118v290h-65v112h65v37q0 99 45 141t137 42l74 -6l-10 -104l-11 -6q-24 4 -39 4q-33 0 -47 -15t-14 -52v-41h165v37q0 99 45 141t137 42l82 -6l-10 -104l-11 -6q-27 4 -44 4q-35 0 -49.5 -15t-14.5 -52v-41h273v-102l-39 -13l53 -153l21 -84h10q14 67 19 84l47 153
l-41 13v102h231v-102l-56 -15l-147 -472q-23 -73 -60.5 -102t-106.5 -29h-84v100l14 12h53q24 0 36 7.5t20 34.5l15 46h-17l-146 408h-95v-290l90 -16v-102h-285v102l60 16v290h-165v-290l65 -16v-102h-265v102z" />
    <glyph glyph-name="t_t" unicode="tt" horiz-adv-x="672" 
d="M219 408v-237q0 -38 12.5 -54.5t43.5 -16.5l43 4l11 -5v-97q-34 -14 -84 -14q-90 0 -125.5 45t-35.5 136v239h-64v112h64l37 120h98v-120h180l37 120h98v-120h118v-112h-118v-237q0 -38 12.5 -54.5t43.5 -16.5l51 5l11 -5v-97q-39 -15 -92 -15q-90 0 -125.5 45t-35.5 136
v239h-180z" />
    <glyph glyph-name="t_y" unicode="ty" horiz-adv-x="847" 
d="M571 168q14 67 19 84l47 153l-41 13v102h231v-102l-56 -15l-147 -472q-23 -73 -60.5 -102t-106.5 -29h-84v100l14 12h53q24 0 36 7.5t20 34.5l15 46h-17l-146 408h-129v-237q0 -38 12.5 -54.5t43.5 -16.5l51 5l11 -5v-97q-39 -15 -92 -15q-90 0 -125.5 45t-35.5 136v239
h-64v112h64l37 120h98v-120h307v-102l-39 -13l53 -153l21 -84h10z" />
    <glyph glyph-name="t_t_y" unicode="tty" horiz-adv-x="1162" 
d="M886 168q14 67 19 84l47 153l-41 13v102h231v-102l-56 -15l-147 -472q-23 -73 -60.5 -102t-106.5 -29h-84v100l14 12h53q24 0 36 7.5t20 34.5l15 46h-17l-146 408h-129v-237q0 -38 12.5 -54.5t43.5 -16.5l51 5l11 -5v-97q-39 -15 -92 -15q-90 0 -125.5 45t-35.5 136v239
h-180v-237q0 -38 12.5 -54.5t43.5 -16.5l43 4l11 -5v-97q-34 -14 -84 -14q-90 0 -125.5 45t-35.5 136v239h-64v112h64l37 120h98v-120h180l37 120h98v-120h307v-102l-39 -13l53 -153l21 -84h10z" />
    <glyph glyph-name="f_t_y" unicode="fty" horiz-adv-x="1148" 
d="M872 168q14 67 19 84l47 153l-41 13v102h231v-102l-56 -15l-147 -472q-23 -73 -60.5 -102t-106.5 -29h-84v100l14 12h53q24 0 36 7.5t20 34.5l15 46h-17l-146 408h-129v-237q0 -38 12.5 -54.5t43.5 -16.5l51 5l11 -5v-97q-39 -15 -92 -15q-90 0 -125.5 45t-35.5 136v239
h-160v-290l85 -16v-102h-285v102l65 16v290h-65v112h65v37q0 99 45 141t137 42l82 -6l-10 -104l-11 -6q-27 4 -44 4q-35 0 -49.5 -15t-14.5 -52v-41h160l37 120h98v-120h307v-102l-39 -13l53 -153l21 -84h10z" />
    <glyph glyph-name=".notdef" horiz-adv-x="470" 
d="M117 59h235v616h-235v-616zM59 0v733h353v-733h-353z" />
    <glyph glyph-name=".null" horiz-adv-x="0" 
 />
    <glyph glyph-name="nonmarkingreturn" horiz-adv-x="333" 
 />
    <glyph glyph-name="space" unicode=" " horiz-adv-x="220" 
 />
    <glyph glyph-name="exclam" unicode="!" horiz-adv-x="276" 
d="M128 692h20q33 0 46 -13t13 -39v-123l-35 -279h-68l-35 279v123q0 26 13 39t46 13zM60 70q0 35 22 57.5t56 22.5t56 -22.5t22 -57.5t-22 -57.5t-56 -22.5t-56 22.5t-22 57.5z" />
    <glyph glyph-name="quotedbl" unicode="&#x22;" horiz-adv-x="387" 
d="M87 700h40q25 0 35 -11t10 -33v-40l-36 -175h-58l-36 175v40q0 22 10 33t35 11zM260 700h40q25 0 35 -11t10 -33v-40l-36 -175h-58l-36 175v40q0 22 10 33t35 11z" />
    <glyph glyph-name="numbersign" unicode="#" horiz-adv-x="630" 
d="M86 400l22 112h109l30 148h76l-29 -148h107l29 148h77l-29 -148h110l-22 -112h-110l-24 -120h112l-22 -112h-111l-33 -168h-77l34 168h-107l-34 -168h-76l33 168h-109l22 112h108l24 120h-110zM272 400l-23 -120h107l23 120h-107z" />
    <glyph glyph-name="dollar" unicode="$" horiz-adv-x="487" 
d="M57 9l-4 105l14 7q37 -9 79 -15v183q-117 38 -117 168q0 139 117 178v105h74v-90q26 2 42 2h8v88h74v-93l72 -14l-9 -102l-13 -8q-22 5 -50 10v-170q55 -21 84 -65.5t29 -104.5q0 -146 -113 -187v-106h-74v90q-30 -2 -46 -2h-4v-88h-74v92q-58 7 -89 17zM254 262l-34 8
v-170q56 0 79 21t23 65q0 59 -68 76zM164 464q0 -55 63 -70l43 -11v157h-5q-101 0 -101 -76z" />
    <glyph glyph-name="percent" unicode="%" horiz-adv-x="774" 
d="M174 650h18q52 0 90 -38t38 -113v-41q0 -74 -38 -112t-90 -38h-18q-52 0 -90.5 38t-38.5 112v41q0 75 38.5 113t90.5 38zM223 449v60q0 66 -40 66t-40 -66v-60q0 -66 40 -66t40 66zM139 -12l404 671h100l-404 -671h-100zM583 330h18q52 0 90 -38t38 -113v-41
q0 -74 -38 -112t-90 -38h-18q-52 0 -90.5 38t-38.5 112v41q0 75 38.5 113t90.5 38zM632 129v60q0 66 -40 66t-40 -66v-60q0 -66 40 -66t40 66z" />
    <glyph glyph-name="ampersand" unicode="&#x26;" horiz-adv-x="632" 
d="M435 320h175v-87l-59 -16q-11 -54 -37 -94l103 -123h-168l-37 45h-1q-59 -57 -161 -57q-97 0 -151.5 46t-54.5 131q0 46 19 82t39.5 53.5t56.5 41.5v5l-13 16q-62 74 -62 139q0 82 51.5 126t143.5 44q89 0 139.5 -42.5t50.5 -117.5q0 -60 -27.5 -100.5t-95.5 -82.5v-5
l66 -78q4 -4 7 -9.5t5 -9.5l2 -4h4q5 26 5 97zM275 100q41 0 70 24l-120 144l-11 -10q-33 -31 -35 -76q0 -82 96 -82zM219 505q0 -18 8 -33t31 -43l22 -26q59 47 59 99q0 58 -60 58t-60 -55z" />
    <glyph glyph-name="quotesingle" unicode="'" horiz-adv-x="214" 
d="M87 700h40q25 0 35 -11t10 -33v-40l-36 -175h-58l-36 175v40q0 22 10 33t35 11z" />
    <glyph glyph-name="parenleft" unicode="(" horiz-adv-x="298" 
d="M258 -100h-91q-5 6 -13 18t-29 51t-37 81.5t-29 108t-13 131.5q0 74 14.5 144t35 118t41.5 85.5t35 54.5l15 18h91q-5 -7 -12.5 -20.5t-26.5 -57t-34 -89.5t-27 -115.5t-12 -137.5q0 -97 23 -194.5t46 -146.5z" />
    <glyph glyph-name="parenright" unicode=")" horiz-adv-x="293" 
d="M125 -100h-91q4 7 10 20t22 54t28.5 84t22.5 107t10 125q0 68 -11.5 136.5t-28 117.5t-33.5 88t-28 58l-12 20h91q6 -6 15.5 -18.5t34 -53.5t43 -86.5t34 -116.5t15.5 -145q0 -66 -12.5 -131t-30.5 -109.5t-36 -80t-30 -52.5z" />
    <glyph glyph-name="asterisk" unicode="*" horiz-adv-x="481" 
d="M298 672l-32 -123l9 -6l107 68l32 10q20 6 28.5 1.5t15.5 -24.5l12 -36q7 -20 2 -28.5t-25 -15.5l-31 -10l-127 -7l-4 -12l98 -80l20 -27q12 -17 10.5 -27t-18.5 -22l-31 -22q-18 -12 -26.5 -10.5t-21.5 18.5l-20 26l-46 118h-11l-47 -118l-20 -26q-13 -17 -22.5 -18.5
t-25.5 10.5l-31 22q-18 12 -19 22.5t11 26.5l20 27l97 80l-3 11l-127 8l-31 10q-20 7 -24.5 16t1.5 28l12 36q7 21 16 25.5t28 -2.5l32 -10l106 -69l9 7l-31 123v33q0 21 7.5 28t27.5 7h38q22 0 28.5 -7t6.5 -28v-33z" />
    <glyph glyph-name="plus" unicode="+" 
d="M470 250h-172v-170h-97v170h-171v97h171v173h97v-173h172v-97z" />
    <glyph glyph-name="comma" unicode="," horiz-adv-x="244" 
d="M44 70q0 35 22 57.5t56 22.5t56 -22.5t22 -58.5q0 -48 -44 -115l-58 -87h-46v18l35 107v4q-43 19 -43 74z" />
    <glyph glyph-name="hyphen" unicode="-" horiz-adv-x="334" 
d="M292 250h-250v97h250v-97z" />
    <glyph glyph-name="period" unicode="." horiz-adv-x="244" 
d="M44 70q0 35 22 57.5t56 22.5t56 -22.5t22 -57.5t-22 -57.5t-56 -22.5t-56 22.5t-22 57.5z" />
    <glyph glyph-name="slash" unicode="/" horiz-adv-x="521" 
d="M20 -100l374 840h107l-374 -840h-107z" />
    <glyph glyph-name="zero" unicode="0" horiz-adv-x="540" 
d="M263 672h13q99 0 159 -76t60 -226v-81q0 -150 -60 -225.5t-159 -75.5h-13q-98 0 -158 75.5t-60 225.5v81q0 150 60 226t158 76zM359 247v165q0 147 -89 147t-89 -147v-165q0 -147 89 -147t89 147z" />
    <glyph glyph-name="one" unicode="1" horiz-adv-x="307" 
d="M20 489v62l145 109h80v-660h-135v489h-90z" />
    <glyph glyph-name="two" unicode="2" horiz-adv-x="478" 
d="M443 477v-9q0 -55 -19.5 -97t-45.5 -67t-74 -64q-4 -3 -6.5 -5t-5.5 -4l-74 -60q-24 -20 -31 -30t-7 -25v-4h253v-112h-400v80q0 61 18.5 98.5t70.5 79.5l118 96q36 30 52 55t16 56v5q0 39 -26.5 64t-87.5 25q-14 0 -38 -4l-16 -90h-97v164q8 5 23 12t62 19t95 12
q106 0 163 -53.5t57 -141.5z" />
    <glyph glyph-name="three" unicode="3" horiz-adv-x="454" 
d="M419 200v-9q0 -91 -60.5 -147t-167.5 -56q-43 0 -84.5 8.5t-61.5 16t-20 8.5l10 92l13 7q65 -20 114 -20q62 0 92 28t30 71v5q0 81 -112 81h-83v98h96q37 0 61 24.5t24 66.5v5q0 36 -25 58.5t-77 22.5q-16 0 -32 -3l-16 -82h-87v160q66 37 165 37q98 0 149.5 -48.5
t51.5 -122.5v-9q0 -93 -69 -138v-3q89 -49 89 -151z" />
    <glyph glyph-name="four" unicode="4" horiz-adv-x="487" 
d="M22 214l176 446h140l-175 -445h114l35 185h100v-185h65v-112h-65v-103h-135v103h-255v111z" />
    <glyph glyph-name="five" unicode="5" horiz-adv-x="472" 
d="M429 240v-33q0 -108 -52.5 -163.5t-154.5 -55.5q-44 0 -87.5 9t-65.5 17t-22 9l11 93l12 6q74 -22 123 -22q101 0 101 109v14q0 89 -84 89q-20 0 -40 -6.5t-30 -13.5l-10 -6l-81 19l20 355h320v-160h-97l-10 48h-85l-8 -143h2q34 17 75 17q79 0 121 -47t42 -135z" />
    <glyph glyph-name="six" unicode="6" horiz-adv-x="520" 
d="M316 560q-70 0 -101.5 -39t-34.5 -135h2q60 42 130 42q79 0 121 -51.5t42 -136.5v-32q0 -103 -52.5 -161.5t-160.5 -58.5q-217 0 -217 287v65q0 173 65.5 252.5t196.5 79.5q29 0 59 -5t45 -9l15 -5v-153h-97l-12 60h-1zM263 316q-41 0 -83 -26v-35q0 -89 21 -122t61 -33
q36 0 57 26t21 72v31q0 87 -77 87z" />
    <glyph glyph-name="seven" unicode="7" horiz-adv-x="445" 
d="M291 548h-161l-16 -88h-92v200h410v-113l-230 -547h-147l236 539v9z" />
    <glyph glyph-name="eight" unicode="8" horiz-adv-x="530" 
d="M42 167q0 109 91 157v8q-80 59 -80 153q0 91 58 139t154 48q95 0 153 -46.5t58 -130.5q0 -99 -89 -141v-6q101 -63 101 -166q0 -96 -58.5 -145t-164.5 -49q-100 0 -161.5 44t-61.5 135zM270 266l-31 13q-62 -37 -62 -102q0 -36 23 -56.5t65 -20.5t65 20t23 57
q0 29 -17.5 49t-65.5 40zM181 490q0 -28 19 -46t60 -37l30 -13q58 48 58 96q0 32 -21 51t-62 19q-40 0 -62 -19t-22 -51z" />
    <glyph glyph-name="nine" unicode="9" horiz-adv-x="520" 
d="M207 100q69 0 99.5 38.5t32.5 133.5q-56 -40 -124 -40q-80 0 -125 51t-45 138v31q0 102 58.5 161t156.5 59q105 0 160 -69.5t55 -195.5v-87q0 -173 -65 -252.5t-198 -79.5q-28 0 -57.5 4.5t-44.5 9.5l-16 5v153h97l11 -60h5zM256 344q47 0 84 22v38q0 84 -20 120t-60 36
q-37 0 -58.5 -27.5t-21.5 -75.5v-22q0 -91 76 -91z" />
    <glyph glyph-name="colon" unicode=":" horiz-adv-x="244" 
d="M44 70q0 36 22 58t56 22t56 -22t22 -58q0 -35 -22 -57.5t-56 -22.5q-33 0 -55.5 22.5t-22.5 57.5zM44 420q0 36 22 58t56 22t56 -22t22 -58q0 -35 -22 -57.5t-56 -22.5q-33 0 -55.5 22.5t-22.5 57.5z" />
    <glyph glyph-name="semicolon" unicode=";" horiz-adv-x="244" 
d="M44 70q0 35 22 57.5t56 22.5t56 -22.5t22 -58.5q0 -48 -44 -115l-58 -87h-46v18l35 107v4q-43 19 -43 74zM44 420q0 36 22 58t56 22t56 -22t22 -58q0 -35 -22 -57.5t-56 -22.5q-33 0 -55.5 22.5t-22.5 57.5z" />
    <glyph glyph-name="less" unicode="&#x3c;" 
d="M436 143v-95h-30l-342 205v72l342 207h30v-96l-238 -146v-1q65 -42 238 -146z" />
    <glyph glyph-name="equal" unicode="=" 
d="M450 335h-400v97h400v-97zM450 148h-400v97h400v-97z" />
    <glyph glyph-name="greater" unicode="&#x3e;" 
d="M64 437v95h30l342 -206v-71l-342 -207h-30v96l239 147v2z" />
    <glyph glyph-name="question" unicode="?" horiz-adv-x="426" 
d="M396 501v-9q0 -55 -24 -93.5t-81 -74.5q-34 -22 -42 -37.5t-8 -46.5v-27h-135v67q0 48 16 72.5t69 56.5q42 25 56 42t14 41v5q0 29 -23.5 46t-65.5 17q-23 0 -48.5 -5t-39.5 -10l-15 -5l-13 6q-7 46 -11 94q0 1 18 8.5t56.5 15.5t79.5 8q99 0 148 -46.5t49 -124.5zM95 70
q0 35 22 57.5t56 22.5t56 -22.5t22 -57.5t-22 -57.5t-56 -22.5t-56 22.5t-22 57.5z" />
    <glyph glyph-name="at" unicode="@" horiz-adv-x="840" 
d="M587 68q-95 0 -118 77h-4q-18 -35 -49.5 -56t-70.5 -21q-58 0 -93 40.5t-35 115.5q0 133 55.5 220.5t149.5 87.5q64 0 113 -46l30 34h69l-61 -309q-12 -65 36 -65q51 0 88.5 55t37.5 158v39q0 114 -76.5 176.5t-220.5 62.5h-21q-144 0 -228 -88.5t-84 -232.5v-61
q0 -142 80 -221t225 -79h11q115 0 241 22q1 -11 4 -32t4 -31q-121 -34 -249 -34h-11q-182 0 -281 98.5t-99 276.5v61q0 179 103.5 287.5t283.5 108.5h21q181 0 276.5 -81.5t95.5 -232.5v-39q0 -141 -65.5 -216t-157.5 -75zM337 299q-7 -38 -7 -72q0 -65 43 -65q49 0 89 73
l37 183q-32 16 -60 16q-43 0 -66 -31.5t-36 -103.5z" />
    <glyph glyph-name="A" unicode="A" horiz-adv-x="650" 
d="M90 118l109 424l-69 16v102h291l139 -542l70 -16v-102h-265v102l58 15l-17 71h-164l-16 -71l59 -15v-102h-265v102zM293 400l-24 -100h109l-24 100l-21 125h-17q-14 -85 -23 -125z" />
    <glyph glyph-name="B" unicode="B" horiz-adv-x="542" 
d="M90 118v424l-70 16v102h272q198 0 198 -176v-8q0 -52 -16.5 -85.5t-59.5 -49.5v-4q96 -27 96 -153v-8q0 -75 -40 -125.5t-128 -50.5h-322v102zM298 282h-73v-176h86q64 0 64 74v28q0 74 -77 74zM276 554h-51v-174h73q57 0 57 70v22q0 82 -79 82z" />
    <glyph glyph-name="C" unicode="C" horiz-adv-x="478" 
d="M320 560h-9q-69 0 -100.5 -53.5t-31.5 -173.5v-21q0 -113 32.5 -162.5t100.5 -49.5q27 0 53.5 4t39.5 8l13 5l11 -6q8 -49 12 -98q-59 -25 -149 -25q-119 0 -184 69.5t-65 242.5v35q0 337 258 337q38 0 72.5 -6t49.5 -12l15 -6v-178h-102z" />
    <glyph glyph-name="D" unicode="D" horiz-adv-x="563" 
d="M90 118v424l-70 16v102h272q108 0 168 -63.5t60 -196.5v-172q0 -112 -51 -170t-147 -58h-302v102zM268 548h-43v-436h66q46 0 70 29t24 104v151q0 88 -28 120t-89 32z" />
    <glyph glyph-name="E" unicode="E" horiz-adv-x="470" 
d="M322 548h-97v-168h150v-98h-150v-170h107l16 73h102v-185h-430v102l70 16v424l-70 16v102h420v-185h-102z" />
    <glyph glyph-name="F" unicode="F" horiz-adv-x="460" 
d="M322 548h-97v-175h150v-106h-150v-149l75 -16v-102h-280v102l70 16v424l-70 16v102h420v-185h-102z" />
    <glyph glyph-name="G" unicode="G" horiz-adv-x="513" 
d="M282 100q38 0 66 19v113l-70 16v102h205v-350h-73l-18 39q-60 -51 -137 -51q-102 0 -157 72t-55 245v35q0 183 67.5 257.5t204.5 74.5q36 0 74 -6.5t59 -13.5l20 -6v-171h-102l-16 83q-20 2 -26 2q-80 0 -111.5 -48t-31.5 -179v-31q0 -81 13 -127t33.5 -60.5t54.5 -14.5z
" />
    <glyph glyph-name="H" unicode="H" horiz-adv-x="630" 
d="M540 542v-424l70 -16v-102h-260v102l55 16v157h-180v-157l55 -16v-102h-260v102l70 16v424l-70 16v102h260v-102l-55 -16v-155h180v155l-55 16v102h260v-102z" />
    <glyph glyph-name="I" unicode="I" horiz-adv-x="315" 
d="M225 542v-424l70 -16v-102h-275v102l70 16v424l-70 16v102h275v-102z" />
    <glyph glyph-name="J" unicode="J" horiz-adv-x="371" 
d="M281 542v-342q0 -117 -40.5 -164.5t-129.5 -47.5q-21 0 -45 3t-38 5l-13 3l8 96l12 9q25 -4 46 -4q38 0 51.5 26t13.5 95v321l-75 16v102h280v-102z" />
    <glyph glyph-name="K" unicode="K" horiz-adv-x="616" 
d="M225 542v-155h68l139 273h154v-102l-69 -16l-104 -207l113 -217l70 -16v-102h-260v102l41 12l-85 161h-67v-157l55 -16v-102h-260v102l70 16v424l-70 16v102h260v-102z" />
    <glyph glyph-name="L" unicode="L" horiz-adv-x="450" 
d="M90 118v424l-70 16v102h275v-102l-70 -16v-430h87l16 80h102v-192h-410v102z" />
    <glyph glyph-name="M" unicode="M" horiz-adv-x="800" 
d="M90 118v424l-70 16v102h257l104 -310l16 -61h6q9 40 16 61l104 310h257v-102l-70 -16v-424l70 -16v-102h-260v102l55 16v158l6 194l-8 1q-38 -126 -43 -141l-103 -310h-54l-103 310l-42 141l-9 -1q6 -133 6 -194v-158l55 -16v-102h-260v102z" />
    <glyph glyph-name="N" unicode="N" horiz-adv-x="677" 
d="M587 542v-542h-147l-186 364l-29 77l-6 -1l6 -98v-224l60 -16v-102h-265v102l70 16v424l-70 16v102h217l186 -364l29 -78l5 1l-5 99v224l-60 16v102h265v-102z" />
    <glyph glyph-name="O" unicode="O" horiz-adv-x="526" 
d="M257 672h12q113 0 163.5 -79.5t50.5 -242.5v-41q0 -163 -50.5 -242t-163.5 -79h-12q-113 0 -163.5 79t-50.5 242v41q0 163 50.5 242.5t163.5 79.5zM346 291v77q0 104 -19 148t-64 44t-64 -44t-19 -148v-77q0 -104 19 -147.5t64 -43.5t64 43.5t19 147.5z" />
    <glyph glyph-name="P" unicode="P" horiz-adv-x="526" 
d="M90 118v424l-70 16v102h271q104 0 155.5 -52.5t51.5 -162.5v-42q0 -96 -48 -143.5t-134 -47.5h-91v-94l90 -16v-102h-295v102zM269 548h-44v-238h54q84 0 84 92v38q0 108 -94 108z" />
    <glyph glyph-name="Q" unicode="Q" horiz-adv-x="526" 
d="M257 672h12q113 0 163.5 -79.5t50.5 -242.5v-41q0 -197 -73 -270l48 -91l-98 -48l-46 92q-19 -4 -45 -4h-12q-113 0 -163.5 79t-50.5 242v41q0 163 50.5 242.5t163.5 79.5zM346 291v77q0 104 -19 148t-64 44t-64 -44t-19 -148v-77q0 -104 19 -147.5t64 -43.5t64 43.5
t19 147.5z" />
    <glyph glyph-name="R" unicode="R" horiz-adv-x="578" 
d="M90 118v424l-70 16v102h281q219 0 219 -199v-16q0 -121 -98 -163v-3q20 -13 35 -54l41 -109l60 -14v-102h-160l-87 233q-10 27 -35 27h-51v-142l65 -16v-102h-270v102zM280 548h-55v-190h66q49 0 71.5 19t22.5 64v10q0 53 -23.5 75t-81.5 22z" />
    <glyph glyph-name="S" unicode="S" horiz-adv-x="481" 
d="M53 8v177h102l16 -84q11 -1 33 -1q104 0 104 91q0 52 -63 75l-83 31q-60 22 -92 62t-32 111q0 202 235 202q28 0 60.5 -4t50.5 -7.5t23 -5.5v-180h-102l-16 84q-5 1 -13 1q-103 0 -103 -83q0 -51 54 -71l80 -30q69 -26 102.5 -68.5t33.5 -109.5q0 -102 -53.5 -156
t-174.5 -54q-82 0 -162 20z" />
    <glyph glyph-name="T" unicode="T" horiz-adv-x="491" 
d="M178 118v430h-60l-16 -75h-82v187h451v-187h-82l-16 75h-60v-430l85 -16v-102h-305v102z" />
    <glyph glyph-name="U" unicode="U" horiz-adv-x="620" 
d="M225 542v-332q0 -110 85 -110t85 110v332l-50 16v102h255v-102l-70 -16v-308q0 -246 -212 -246h-17q-211 0 -211 246v308l-70 16v102h255v-102z" />
    <glyph glyph-name="V" unicode="V" horiz-adv-x="634" 
d="M343 264l64 278l-53 16v102h260v-102l-70 -16l-126 -542h-202l-127 542l-69 16v102h260v-102l-53 -16l64 -278l19 -119h14q12 88 19 119z" />
    <glyph glyph-name="W" unicode="W" horiz-adv-x="862" 
d="M772 542l-96 -542h-164l-64 285l-13 95h-8q-9 -80 -13 -95l-64 -285h-164l-96 542l-70 16v102h260v-102l-55 -16l33 -190l23 -144h11q19 106 24 127l72 325h86l72 -325l24 -127h11l23 144l32 190l-54 16v102h260v-102z" />
    <glyph glyph-name="X" unicode="X" horiz-adv-x="622" 
d="M527 542h-1l-95 -204l101 -220l70 -16v-102h-255v102l41 11l-43 92l-31 82h-6q-23 -65 -31 -82l-44 -92l42 -11v-102h-255v102l69 16l102 220l-96 204l-70 16v102h255v-102l-41 -11l37 -75l32 -82h6q20 57 32 82l37 75l-41 11v102h255v-102z" />
    <glyph glyph-name="Y" unicode="Y" horiz-adv-x="625" 
d="M245 118v94l-156 330l-69 16v102h255v-102l-43 -12l41 -88q7 -14 15.5 -42t13.5 -49l6 -21h9q20 80 35 112l41 88l-43 12v102h255v-102l-70 -16l-155 -330v-94l70 -16v-102h-275v102z" />
    <glyph glyph-name="Z" unicode="Z" horiz-adv-x="460" 
d="M47 475v185h383v-90l-224 -418l-25 -35v-5h131l16 73h102v-185h-400v89l225 418l25 37v4h-115l-16 -73h-102z" />
    <glyph glyph-name="bracketleft" unicode="[" horiz-adv-x="298" 
d="M68 -120v830h215v-75h-95v-680h95v-75h-215z" />
    <glyph glyph-name="backslash" unicode="\" horiz-adv-x="521" 
d="M127 740l374 -840h-107l-374 840h107z" />
    <glyph glyph-name="bracketright" unicode="]" horiz-adv-x="293" 
d="M230 710v-830h-215v75h95v680h-95v75h215z" />
    <glyph glyph-name="asciicircum" unicode="^" horiz-adv-x="495" 
d="M138 280h-107l176 370h80l176 -370h-107l-106 221h-7z" />
    <glyph glyph-name="underscore" unicode="_" 
d="M500 -70v-45h-500v45h500z" />
    <glyph glyph-name="grave" unicode="`" horiz-adv-x="290" 
d="M51 677v43h117l83 -123l-9 -17h-76z" />
    <glyph glyph-name="a" unicode="a" horiz-adv-x="505" 
d="M405 -12q-74 0 -98 71h-4q-50 -71 -135 -71q-65 0 -104 43.5t-39 107.5v16q0 137 141 155l131 17v5q0 46 -25 67t-91 21l-21 -1l-13 -59h-87v150q71 22 142 22q124 0 177 -48t53 -152v-181q0 -24 8 -35t27 -14l13 -2v-85q-25 -27 -75 -27zM220 96q41 0 77 44v110l-77 -16
q-60 -12 -60 -65v-12q0 -27 16.5 -44t43.5 -17z" />
    <glyph glyph-name="b" unicode="b" horiz-adv-x="517" 
d="M315 -12q-80 0 -140 64h-2l-33 -52h-80v602l-60 16v82h195v-214h1q59 46 128 46q166 0 166 -259v-33q0 -125 -47.5 -188.5t-127.5 -63.5zM355 251v18q0 85 -17.5 118t-59.5 33q-34 0 -83 -22v-279q40 -23 71 -23q89 0 89 155z" />
    <glyph glyph-name="c" unicode="c" horiz-adv-x="398" 
d="M273 419q-3 0 -7 0.5t-7 0.5q-48 0 -72.5 -34t-24.5 -128v-12q0 -85 26 -115.5t73 -30.5q42 0 87 15l10 -6q7 -14 13 -98q-51 -23 -126 -23q-111 0 -164.5 58t-53.5 199v15q0 146 54.5 209t165.5 63q32 0 63 -6t46 -12l15 -5v-164h-82z" />
    <glyph glyph-name="d" unicode="d" horiz-adv-x="530" 
d="M457 700v-549q0 -44 35 -49l13 -2v-85q-25 -27 -74 -27q-33 0 -59 18.5t-37 46.5h-7q-50 -65 -128 -65q-79 0 -126 61t-47 188v36q0 259 195 259q46 0 100 -26v96l-60 16v82h195zM162 269v-19q0 -154 80 -154q39 0 80 37v268q-41 18 -71 18q-44 0 -66.5 -34t-22.5 -116z
" />
    <glyph glyph-name="e" unicode="e" horiz-adv-x="455" 
d="M419 220h-257q0 -63 23.5 -91.5t89.5 -28.5q46 0 112 22l13 -6l2 -14q2 -14 4.5 -36.5t3.5 -41.5q-1 -2 -20 -10t-59.5 -17t-84.5 -9q-219 0 -219 257v35q0 117 57 184.5t150 67.5h11q88 0 135.5 -53t47.5 -156v-17q0 -15 -2 -36.5t-4 -35.5zM162 338v-36h138v36
q0 53 -14.5 74.5t-46.5 21.5h-2q-31 0 -53 -23.5t-22 -72.5z" />
    <glyph glyph-name="f" unicode="f" horiz-adv-x="374" 
d="M90 118v290h-65v112h65v37q0 99 45 141t137 42l82 -6l-10 -104l-11 -6q-27 4 -44 4q-35 0 -49.5 -15t-14.5 -52v-41h129v-112h-129v-290l90 -16v-102h-290v102z" />
    <glyph glyph-name="g" unicode="g" horiz-adv-x="517" 
d="M280 -6h-84h-23q-16 -30 -16 -60q0 -62 98 -62q92 0 92 61v6q0 25 -17 40t-50 15zM300 340v21q0 77 -70 77t-70 -77v-14q0 -80 70 -80t70 73zM430 520h70v-105l-13 -9q-12 2 -26 2q-23 0 -34 -8q8 -26 8 -49q0 -90 -54.5 -134t-143.5 -44h-15q-28 0 -54 6
q-12 -22 -12 -42q0 -16 11 -25.5t29 -9.5h113q82 0 127.5 -41t45.5 -101v-19q0 -64 -52.5 -108.5t-159.5 -44.5h-50q-95 0 -146.5 33t-51.5 87v8q0 29 17 55t45 41v3q-41 27 -41 81q0 49 52 111q-70 46 -70 144q0 80 53 130.5t144 50.5h15q95 0 150 -57z" />
    <glyph glyph-name="h" unicode="h" horiz-adv-x="595" 
d="M90 118v484l-60 16v82h195v-224h2q64 56 143 56q64 0 102 -41t38 -109v-264l65 -16v-102h-200v360q0 60 -59 60q-50 0 -91 -32v-270l60 -16v-102h-260v102z" />
    <glyph glyph-name="i" unicode="i" horiz-adv-x="320" 
d="M95 118v284l-65 16v102h200v-402l70 -16v-102h-275v102zM83 644q0 34 21.5 52t57.5 18t57.5 -18t21.5 -52t-21.5 -52t-57.5 -18t-57.5 18t-21.5 52z" />
    <glyph glyph-name="j" unicode="j" horiz-adv-x="301" 
d="M230 520v-573q0 -81 -31 -120t-101 -39q-24 0 -49 4.5t-38 9.5l-13 4l10 86l14 13q16 -5 29 -5q44 0 44 59v443l-65 16v102h200zM83 644q0 34 21.5 52t57.5 18t57.5 -18t21.5 -52t-21.5 -52t-57.5 -18t-57.5 18t-21.5 52z" />
    <glyph glyph-name="k" unicode="k" horiz-adv-x="573" 
d="M85 118v484l-60 16v82h195v-390h58l63 97l-38 11v102h240v-102l-70 -16l-86 -134l93 -150l73 -16v-102h-153l-131 212h-49v-94l60 -16v-102h-260v102z" />
    <glyph glyph-name="l" unicode="l" horiz-adv-x="320" 
d="M95 118v484l-60 16v82h195v-582l70 -16v-102h-275v102z" />
    <glyph glyph-name="m" unicode="m" horiz-adv-x="845" 
d="M90 118v284l-65 16v102h145q12 -20 38 -60q70 72 149 72q83 0 119 -71q69 71 149 71q62 0 98.5 -39t36.5 -106v-269l65 -16v-102h-200v365q0 27 -14.5 41t-39.5 14q-39 0 -80 -30q0 -4 0.5 -22.5t0.5 -33.5v-216l60 -16v-102h-195v365q0 55 -54 55q-40 0 -78 -29v-273
l60 -16v-102h-260v102z" />
    <glyph glyph-name="n" unicode="n" horiz-adv-x="595" 
d="M90 118v284l-65 16v102h145l39 -60q74 72 161 72q65 0 102.5 -41t37.5 -109v-264l65 -16v-102h-200v360q0 60 -59 60q-50 0 -91 -32v-270l60 -16v-102h-260v102z" />
    <glyph glyph-name="o" unicode="o" horiz-adv-x="474" 
d="M230 532h14q94 0 148.5 -66.5t54.5 -184.5v-42q0 -118 -54.5 -184.5t-148.5 -66.5h-14q-94 0 -148.5 66.5t-54.5 184.5v42q0 118 54.5 184.5t148.5 66.5zM312 198v125q0 101 -75 101t-75 -101v-125q0 -102 75 -102t75 102z" />
    <glyph glyph-name="p" unicode="p" horiz-adv-x="542" 
d="M85 -82v484l-65 16v102h145l34 -53q67 65 146 65q170 0 170 -259v-33q0 -126 -46.5 -189t-123.5 -63q-72 0 -123 45h-2v-115l70 -16v-102h-270v102zM380 251v18q0 84 -19 117.5t-61 33.5q-11 0 -22 -2t-20.5 -5t-16.5 -5.5t-13.5 -5.5t-7.5 -3v-279q48 -24 72 -24
q45 0 66.5 36.5t21.5 118.5z" />
    <glyph glyph-name="q" unicode="q" horiz-adv-x="542" 
d="M322 -82v123h-2q-50 -53 -120 -53q-81 0 -127 60t-46 187v33q0 136 52 200t139 64q70 0 132 -55l27 43h80v-602l65 -16v-102h-270v102zM162 264v-17q0 -86 20.5 -118.5t62.5 -32.5q37 0 77 38v266q-1 0 -11 4.5t-18 7.5t-21 5.5t-24 2.5q-43 0 -64.5 -36.5t-21.5 -119.5z
" />
    <glyph glyph-name="r" unicode="r" horiz-adv-x="373" 
d="M90 118v284l-65 16v102h145l36 -59h1q45 71 127 71l24 -2l-9 -120l-17 -9q-14 3 -31 3q-51 0 -76 -35v-251l85 -16v-102h-285v102z" />
    <glyph glyph-name="s" unicode="s" horiz-adv-x="433" 
d="M286 365l-16 54q-17 1 -25 1q-85 0 -85 -52q0 -35 42 -44l66 -13q74 -15 108 -51.5t34 -97.5q0 -87 -50 -130.5t-164 -43.5q-39 0 -77 4.5t-57 9.5l-19 4v144h87l14 -48q21 -2 41 -2q52 0 72.5 14t20.5 43q0 39 -54 48l-71 13q-124 23 -125 137q-2 86 50.5 131.5
t166.5 45.5q71 0 123 -15v-152h-82z" />
    <glyph glyph-name="t" unicode="t" horiz-adv-x="357" 
d="M20 408v112h64l37 120h98v-120h118v-112h-118v-237q0 -38 12.5 -54.5t43.5 -16.5l51 5l11 -5v-97q-39 -15 -92 -15q-90 0 -125.5 45t-35.5 136v239h-64z" />
    <glyph glyph-name="u" unicode="u" horiz-adv-x="568" 
d="M20 520h190v-345q0 -75 65 -75q47 0 85 42v260l-55 16v102h190v-369q0 -44 35 -49l13 -2v-85q-25 -27 -75 -27q-74 0 -98 71h-5q-54 -71 -140 -71q-71 0 -110.5 45t-39.5 132v237l-55 16v102z" />
    <glyph glyph-name="v" unicode="v" horiz-adv-x="554" 
d="M365 0h-176l-115 402l-54 16v102h225v-102l-39 -16l41 -150l24 -117h12l24 117l41 150l-39 16v102h225v-102l-55 -16z" />
    <glyph glyph-name="w" unicode="w" horiz-adv-x="792" 
d="M391 294l-8 -59l-53 -235h-172l-84 402l-54 16v102h226v-102l-40 -16l31 -152l14 -100h11l15 100l61 270h116l61 -270l15 -100h11l14 100l31 152l-40 16v102h226v-102l-54 -16l-84 -402h-172l-53 235l-8 59h-10z" />
    <glyph glyph-name="x" unicode="x" horiz-adv-x="540" 
d="M510 520v-102l-59 -14l-77 -142l81 -145l65 -15v-102h-215v102l17 7l-24 47l-24 64h-8l-24 -64l-24 -47l17 -7v-102h-215v102l68 15l78 144l-75 143l-61 14v102h205v-102l-15 -8l22 -43l24 -62h8l24 62l22 43l-15 8v102h205z" />
    <glyph glyph-name="y" unicode="y" horiz-adv-x="578" 
d="M302 168q14 67 19 84l47 153l-41 13v102h231v-102l-56 -15l-147 -472q-23 -73 -60.5 -102t-106.5 -29h-84v100l14 12h53q24 0 36 7.5t20 34.5l15 46h-17l-144 403l-61 15v102h237v-102l-39 -13l53 -153l21 -84h10z" />
    <glyph glyph-name="z" unicode="z" horiz-adv-x="428" 
d="M403 520v-109l-196 -267l-30 -32l2 -4l41 4h80l16 68h87v-180h-378v103l195 266l34 36l-2 5l-40 -2h-79l-16 -63h-87v175h373z" />
    <glyph glyph-name="braceleft" unicode="{" horiz-adv-x="302" 
d="M282 -43v-72q-39 -5 -64 -5q-150 0 -150 144q0 44 17 104t17 77q0 24 -15 38t-36 14h-24v75h24q22 0 36.5 14t14.5 39q0 16 -17 76.5t-17 104.5q0 144 150 144l64 -5v-72q-2 0 -18.5 1t-26.5 1q-49 0 -49 -59q0 -20 13 -81t13 -95q0 -87 -92 -103v-5q92 -14 92 -102
q0 -34 -13 -95.5t-13 -81.5q0 -58 49 -58q10 0 26.5 1t18.5 1z" />
    <glyph glyph-name="bar" unicode="|" horiz-adv-x="237" 
d="M70 -100v840h97v-840h-97z" />
    <glyph glyph-name="braceright" unicode="}" horiz-adv-x="302" 
d="M20 -115v72q2 0 18.5 -1t26.5 -1q49 0 49 58q0 20 -13 81.5t-13 95.5q0 88 92 102v5q-92 16 -92 103q0 34 13 95t13 81q0 59 -49 59q-10 0 -26.5 -1t-18.5 -1v72q39 5 64 5q150 0 150 -144q0 -44 -17 -104.5t-17 -76.5q0 -25 14.5 -39t36.5 -14h24v-75h-24q-21 0 -36 -14
t-15 -38q0 -17 17 -77t17 -104q0 -144 -150 -144z" />
    <glyph glyph-name="asciitilde" unicode="~" horiz-adv-x="608" 
d="M489 385h90q0 -96 -37 -153t-111 -57q-38 0 -75.5 19t-62 42t-53.5 42t-54 19q-31 0 -49 -29t-18 -83h-90q0 94 40 152t113 58q39 0 76.5 -19t61.5 -42t53.5 -42t53.5 -19q28 0 45 29t17 83z" />
    <glyph glyph-name="nbspace" unicode="&#xa0;" horiz-adv-x="220" 
 />
    <glyph glyph-name="exclamdown" unicode="&#xa1;" horiz-adv-x="276" 
d="M148 -202h-20q-33 0 -46 13t-13 39v123l35 279h68l35 -279v-123q0 -26 -13 -39t-46 -13zM216 420q0 -35 -22 -57.5t-56 -22.5t-56 22.5t-22 57.5t22 57.5t56 22.5t56 -22.5t22 -57.5z" />
    <glyph glyph-name="cent" unicode="&#xa2;" horiz-adv-x="391" 
d="M176 -10v114q-144 32 -144 209v14q0 184 144 217v116h97v-109q21 -1 42 -4.5t31 -6.5l10 -3l-12 -101l-10 -6q-38 9 -71 9q-96 0 -96 -113v-11q0 -105 99 -105q15 0 34 4t31 8l12 3l10 -5q1 -1 3.5 -17t5.5 -40.5t4 -43.5q-40 -17 -93 -21v-108h-97z" />
    <glyph glyph-name="sterling" unicode="&#xa3;" horiz-adv-x="442" 
d="M32 255v82h66q-6 11 -28 43t-33 57.5t-11 54.5q0 79 61.5 118.5t159.5 39.5q33 0 69 -5t56 -9.5t20 -5.5l-12 -100l-12 -7q-49 15 -99 15q-108 0 -108 -73q0 -20 11 -40t30.5 -45.5t28.5 -42.5h131v-82h-114q-3 -39 -23 -74.5t-46 -59.5v-9h243v-112h-400v95
q85 72 92 160h-82z" />
    <glyph glyph-name="currency" unicode="&#xa4;" horiz-adv-x="609" 
d="M169 320q0 -56 39.5 -95.5t95.5 -39.5t95.5 39.5t39.5 95.5t-39.5 95.5t-95.5 39.5t-95.5 -39.5t-39.5 -95.5zM30 113l80 80q-38 55 -38 127q0 71 38 127l-80 79l68 68l80 -80q57 38 126 38q68 0 127 -38l80 80l68 -68l-80 -80q38 -59 38 -126q0 -68 -38 -127l80 -80
l-68 -68l-80 80q-59 -38 -127 -38q-69 0 -126 38l-80 -80z" />
    <glyph glyph-name="yen" unicode="&#xa5;" horiz-adv-x="523" 
d="M365 650h146l-129 -318h105v-82h-139l-19 -48v-20h158v-82h-158v-100h-135v100h-158v82h158v20l-20 48h-138v82h105l-129 318h146l74 -192l25 -97h9q13 66 25 97z" />
    <glyph glyph-name="brokenbar" unicode="&#xa6;" horiz-adv-x="237" 
d="M167 380h-97v380h97v-380zM70 280h97v-380h-97v380z" />
    <glyph glyph-name="section" unicode="&#xa7;" horiz-adv-x="448" 
d="M233 353l-26 8q-48 -12 -48 -52t49 -56l37 -12q45 13 45 54q0 40 -57 58zM410 299q0 -78 -55 -118v-2q31 -40 31 -100q0 -71 -49.5 -111t-141.5 -40q-25 0 -53.5 3t-44 6t-17.5 4l2 92l12 7q48 -12 93 -12q39 0 59.5 14.5t20.5 40.5q0 40 -46 53l-70 21q-113 34 -113 147
q0 74 56 114v2q-32 42 -32 94q0 76 48.5 117t144.5 41q27 0 53.5 -3t39.5 -6l13 -3l-9 -92l-12 -6q-42 10 -79 10q-79 0 -79 -54q0 -34 42 -48l68 -22q118 -38 118 -149z" />
    <glyph glyph-name="dieresis" unicode="&#xa8;" horiz-adv-x="418" 
d="M55 650q0 26 17.5 43t42.5 17t42 -17.5t17 -42.5q0 -26 -17 -43.5t-42 -17.5q-26 0 -43 17.5t-17 43.5zM243 650q0 26 17.5 43t42.5 17t42 -17.5t17 -42.5q0 -26 -17 -43.5t-42 -17.5q-26 0 -43 17.5t-17 43.5z" />
    <glyph glyph-name="copyright" unicode="&#xa9;" horiz-adv-x="714" 
d="M47 340q0 128 91 219t219 91t219 -91t91 -219t-91 -219t-219 -91t-219 91t-91 219zM122 340q0 -97 69 -166t166 -69t166 68.5t69 166.5q0 97 -69 166t-166 69t-166 -69t-69 -166zM456 187q-37 -17 -85 -17q-145 0 -145 154v21q0 165 149 165q16 0 33 -2t26 -4l10 -3
l-5 -66l-7 -3q-25 5 -45 5q-37 0 -54 -21t-17 -72v-13q0 -50 17 -69.5t53 -19.5q11 0 24.5 3t21.5 5l9 3l7 -3q6 -35 8 -63z" />
    <glyph glyph-name="ordfeminine" unicode="&#xaa;" horiz-adv-x="366" 
d="M166 326q29 0 49 27v63l-43 -8q-39 -8 -39 -43q0 -39 33 -39zM69 593q44 9 89 9q84 0 119.5 -33t35.5 -104v-102q0 -23 17 -24l17 -2l5 -14l-10 -49q-22 -20 -54 -20q-49 0 -66 43h-4q-30 -43 -89 -43q-43 0 -68.5 27t-25.5 71v10q0 42 22.5 67t62.5 30l95 12v9
q0 39 -62 39q-17 0 -38.5 -2.5t-34.5 -4.5l-14 -2l-10 8q0 6 5 35t8 40z" />
    <glyph glyph-name="guillemotleft" unicode="&#xab;" horiz-adv-x="487" 
d="M144 0l-110 220l110 220h93l-78 -220l78 -220h-93zM350 0l-111 220l111 220h93l-79 -220l79 -220h-93z" />
    <glyph glyph-name="logicalnot" unicode="&#xac;" 
d="M450 412v-280h-97v183h-303v97h400z" />
    <glyph glyph-name="registered" unicode="&#xae;" horiz-adv-x="414" 
d="M20 485q0 78 54.5 132.5t132.5 54.5t132.5 -54.5t54.5 -132.5t-54.5 -132.5t-132.5 -54.5t-132.5 54.5t-54.5 132.5zM73 485q0 -57 38.5 -96.5t95.5 -39.5q56 0 95 39.5t39 96.5q0 56 -39 95t-95 39q-57 0 -95.5 -39t-38.5 -95zM285 393h-54l-24 59h-21v-59h-52v186h80
q75 0 75 -65q0 -42 -31 -56zM207 538h-21v-49h26q25 0 25 24q0 25 -30 25z" />
    <glyph glyph-name="macron" unicode="&#xaf;" horiz-adv-x="350" 
d="M52 607v83h245v-83h-245z" />
    <glyph glyph-name="degree" unicode="&#xb0;" horiz-adv-x="394" 
d="M45 516q0 64 44 108.5t108 44.5q63 0 107.5 -44.5t44.5 -108.5q0 -63 -44.5 -107.5t-107.5 -44.5q-64 0 -108 44.5t-44 107.5zM127 516q0 -28 21 -48.5t49 -20.5t49 20.5t21 48.5q0 29 -20.5 50t-49.5 21t-49.5 -21t-20.5 -50z" />
    <glyph glyph-name="plusminus" unicode="&#xb1;" 
d="M470 285h-172v-135h-97v135h-171v97h171v138h97v-138h172v-97zM470 15h-440v97h440v-97z" />
    <glyph glyph-name="twosuperior" unicode="&#xb2;" horiz-adv-x="320" 
d="M290 702q0 -33 -13 -59t-28 -40.5t-53 -46.5l-38 -32q-14 -12 -14 -19v-3h140v-82h-254v69q0 30 15.5 50t61.5 59l30 25q33 27 44 41t11 31q0 47 -65 47q-16 0 -35 -4t-30 -8l-11 -5l-9 4q-3 34 -5 70q0 1 14.5 7t42.5 12t55 6q66 0 103.5 -34.5t37.5 -87.5z" />
    <glyph glyph-name="threesuperior" unicode="&#xb3;" horiz-adv-x="296" 
d="M275 542q0 -128 -150 -128q-27 0 -53 4t-39 8l-13 5l6 70l8 4q43 -9 72 -9q69 0 69 50q0 44 -64 44h-53v67h62q46 2 46 44q0 41 -57 41q-15 0 -32 -3.5t-27 -6.5l-10 -4l-8 4q-4 42 -7 70q49 22 107 22q65 0 98.5 -30.5t33.5 -77.5q0 -53 -38 -80v-2q49 -30 49 -92z" />
    <glyph glyph-name="acute" unicode="&#xb4;" horiz-adv-x="470" 
d="M387 720v-43l-115 -97h-76l-9 17l83 123h117z" />
    <glyph glyph-name="mu" unicode="&#xb5;" horiz-adv-x="568" 
d="M20 520h190v-345q0 -75 65 -75q47 0 85 42v260l-55 16v102h190v-369q0 -44 35 -49l13 -2v-85q-25 -27 -75 -27q-74 0 -98 71h-5q-54 -71 -140 -71l-15 1v-189h-135v602l-55 16v102z" />
    <glyph glyph-name="paragraph" unicode="&#xb6;" horiz-adv-x="533" 
d="M361 -60v638h-75v-638h-82v357h-25q-67 0 -105.5 46.5t-38.5 127.5q0 92 42 140.5t124 48.5h307v-82h-65v-638h-82z" />
    <glyph glyph-name="periodcentered" unicode="&#xb7;" horiz-adv-x="268" 
d="M56 300q0 36 22 58t56 22t56 -22t22 -58q0 -35 -22 -57.5t-56 -22.5q-33 0 -55.5 22.5t-22.5 57.5z" />
    <glyph glyph-name="cedilla" unicode="&#xb8;" horiz-adv-x="306" 
d="M46 -203l7 56q30 -5 54 -5q46 0 46 27q0 21 -28 21h-55l15 104h67l-2 -52h16q77 0 77 -73q0 -87 -111 -87q-20 0 -41.5 2t-32.5 4z" />
    <glyph glyph-name="onesuperior" unicode="&#xb9;" horiz-adv-x="247" 
d="M25 688v52l108 78h63v-398h-98v268h-73z" />
    <glyph glyph-name="ordmasculine" unicode="&#xba;" horiz-adv-x="360" 
d="M175 602h10q60 0 100 -41.5t40 -115.5v-34q0 -74 -40 -115.5t-100 -41.5h-10q-61 0 -100.5 41.5t-39.5 115.5v34q0 74 39.5 115.5t100.5 41.5zM227 396v64q0 60 -47 60t-47 -60v-64q0 -60 47 -60t47 60z" />
    <glyph glyph-name="guillemotright" unicode="&#xbb;" horiz-adv-x="487" 
d="M452 220l-110 -220h-93l78 220l-78 220h93zM247 220l-110 -220h-93l78 220l-78 220h93z" />
    <glyph glyph-name="onequarter" unicode="&#xbc;" horiz-adv-x="727" 
d="M416 149l97 247h96l-97 -249h62l29 103h61v-103h48v-82h-48v-65h-98v65h-150v84zM89 -12l412 684h100l-412 -684h-100zM25 530v52l108 78h63v-398h-98v268h-73z" />
    <glyph glyph-name="onehalf" unicode="&#xbd;" horiz-adv-x="758" 
d="M728 282q0 -33 -13 -59t-28 -40.5t-53 -46.5l-38 -32q-14 -12 -14 -19v-3h140v-82h-254v69q0 30 15.5 50t61.5 59l30 25q33 27 44 41t11 31q0 47 -65 47q-16 0 -35 -4t-30 -8l-11 -5l-9 4q-3 34 -5 70q0 1 14.5 7t42.5 12t55 6q66 0 103.5 -34.5t37.5 -87.5zM89 -12
l412 684h100l-412 -684h-100zM25 530v52l108 78h63v-398h-98v268h-73z" />
    <glyph glyph-name="threequarters" unicode="&#xbe;" horiz-adv-x="750" 
d="M275 384q0 -128 -150 -128q-27 0 -53 4t-39 8l-13 5l6 70l8 4q43 -9 72 -9q69 0 69 50q0 44 -64 44h-53v67h62q46 2 46 44q0 41 -57 41q-15 0 -32 -3.5t-27 -6.5l-10 -4l-8 4q-4 42 -7 70q49 22 107 22q65 0 98.5 -30.5t33.5 -77.5q0 -53 -38 -80v-2q49 -30 49 -92z
M439 149l97 247h96l-97 -249h62l29 103h61v-103h48v-82h-48v-65h-98v65h-150v84zM127 -12l412 684h100l-412 -684h-100z" />
    <glyph glyph-name="questiondown" unicode="&#xbf;" horiz-adv-x="426" 
d="M30 -11v9q0 55 24 93.5t81 74.5q34 22 42 37.5t8 46.5v27h135v-67q0 -48 -16 -72.5t-69 -56.5q-42 -25 -56 -42t-14 -41v-5q0 -29 23.5 -46t65.5 -17q23 0 48.5 5t39.5 10l15 5l13 -6q7 -46 11 -94q0 -1 -18 -8.5t-56.5 -15.5t-79.5 -8q-99 0 -148 46.5t-49 124.5z
M331 420q0 -35 -22 -57.5t-56 -22.5t-56 22.5t-22 57.5t22 57.5t56 22.5t56 -22.5t22 -57.5z" />
    <glyph glyph-name="Agrave" unicode="&#xc0;" horiz-adv-x="650" 
d="M90 118l109 424l-69 16v102h291l139 -542l70 -16v-102h-265v102l58 15l-17 71h-164l-16 -71l59 -15v-102h-265v102zM293 400l-24 -100h109l-24 100l-21 125h-17q-14 -85 -23 -125zM199 817v43h117l83 -123l-9 -17h-76z" />
    <glyph glyph-name="Aacute" unicode="&#xc1;" horiz-adv-x="650" 
d="M90 118l109 424l-69 16v102h291l139 -542l70 -16v-102h-265v102l58 15l-17 71h-164l-16 -71l59 -15v-102h-265v102zM293 400l-24 -100h109l-24 100l-21 125h-17q-14 -85 -23 -125zM483 860v-43l-115 -97h-76l-9 17l83 123h117z" />
    <glyph glyph-name="Acircumflex" unicode="&#xc2;" horiz-adv-x="650" 
d="M90 118l109 424l-69 16v102h291l139 -542l70 -16v-102h-265v102l58 15l-17 71h-164l-16 -71l59 -15v-102h-265v102zM293 400l-24 -100h109l-24 100l-21 125h-17q-14 -85 -23 -125zM383 860l96 -115l-9 -25h-69l-74 62l-75 -62h-69l-9 25l97 115h112z" />
    <glyph glyph-name="Atilde" unicode="&#xc3;" horiz-adv-x="650" 
d="M90 118l109 424l-69 16v102h291l139 -542l70 -16v-102h-265v102l58 15l-17 71h-164l-16 -71l59 -15v-102h-265v102zM293 400l-24 -100h109l-24 100l-21 125h-17q-14 -85 -23 -125zM449 869l61 -19q-31 -130 -116 -130q-30 0 -70.5 29.5t-56.5 29.5q-38 0 -60 -59l-61 19
q29 130 121 130q31 0 72 -29.5t55 -29.5q33 0 55 59z" />
    <glyph glyph-name="Adieresis" unicode="&#xc4;" horiz-adv-x="650" 
d="M90 118l109 424l-69 16v102h291l139 -542l70 -16v-102h-265v102l58 15l-17 71h-164l-16 -71l59 -15v-102h-265v102zM293 400l-24 -100h109l-24 100l-21 125h-17q-14 -85 -23 -125zM171 790q0 26 17.5 43t42.5 17t42 -17.5t17 -42.5q0 -26 -17 -43.5t-42 -17.5
q-26 0 -43 17.5t-17 43.5zM359 790q0 26 17.5 43t42.5 17t42 -17.5t17 -42.5q0 -26 -17 -43.5t-42 -17.5q-26 0 -43 17.5t-17 43.5z" />
    <glyph glyph-name="Aring" unicode="&#xc5;" horiz-adv-x="650" 
d="M90 118l137 536q-20 26 -20 63q0 45 32 74t86 29t85.5 -29t31.5 -74q0 -36 -20 -62l138 -537l70 -16v-102h-265v102l58 15l-17 71h-164l-16 -71l59 -15v-102h-265v102zM293 400l-24 -100h109l-24 100l-23 125h-13q-16 -85 -25 -125zM282 717q0 -18 12 -29.5t31 -11.5
t30.5 11.5t11.5 29.5t-11.5 29.5t-30.5 11.5t-31 -11.5t-12 -29.5z" />
    <glyph glyph-name="AE" unicode="&#xc6;" horiz-adv-x="726" 
d="M346 0v188h-106l-17 -71l59 -15v-102h-262v102l69 16l112 424l-71 16v102h566v-185h-102l-16 73h-97v-168h150v-98h-150v-170h107l16 73h102v-185h-360zM292 407l-26 -107h80v248h-24q-12 -65 -30 -141z" />
    <glyph glyph-name="Ccedilla" unicode="&#xc7;" horiz-adv-x="478" 
d="M207 -203l7 56q30 -5 54 -5q46 0 46 27q0 21 -28 21h-55l13 95q-96 11 -148.5 82.5t-52.5 226.5v35q0 337 258 337q38 0 72.5 -6t49.5 -12l15 -6v-178h-102l-16 90h-9q-69 0 -100.5 -53.5t-31.5 -173.5v-21q0 -113 32.5 -162.5t100.5 -49.5q27 0 53.5 4t39.5 8l13 5
l11 -6q8 -49 12 -98q-51 -21 -129 -24l-1 -41h16q77 0 77 -73q0 -87 -111 -87q-20 0 -41.5 2t-33.5 4z" />
    <glyph glyph-name="Egrave" unicode="&#xc8;" horiz-adv-x="470" 
d="M322 548h-97v-168h150v-98h-150v-170h107l16 73h102v-185h-430v102l70 16v424l-70 16v102h420v-185h-102zM112 817v43h117l83 -123l-9 -17h-76z" />
    <glyph glyph-name="Eacute" unicode="&#xc9;" horiz-adv-x="470" 
d="M322 548h-97v-168h150v-98h-150v-170h107l16 73h102v-185h-430v102l70 16v424l-70 16v102h420v-185h-102zM389 860v-43l-115 -97h-76l-9 17l83 123h117z" />
    <glyph glyph-name="Ecircumflex" unicode="&#xca;" horiz-adv-x="470" 
d="M322 548h-97v-168h150v-98h-150v-170h107l16 73h102v-185h-430v102l70 16v424l-70 16v102h420v-185h-102zM309 860l96 -115l-9 -25h-69l-74 62l-75 -62h-69l-9 25l97 115h112z" />
    <glyph glyph-name="Edieresis" unicode="&#xcb;" horiz-adv-x="470" 
d="M322 548h-97v-168h150v-98h-150v-170h107l16 73h102v-185h-430v102l70 16v424l-70 16v102h420v-185h-102zM101 785q0 25 17.5 42.5t42.5 17.5t42 -17.5t17 -42.5q0 -26 -17 -43.5t-42 -17.5q-26 0 -43 17.5t-17 43.5zM289 785q0 25 17.5 42.5t42.5 17.5t42 -17.5
t17 -42.5q0 -26 -17 -43.5t-42 -17.5q-26 0 -43 17.5t-17 43.5z" />
    <glyph glyph-name="Igrave" unicode="&#xcc;" horiz-adv-x="315" 
d="M225 542v-424l70 -16v-102h-275v102l70 16v424l-70 16v102h275v-102zM22 817v43h117l83 -123l-9 -17h-76z" />
    <glyph glyph-name="Iacute" unicode="&#xcd;" horiz-adv-x="315" 
d="M225 542v-424l70 -16v-102h-275v102l70 16v424l-70 16v102h275v-102zM290 860v-43l-115 -97h-76l-9 17l83 123h117z" />
    <glyph glyph-name="Icircumflex" unicode="&#xce;" horiz-adv-x="315" 
d="M225 542v-424l70 -16v-102h-275v102l70 16v424l-70 16v102h275v-102zM214 860l96 -115l-9 -25h-69l-74 62l-75 -62h-69l-9 25l97 115h112z" />
    <glyph glyph-name="Idieresis" unicode="&#xcf;" horiz-adv-x="315" 
d="M4 786q0 26 17 43t43 17q25 0 42 -17.5t17 -42.5q0 -26 -17 -43.5t-42 -17.5q-26 0 -43 17.5t-17 43.5zM192 786q0 26 17 43t43 17q25 0 42 -17.5t17 -42.5q0 -26 -17 -43.5t-42 -17.5q-26 0 -43 17.5t-17 43.5zM225 542v-424l70 -16v-102h-275v102l70 16v424l-70 16v102
h275v-102z" />
    <glyph glyph-name="Eth" unicode="&#xd0;" horiz-adv-x="563" 
d="M90 118v154h-57v98h57v172l-70 16v102h272q108 0 168 -63.5t60 -196.5v-172q0 -112 -51 -170t-147 -58h-302v102zM268 548h-43v-178h68v-98h-68v-160h66q46 0 70 29t24 104v151q0 88 -28 120t-89 32z" />
    <glyph glyph-name="Ntilde" unicode="&#xd1;" horiz-adv-x="677" 
d="M587 542v-542h-147l-186 364l-29 77l-6 -1l6 -98v-224l60 -16v-102h-265v102l70 16v424l-70 16v102h217l186 -364l29 -78l5 1l-5 99v224l-60 16v102h265v-102zM474 874l61 -19q-31 -130 -116 -130q-30 0 -70.5 29.5t-56.5 29.5q-38 0 -60 -59l-61 19q29 130 121 130
q31 0 72 -29.5t55 -29.5q33 0 55 59z" />
    <glyph glyph-name="Ograve" unicode="&#xd2;" horiz-adv-x="526" 
d="M257 672h12q113 0 163.5 -79.5t50.5 -242.5v-41q0 -163 -50.5 -242t-163.5 -79h-12q-113 0 -163.5 79t-50.5 242v41q0 163 50.5 242.5t163.5 79.5zM346 291v77q0 104 -19 148t-64 44t-64 -44t-19 -148v-77q0 -104 19 -147.5t64 -43.5t64 43.5t19 147.5zM126 817v43h117
l83 -123l-9 -17h-76z" />
    <glyph glyph-name="Oacute" unicode="&#xd3;" horiz-adv-x="526" 
d="M257 672h12q113 0 163.5 -79.5t50.5 -242.5v-41q0 -163 -50.5 -242t-163.5 -79h-12q-113 0 -163.5 79t-50.5 242v41q0 163 50.5 242.5t163.5 79.5zM346 291v77q0 104 -19 148t-64 44t-64 -44t-19 -148v-77q0 -104 19 -147.5t64 -43.5t64 43.5t19 147.5zM404 860v-43
l-115 -97h-76l-9 17l83 123h117z" />
    <glyph glyph-name="Ocircumflex" unicode="&#xd4;" horiz-adv-x="526" 
d="M257 672h12q113 0 163.5 -79.5t50.5 -242.5v-41q0 -163 -50.5 -242t-163.5 -79h-12q-113 0 -163.5 79t-50.5 242v41q0 163 50.5 242.5t163.5 79.5zM346 291v77q0 104 -19 148t-64 44t-64 -44t-19 -148v-77q0 -104 19 -147.5t64 -43.5t64 43.5t19 147.5zM318 860l96 -115
l-9 -25h-69l-74 62l-75 -62h-69l-9 25l97 115h112z" />
    <glyph glyph-name="Otilde" unicode="&#xd5;" horiz-adv-x="526" 
d="M385 874l61 -19q-31 -130 -116 -130q-30 0 -70.5 29.5t-56.5 29.5q-38 0 -60 -59l-61 19q29 130 121 130q31 0 72 -29.5t55 -29.5q33 0 55 59zM257 672h12q113 0 163.5 -79.5t50.5 -242.5v-41q0 -163 -50.5 -242t-163.5 -79h-12q-113 0 -163.5 79t-50.5 242v41
q0 163 50.5 242.5t163.5 79.5zM346 291v77q0 104 -19 148t-64 44t-64 -44t-19 -148v-77q0 -104 19 -147.5t64 -43.5t64 43.5t19 147.5z" />
    <glyph glyph-name="Odieresis" unicode="&#xd6;" horiz-adv-x="526" 
d="M257 672h12q113 0 163.5 -79.5t50.5 -242.5v-41q0 -163 -50.5 -242t-163.5 -79h-12q-113 0 -163.5 79t-50.5 242v41q0 163 50.5 242.5t163.5 79.5zM346 291v77q0 104 -19 148t-64 44t-64 -44t-19 -148v-77q0 -104 19 -147.5t64 -43.5t64 43.5t19 147.5zM108 784
q0 26 17 43t43 17q25 0 42 -17.5t17 -42.5q0 -26 -17 -43.5t-42 -17.5q-26 0 -43 17.5t-17 43.5zM296 784q0 26 17 43t43 17q25 0 42 -17.5t17 -42.5q0 -26 -17 -43.5t-42 -17.5q-26 0 -43 17.5t-17 43.5z" />
    <glyph glyph-name="multiply" unicode="&#xd7;" 
d="M440 421l-121 -121l121 -121l-69 -69l-121 121l-121 -121l-69 69l121 121l-121 121l69 69l121 -121l121 121z" />
    <glyph glyph-name="Oslash" unicode="&#xd8;" horiz-adv-x="526" 
d="M257 672h12q74 0 121 -35l37 69l65 -35l-51 -94q42 -78 42 -227v-41q0 -163 -50.5 -242t-163.5 -79h-12q-68 0 -114 29l-34 -63l-65 35l45 84q-46 78 -46 236v41q0 163 50.5 242.5t163.5 79.5zM201 283l125 234q-19 43 -63 43q-45 0 -64 -44t-19 -148v-77q0 -34 1 -48h4z
M346 291v77q0 21 -1 31h-3l-18 -42l-120 -225q19 -32 59 -32q45 0 64 43.5t19 147.5z" />
    <glyph glyph-name="Ugrave" unicode="&#xd9;" horiz-adv-x="620" 
d="M225 542v-332q0 -110 85 -110t85 110v332l-50 16v102h255v-102l-70 -16v-308q0 -246 -212 -246h-17q-211 0 -211 246v308l-70 16v102h255v-102zM155 817v43h117l83 -123l-9 -17h-76z" />
    <glyph glyph-name="Uacute" unicode="&#xda;" horiz-adv-x="620" 
d="M225 542v-332q0 -110 85 -110t85 110v332l-50 16v102h255v-102l-70 -16v-308q0 -246 -212 -246h-17q-211 0 -211 246v308l-70 16v102h255v-102zM468 860v-43l-115 -97h-76l-9 17l83 123h117z" />
    <glyph glyph-name="Ucircumflex" unicode="&#xdb;" horiz-adv-x="620" 
d="M225 542v-332q0 -110 85 -110t85 110v332l-50 16v102h255v-102l-70 -16v-308q0 -246 -212 -246h-17q-211 0 -211 246v308l-70 16v102h255v-102zM368 860l96 -115l-9 -25h-69l-74 62l-75 -62h-69l-9 25l97 115h112z" />
    <glyph glyph-name="Udieresis" unicode="&#xdc;" horiz-adv-x="620" 
d="M225 542v-332q0 -110 85 -110t85 110v332l-50 16v102h255v-102l-70 -16v-308q0 -246 -212 -246h-17q-211 0 -211 246v308l-70 16v102h255v-102zM156 783q0 25 17 42.5t43 17.5q25 0 42 -17.5t17 -42.5q0 -26 -17 -43.5t-42 -17.5q-26 0 -43 17.5t-17 43.5zM344 783
q0 25 17 42.5t43 17.5q25 0 42 -17.5t17 -42.5q0 -26 -17 -43.5t-42 -17.5q-26 0 -43 17.5t-17 43.5z" />
    <glyph glyph-name="Yacute" unicode="&#xdd;" horiz-adv-x="625" 
d="M245 118v94l-156 330l-69 16v102h255v-102l-43 -12l41 -88q7 -14 15.5 -42t13.5 -49l6 -21h9q20 80 35 112l41 88l-43 12v102h255v-102l-70 -16l-155 -330v-94l70 -16v-102h-275v102zM464 860v-43l-115 -97h-76l-9 17l83 123h117z" />
    <glyph glyph-name="Thorn" unicode="&#xde;" horiz-adv-x="528" 
d="M90 118v424l-70 16v102h205v-108h66q104 0 155.5 -52.5t51.5 -162.5v-42q0 -96 -48 -143.5t-134 -47.5h-91v-104h-205v102zM269 440h-44v-238h54q84 0 84 92v38q0 108 -94 108z" />
    <glyph glyph-name="germandbls" unicode="&#xdf;" horiz-adv-x="592" 
d="M80 118v399q0 111 59.5 167t160.5 56q97 0 153.5 -45t56.5 -130q0 -40 -13 -68.5t-42 -60.5q-21 -22 -26.5 -31t-5.5 -20q0 -18 26 -35l27 -16q91 -54 91 -154q0 -94 -46.5 -143t-150.5 -49q-20 0 -39 1t-27 1l-9 1v105l12 7q23 -3 48 -3q82 0 82 82q0 42 -49 71l-22 12
q-42 23 -56.5 47.5t-16.5 64.5q-1 31 10.5 52.5t38.5 50.5q22 25 30 41t8 39q0 31 -20 49.5t-60 18.5q-85 0 -85 -113v-515h-195v102z" />
    <glyph glyph-name="agrave" unicode="&#xe0;" horiz-adv-x="505" 
d="M405 -12q-74 0 -98 71h-4q-50 -71 -135 -71q-65 0 -104 43.5t-39 107.5v16q0 137 141 155l131 17v5q0 46 -25 67t-91 21l-21 -1l-13 -59h-87v150q71 22 142 22q124 0 177 -48t53 -152v-181q0 -24 8 -35t27 -14l13 -2v-85q-25 -27 -75 -27zM220 96q41 0 77 44v110l-77 -16
q-60 -12 -60 -65v-12q0 -27 16.5 -44t43.5 -17zM104 677v43h117l83 -123l-9 -17h-76z" />
    <glyph glyph-name="aacute" unicode="&#xe1;" horiz-adv-x="505" 
d="M405 -12q-74 0 -98 71h-4q-50 -71 -135 -71q-65 0 -104 43.5t-39 107.5v16q0 137 141 155l131 17v5q0 46 -25 67t-91 21l-21 -1l-13 -59h-87v150q71 22 142 22q124 0 177 -48t53 -152v-181q0 -24 8 -35t27 -14l13 -2v-85q-25 -27 -75 -27zM220 96q41 0 77 44v110l-77 -16
q-60 -12 -60 -65v-12q0 -27 16.5 -44t43.5 -17zM376 720v-43l-115 -97h-76l-9 17l83 123h117z" />
    <glyph glyph-name="acircumflex" unicode="&#xe2;" horiz-adv-x="505" 
d="M405 -12q-74 0 -98 71h-4q-50 -71 -135 -71q-65 0 -104 43.5t-39 107.5v16q0 137 141 155l131 17v5q0 46 -25 67t-91 21l-21 -1l-13 -59h-87v150q71 22 142 22q124 0 177 -48t53 -152v-181q0 -24 8 -35t27 -14l13 -2v-85q-25 -27 -75 -27zM220 96q41 0 77 44v110l-77 -16
q-60 -12 -60 -65v-12q0 -27 16.5 -44t43.5 -17zM298 720l96 -115l-9 -25h-69l-74 62l-75 -62h-69l-9 25l97 115h112z" />
    <glyph glyph-name="atilde" unicode="&#xe3;" horiz-adv-x="505" 
d="M405 -12q-74 0 -98 71h-4q-50 -71 -135 -71q-65 0 -104 43.5t-39 107.5v16q0 137 141 155l131 17v5q0 46 -25 67t-91 21l-21 -1l-13 -59h-87v150q71 22 142 22q124 0 177 -48t53 -152v-181q0 -24 8 -35t27 -14l13 -2v-85q-25 -27 -75 -27zM220 96q41 0 77 44v110l-77 -16
q-60 -12 -60 -65v-12q0 -27 16.5 -44t43.5 -17zM356 732l61 -19q-31 -130 -116 -130q-30 0 -70.5 29.5t-56.5 29.5q-38 0 -60 -59l-61 19q29 130 121 130q31 0 72 -29.5t55 -29.5q33 0 55 59z" />
    <glyph glyph-name="adieresis" unicode="&#xe4;" horiz-adv-x="505" 
d="M405 -12q-74 0 -98 71h-4q-50 -71 -135 -71q-65 0 -104 43.5t-39 107.5v16q0 137 141 155l131 17v5q0 46 -25 67t-91 21l-21 -1l-13 -59h-87v150q71 22 142 22q124 0 177 -48t53 -152v-181q0 -24 8 -35t27 -14l13 -2v-85q-25 -27 -75 -27zM220 96q41 0 77 44v110l-77 -16
q-60 -12 -60 -65v-12q0 -27 16.5 -44t43.5 -17zM87 645q0 25 17.5 42.5t42.5 17.5t42 -17.5t17 -42.5q0 -26 -17 -43.5t-42 -17.5q-26 0 -43 17.5t-17 43.5zM275 645q0 25 17.5 42.5t42.5 17.5t42 -17.5t17 -42.5q0 -26 -17 -43.5t-42 -17.5q-26 0 -43 17.5t-17 43.5z" />
    <glyph glyph-name="aring" unicode="&#xe5;" horiz-adv-x="505" 
d="M405 -12q-74 0 -98 71h-4q-50 -71 -135 -71q-65 0 -104 43.5t-39 107.5v16q0 137 141 155l131 17v5q0 46 -25 67t-91 21l-21 -1l-13 -59h-87v150q71 22 142 22q124 0 177 -48t53 -152v-181q0 -24 8 -35t27 -14l13 -2v-85q-25 -27 -75 -27zM220 96q41 0 77 44v110l-77 -16
q-60 -12 -60 -65v-12q0 -27 16.5 -44t43.5 -17zM113 675q0 45 32 74t86 29t85.5 -29t31.5 -74t-31.5 -74t-85.5 -29t-86 29t-32 74zM188 675q0 -18 12 -29.5t31 -11.5t30.5 11.5t11.5 29.5t-11.5 29.5t-30.5 11.5t-31 -11.5t-12 -29.5z" />
    <glyph glyph-name="ae" unicode="&#xe6;" horiz-adv-x="725" 
d="M690 223h-258v-6q0 -61 24 -89t89 -28q46 0 112 22l13 -6l2 -14q2 -14 4.5 -36.5t3.5 -41.5q-1 -2 -20 -10t-59.5 -17t-84.5 -9q-123 0 -177 79h-5q-59 -79 -159 -79q-66 0 -108 44t-42 107v16q0 69 41 108.5t112 43.5l119 7v18q0 46 -25 67t-91 21l-21 -1l-13 -59h-87
v150q71 22 142 22q117 0 170 -50h3q56 50 129 50h11q88 0 135.5 -53t47.5 -156v-17zM220 96q51 0 87 50q-10 42 -10 86l-73 -6q-64 -6 -64 -60v-9q0 -27 16.5 -44t43.5 -17zM432 338v-33h138v33q0 53 -14.5 74.5t-46.5 21.5h-2q-31 0 -53 -23.5t-22 -72.5z" />
    <glyph glyph-name="ccedilla" unicode="&#xe7;" horiz-adv-x="398" 
d="M150 -203l7 56q30 -5 54 -5q46 0 46 27q0 21 -28 21h-55l14 96q-82 12 -121.5 71.5t-39.5 181.5v15q0 146 54.5 209t165.5 63q32 0 63 -6t46 -12l15 -5v-164h-82l-16 74q-3 0 -7 0.5t-7 0.5q-48 0 -72.5 -34t-24.5 -128v-12q0 -85 26 -115.5t73 -30.5q42 0 87 15l10 -6
q7 -14 13 -98q-47 -21 -116 -23l-1 -40h16q77 0 77 -73q0 -87 -111 -87q-20 0 -41.5 2t-32.5 4z" />
    <glyph glyph-name="egrave" unicode="&#xe8;" horiz-adv-x="455" 
d="M419 220h-257q0 -63 23.5 -91.5t89.5 -28.5q46 0 112 22l13 -6l2 -14q2 -14 4.5 -36.5t3.5 -41.5q-1 -2 -20 -10t-59.5 -17t-84.5 -9q-219 0 -219 257v35q0 117 57 184.5t150 67.5h11q88 0 135.5 -53t47.5 -156v-17q0 -15 -2 -36.5t-4 -35.5zM162 338v-36h138v36
q0 53 -14.5 74.5t-46.5 21.5h-2q-31 0 -53 -23.5t-22 -72.5zM95 677v43h117l83 -123l-9 -17h-76z" />
    <glyph glyph-name="eacute" unicode="&#xe9;" horiz-adv-x="455" 
d="M419 220h-257q0 -63 23.5 -91.5t89.5 -28.5q46 0 112 22l13 -6l2 -14q2 -14 4.5 -36.5t3.5 -41.5q-1 -2 -20 -10t-59.5 -17t-84.5 -9q-219 0 -219 257v35q0 117 57 184.5t150 67.5h11q88 0 135.5 -53t47.5 -156v-17q0 -15 -2 -36.5t-4 -35.5zM162 338v-36h138v36
q0 53 -14.5 74.5t-46.5 21.5h-2q-31 0 -53 -23.5t-22 -72.5zM377 720v-43l-115 -97h-76l-9 17l83 123h117z" />
    <glyph glyph-name="ecircumflex" unicode="&#xea;" horiz-adv-x="455" 
d="M419 220h-257q0 -63 23.5 -91.5t89.5 -28.5q46 0 112 22l13 -6l2 -14q2 -14 4.5 -36.5t3.5 -41.5q-1 -2 -20 -10t-59.5 -17t-84.5 -9q-219 0 -219 257v35q0 117 57 184.5t150 67.5h11q88 0 135.5 -53t47.5 -156v-17q0 -15 -2 -36.5t-4 -35.5zM162 338v-36h138v36
q0 53 -14.5 74.5t-46.5 21.5h-2q-31 0 -53 -23.5t-22 -72.5zM294 720l96 -115l-9 -25h-69l-74 62l-75 -62h-69l-9 25l97 115h112z" />
    <glyph glyph-name="edieresis" unicode="&#xeb;" horiz-adv-x="455" 
d="M419 220h-257q0 -63 23.5 -91.5t89.5 -28.5q46 0 112 22l13 -6l2 -14q2 -14 4.5 -36.5t3.5 -41.5q-1 -2 -20 -10t-59.5 -17t-84.5 -9q-219 0 -219 257v35q0 117 57 184.5t150 67.5h11q88 0 135.5 -53t47.5 -156v-17q0 -15 -2 -36.5t-4 -35.5zM162 338v-36h138v36
q0 53 -14.5 74.5t-46.5 21.5h-2q-31 0 -53 -23.5t-22 -72.5zM86 644q0 26 17 43t43 17q25 0 42 -17.5t17 -42.5q0 -26 -17 -43.5t-42 -17.5q-26 0 -43 17.5t-17 43.5zM274 644q0 26 17 43t43 17q25 0 42 -17.5t17 -42.5q0 -26 -17 -43.5t-42 -17.5q-26 0 -43 17.5t-17 43.5z
" />
    <glyph glyph-name="igrave" unicode="&#xec;" horiz-adv-x="320" 
d="M95 118v284l-65 16v102h200v-402l70 -16v-102h-275v102zM1 677v43h117l83 -123l-9 -17h-76z" />
    <glyph glyph-name="iacute" unicode="&#xed;" horiz-adv-x="320" 
d="M95 118v284l-65 16v102h200v-402l70 -16v-102h-275v102zM273 720v-43l-115 -97h-76l-9 17l83 123h117z" />
    <glyph glyph-name="icircumflex" unicode="&#xee;" horiz-adv-x="320" 
d="M95 118v284l-65 16v102h200v-402l70 -16v-102h-275v102zM216 720l96 -115l-9 -25h-69l-74 62l-75 -62h-69l-9 25l97 115h112z" />
    <glyph glyph-name="idieresis" unicode="&#xef;" horiz-adv-x="320" 
d="M7 643q0 25 17.5 42.5t42.5 17.5t42 -17.5t17 -42.5q0 -26 -17 -43.5t-42 -17.5q-26 0 -43 17.5t-17 43.5zM195 643q0 25 17.5 42.5t42.5 17.5t42 -17.5t17 -42.5q0 -26 -17 -43.5t-42 -17.5q-26 0 -43 17.5t-17 43.5zM95 118v284l-65 16v102h200v-402l70 -16v-102h-275
v102z" />
    <glyph glyph-name="eth" unicode="&#xf0;" horiz-adv-x="474" 
d="M114 533l-27 69l99 42q-32 15 -69 24l-25 6q8 44 13 66q113 -5 189 -51l114 48l27 -69q-14 -6 -40.5 -17t-36.5 -15q89 -97 89 -262v-135q0 -118 -54.5 -184.5t-148.5 -66.5h-14q-94 0 -148.5 66.5t-54.5 184.5v31q0 122 51 184.5t132 62.5q70 0 97 -41l5 3
q-11 67 -58 113zM312 198v114q0 101 -75 101t-75 -101v-114q0 -102 75 -102t75 102z" />
    <glyph glyph-name="ntilde" unicode="&#xf1;" horiz-adv-x="595" 
d="M90 118v284l-65 16v102h145l39 -60q74 72 161 72q65 0 102.5 -41t37.5 -109v-264l65 -16v-102h-200v360q0 60 -59 60q-50 0 -91 -32v-270l60 -16v-102h-260v102zM418 731l61 -19q-31 -130 -116 -130q-30 0 -70.5 29.5t-56.5 29.5q-38 0 -60 -59l-61 19q29 130 121 130
q31 0 72 -29.5t55 -29.5q33 0 55 59z" />
    <glyph glyph-name="ograve" unicode="&#xf2;" horiz-adv-x="474" 
d="M230 532h14q94 0 148.5 -66.5t54.5 -184.5v-42q0 -118 -54.5 -184.5t-148.5 -66.5h-14q-94 0 -148.5 66.5t-54.5 184.5v42q0 118 54.5 184.5t148.5 66.5zM312 198v125q0 101 -75 101t-75 -101v-125q0 -102 75 -102t75 102zM94 677v43h117l83 -123l-9 -17h-76z" />
    <glyph glyph-name="oacute" unicode="&#xf3;" horiz-adv-x="474" 
d="M230 532h14q94 0 148.5 -66.5t54.5 -184.5v-42q0 -118 -54.5 -184.5t-148.5 -66.5h-14q-94 0 -148.5 66.5t-54.5 184.5v42q0 118 54.5 184.5t148.5 66.5zM312 198v125q0 101 -75 101t-75 -101v-125q0 -102 75 -102t75 102zM371 720v-43l-115 -97h-76l-9 17l83 123h117z
" />
    <glyph glyph-name="ocircumflex" unicode="&#xf4;" horiz-adv-x="474" 
d="M230 532h14q94 0 148.5 -66.5t54.5 -184.5v-42q0 -118 -54.5 -184.5t-148.5 -66.5h-14q-94 0 -148.5 66.5t-54.5 184.5v42q0 118 54.5 184.5t148.5 66.5zM312 198v125q0 101 -75 101t-75 -101v-125q0 -102 75 -102t75 102zM294 720l96 -115l-9 -25h-69l-74 62l-75 -62
h-69l-9 25l97 115h112z" />
    <glyph glyph-name="otilde" unicode="&#xf5;" horiz-adv-x="474" 
d="M359 730l61 -19q-31 -130 -116 -130q-30 0 -70.5 29.5t-56.5 29.5q-38 0 -60 -59l-61 19q29 130 121 130q31 0 72 -29.5t55 -29.5q33 0 55 59zM230 532h14q94 0 148.5 -66.5t54.5 -184.5v-42q0 -118 -54.5 -184.5t-148.5 -66.5h-14q-94 0 -148.5 66.5t-54.5 184.5v42
q0 118 54.5 184.5t148.5 66.5zM312 198v125q0 101 -75 101t-75 -101v-125q0 -102 75 -102t75 102z" />
    <glyph glyph-name="odieresis" unicode="&#xf6;" horiz-adv-x="474" 
d="M230 532h14q94 0 148.5 -66.5t54.5 -184.5v-42q0 -118 -54.5 -184.5t-148.5 -66.5h-14q-94 0 -148.5 66.5t-54.5 184.5v42q0 118 54.5 184.5t148.5 66.5zM312 198v125q0 101 -75 101t-75 -101v-125q0 -102 75 -102t75 102zM83 645q0 25 17.5 42.5t42.5 17.5t42 -17.5
t17 -42.5q0 -26 -17 -43.5t-42 -17.5q-26 0 -43 17.5t-17 43.5zM271 645q0 25 17.5 42.5t42.5 17.5t42 -17.5t17 -42.5q0 -26 -17 -43.5t-42 -17.5q-26 0 -43 17.5t-17 43.5z" />
    <glyph glyph-name="divide" unicode="&#xf7;" 
d="M450 250h-400v97h400v-97zM187 125q0 28 18 46t45 18t45.5 -18t18.5 -46t-18.5 -46.5t-45.5 -18.5t-45 18.5t-18 46.5zM187 475q0 28 18 46t45 18t45.5 -18t18.5 -46t-18.5 -46.5t-45.5 -18.5t-45 18.5t-18 46.5z" />
    <glyph glyph-name="oslash" unicode="&#xf8;" horiz-adv-x="474" 
d="M230 532h14q54 0 97 -23l32 55l64 -38l-40 -68q50 -66 50 -177v-42q0 -118 -54.5 -184.5t-148.5 -66.5h-14q-51 0 -95 22l-33 -57l-63 38l39 67q-51 66 -51 181v42q0 118 54.5 184.5t148.5 66.5zM177 228l106 182q-19 14 -46 14q-37 0 -58.5 -26t-21.5 -75v-130h4z
M317 198v126h-4l-19 -42l-102 -175q18 -11 45 -11q37 0 58.5 26t21.5 76z" />
    <glyph glyph-name="ugrave" unicode="&#xf9;" horiz-adv-x="568" 
d="M20 520h190v-345q0 -75 65 -75q47 0 85 42v260l-55 16v102h190v-369q0 -44 35 -49l13 -2v-85q-25 -27 -75 -27q-74 0 -98 71h-5q-54 -71 -140 -71q-71 0 -110.5 45t-39.5 132v237l-55 16v102zM137 677v43h117l83 -123l-9 -17h-76z" />
    <glyph glyph-name="uacute" unicode="&#xfa;" horiz-adv-x="568" 
d="M20 520h190v-345q0 -75 65 -75q47 0 85 42v260l-55 16v102h190v-369q0 -44 35 -49l13 -2v-85q-25 -27 -75 -27q-74 0 -98 71h-5q-54 -71 -140 -71q-71 0 -110.5 45t-39.5 132v237l-55 16v102zM435 720v-43l-115 -97h-76l-9 17l83 123h117z" />
    <glyph glyph-name="ucircumflex" unicode="&#xfb;" horiz-adv-x="568" 
d="M20 520h190v-345q0 -75 65 -75q47 0 85 42v260l-55 16v102h190v-369q0 -44 35 -49l13 -2v-85q-25 -27 -75 -27q-74 0 -98 71h-5q-54 -71 -140 -71q-71 0 -110.5 45t-39.5 132v237l-55 16v102zM344 720l96 -115l-9 -25h-69l-74 62l-75 -62h-69l-9 25l97 115h112z" />
    <glyph glyph-name="udieresis" unicode="&#xfc;" horiz-adv-x="568" 
d="M20 520h190v-345q0 -75 65 -75q47 0 85 42v260l-55 16v102h190v-369q0 -44 35 -49l13 -2v-85q-25 -27 -75 -27q-74 0 -98 71h-5q-54 -71 -140 -71q-71 0 -110.5 45t-39.5 132v237l-55 16v102zM133 643q0 25 17.5 42.5t42.5 17.5t42 -17.5t17 -42.5q0 -26 -17 -43.5
t-42 -17.5q-26 0 -43 17.5t-17 43.5zM321 643q0 25 17.5 42.5t42.5 17.5t42 -17.5t17 -42.5q0 -26 -17 -43.5t-42 -17.5q-26 0 -43 17.5t-17 43.5z" />
    <glyph glyph-name="yacute" unicode="&#xfd;" horiz-adv-x="578" 
d="M302 168q14 67 19 84l47 153l-41 13v102h231v-102l-56 -15l-147 -472q-23 -73 -60.5 -102t-106.5 -29h-84v100l14 12h53q24 0 36 7.5t20 34.5l15 46h-17l-144 403l-61 15v102h237v-102l-39 -13l53 -153l21 -84h10zM461 720v-43l-115 -97h-76l-9 17l83 123h117z" />
    <glyph glyph-name="thorn" unicode="&#xfe;" horiz-adv-x="537" 
d="M80 -82v684l-60 16v82h195v-213h1q57 45 124 45q170 0 170 -259v-33q0 -126 -46.5 -189t-123.5 -63q-72 0 -123 45h-2v-115l70 -16v-102h-270v102zM375 251v18q0 84 -19 117.5t-61 33.5q-11 0 -22 -2t-20.5 -5t-16.5 -5.5t-13.5 -5.5t-7.5 -3v-279q48 -24 72 -24
q45 0 66.5 36.5t21.5 118.5z" />
    <glyph glyph-name="ydieresis" unicode="&#xff;" horiz-adv-x="578" 
d="M302 168q14 67 19 84l47 153l-41 13v102h231v-102l-56 -15l-147 -472q-23 -73 -60.5 -102t-106.5 -29h-84v100l14 12h53q24 0 36 7.5t20 34.5l15 46h-17l-144 403l-61 15v102h237v-102l-39 -13l53 -153l21 -84h10zM149 644q0 26 17.5 43t42.5 17t42 -17.5t17 -42.5
q0 -26 -17 -43.5t-42 -17.5q-26 0 -43 17.5t-17 43.5zM337 644q0 26 17.5 43t42.5 17t42 -17.5t17 -42.5q0 -26 -17 -43.5t-42 -17.5q-26 0 -43 17.5t-17 43.5z" />
    <glyph glyph-name="Amacron" unicode="&#x100;" horiz-adv-x="650" 
d="M90 118l109 424l-69 16v102h291l139 -542l70 -16v-102h-265v102l58 15l-17 71h-164l-16 -71l59 -15v-102h-265v102zM293 400l-24 -100h109l-24 100l-21 125h-17q-14 -85 -23 -125zM204 740v83h245v-83h-245z" />
    <glyph glyph-name="amacron" unicode="&#x101;" horiz-adv-x="505" 
d="M405 -12q-74 0 -98 71h-4q-50 -71 -135 -71q-65 0 -104 43.5t-39 107.5v16q0 137 141 155l131 17v5q0 46 -25 67t-91 21l-21 -1l-13 -59h-87v150q71 22 142 22q124 0 177 -48t53 -152v-181q0 -24 8 -35t27 -14l13 -2v-85q-25 -27 -75 -27zM220 96q41 0 77 44v110l-77 -16
q-60 -12 -60 -65v-12q0 -27 16.5 -44t43.5 -17zM105 600v83h245v-83h-245z" />
    <glyph glyph-name="Abreve" unicode="&#x102;" horiz-adv-x="650" 
d="M90 118l109 424l-69 16v102h291l139 -542l70 -16v-102h-265v102l58 15l-17 71h-164l-16 -71l59 -15v-102h-265v102zM293 400l-24 -100h109l-24 100l-21 125h-17q-14 -85 -23 -125zM390 859h82q0 -144 -146 -144q-145 0 -145 144h83q0 -24 15.5 -43t46.5 -19q32 0 48 19
t16 43z" />
    <glyph glyph-name="abreve" unicode="&#x103;" horiz-adv-x="505" 
d="M405 -12q-74 0 -98 71h-4q-50 -71 -135 -71q-65 0 -104 43.5t-39 107.5v16q0 137 141 155l131 17v5q0 46 -25 67t-91 21l-21 -1l-13 -59h-87v150q71 22 142 22q124 0 177 -48t53 -152v-181q0 -24 8 -35t27 -14l13 -2v-85q-25 -27 -75 -27zM220 96q41 0 77 44v110l-77 -16
q-60 -12 -60 -65v-12q0 -27 16.5 -44t43.5 -17zM292 719h82q0 -144 -146 -144q-145 0 -145 144h83q0 -24 15.5 -43t46.5 -19q32 0 48 19t16 43z" />
    <glyph glyph-name="Aogonek" unicode="&#x104;" horiz-adv-x="650" 
d="M650 -141l8 -61q-27 -10 -68 -10q-108 0 -108 81q0 64 78 130v1h-195v102l58 15l-17 71h-164l-16 -71l59 -15v-102h-265v102l70 16l109 424l-69 16v102h291l139 -542l70 -16v-102q-58 -77 -58 -109q0 -36 43 -36zM293 400l-24 -100h109l-24 100l-21 125h-17
q-14 -85 -23 -125z" />
    <glyph glyph-name="aogonek" unicode="&#x105;" horiz-adv-x="505" 
d="M477 -141l8 -61q-27 -10 -68 -10q-108 0 -108 81q0 58 67 122v1q-51 12 -69 67h-4q-50 -71 -135 -71q-65 0 -104 43.5t-39 107.5v16q0 137 141 155l131 17v5q0 46 -25 67t-91 21l-21 -1l-13 -59h-87v150q71 22 142 22q124 0 177 -48t53 -152v-181q0 -24 8 -35t27 -14
l13 -2v-85q-10 -9 -24 -16q-57 -75 -57 -108q0 -36 43 -36zM220 96q41 0 77 44v110l-77 -16q-60 -12 -60 -65v-12q0 -27 16.5 -44t43.5 -17z" />
    <glyph glyph-name="Cacute" unicode="&#x106;" horiz-adv-x="478" 
d="M320 560h-9q-69 0 -100.5 -53.5t-31.5 -173.5v-21q0 -113 32.5 -162.5t100.5 -49.5q27 0 53.5 4t39.5 8l13 5l11 -6q8 -49 12 -98q-59 -25 -149 -25q-119 0 -184 69.5t-65 242.5v35q0 337 258 337q38 0 72.5 -6t49.5 -12l15 -6v-178h-102zM449 860v-43l-115 -97h-76
l-9 17l83 123h117z" />
    <glyph glyph-name="cacute" unicode="&#x107;" horiz-adv-x="398" 
d="M273 419q-3 0 -7 0.5t-7 0.5q-48 0 -72.5 -34t-24.5 -128v-12q0 -85 26 -115.5t73 -30.5q42 0 87 15l10 -6q7 -14 13 -98q-51 -23 -126 -23q-111 0 -164.5 58t-53.5 199v15q0 146 54.5 209t165.5 63q32 0 63 -6t46 -12l15 -5v-164h-82zM386 720v-43l-115 -97h-76l-9 17
l83 123h117z" />
    <glyph glyph-name="Ccircumflex" unicode="&#x108;" horiz-adv-x="478" 
d="M320 560h-9q-69 0 -100.5 -53.5t-31.5 -173.5v-21q0 -113 32.5 -162.5t100.5 -49.5q27 0 53.5 4t39.5 8l13 5l11 -6q8 -49 12 -98q-59 -25 -149 -25q-119 0 -184 69.5t-65 242.5v35q0 337 258 337q38 0 72.5 -6t49.5 -12l15 -6v-178h-102zM358 860l96 -115l-9 -25h-69
l-74 62l-75 -62h-69l-9 25l97 115h112z" />
    <glyph glyph-name="ccircumflex" unicode="&#x109;" horiz-adv-x="398" 
d="M273 419q-3 0 -7 0.5t-7 0.5q-48 0 -72.5 -34t-24.5 -128v-12q0 -85 26 -115.5t73 -30.5q42 0 87 15l10 -6q7 -14 13 -98q-51 -23 -126 -23q-111 0 -164.5 58t-53.5 199v15q0 146 54.5 209t165.5 63q32 0 63 -6t46 -12l15 -5v-164h-82zM295 720l96 -115l-9 -25h-69
l-74 62l-75 -62h-69l-9 25l97 115h112z" />
    <glyph glyph-name="Cdotaccent" unicode="&#x10a;" horiz-adv-x="478" 
d="M320 560h-9q-69 0 -100.5 -53.5t-31.5 -173.5v-21q0 -113 32.5 -162.5t100.5 -49.5q27 0 53.5 4t39.5 8l13 5l11 -6q8 -49 12 -98q-59 -25 -149 -25q-119 0 -184 69.5t-65 242.5v35q0 337 258 337q38 0 72.5 -6t49.5 -12l15 -6v-178h-102zM235 788q0 28 18.5 46t45.5 18
t45 -18t18 -46t-18 -46.5t-45 -18.5t-45.5 18.5t-18.5 46.5z" />
    <glyph glyph-name="cdotaccent" unicode="&#x10b;" horiz-adv-x="398" 
d="M273 419q-3 0 -7 0.5t-7 0.5q-48 0 -72.5 -34t-24.5 -128v-12q0 -85 26 -115.5t73 -30.5q42 0 87 15l10 -6q7 -14 13 -98q-51 -23 -126 -23q-111 0 -164.5 58t-53.5 199v15q0 146 54.5 209t165.5 63q32 0 63 -6t46 -12l15 -5v-164h-82zM177 650q0 28 18.5 46t45.5 18
t45 -18t18 -46t-18 -46.5t-45 -18.5t-45.5 18.5t-18.5 46.5z" />
    <glyph glyph-name="Ccaron" unicode="&#x10c;" horiz-adv-x="478" 
d="M320 560h-9q-69 0 -100.5 -53.5t-31.5 -173.5v-21q0 -113 32.5 -162.5t100.5 -49.5q27 0 53.5 4t39.5 8l13 5l11 -6q8 -49 12 -98q-59 -25 -149 -25q-119 0 -184 69.5t-65 242.5v35q0 337 258 337q38 0 72.5 -6t49.5 -12l15 -6v-178h-102zM237 720l-96 115l9 25h69
l74 -62l75 62h69l9 -25l-97 -115h-112z" />
    <glyph glyph-name="ccaron" unicode="&#x10d;" horiz-adv-x="398" 
d="M273 419q-3 0 -7 0.5t-7 0.5q-48 0 -72.5 -34t-24.5 -128v-12q0 -85 26 -115.5t73 -30.5q42 0 87 15l10 -6q7 -14 13 -98q-51 -23 -126 -23q-111 0 -164.5 58t-53.5 199v15q0 146 54.5 209t165.5 63q32 0 63 -6t46 -12l15 -5v-164h-82zM179 580l-96 115l9 25h69l74 -62
l75 62h69l9 -25l-97 -115h-112z" />
    <glyph glyph-name="Dcaron" unicode="&#x10e;" horiz-adv-x="563" 
d="M90 118v424l-70 16v102h272q108 0 168 -63.5t60 -196.5v-172q0 -112 -51 -170t-147 -58h-302v102zM268 548h-43v-436h66q46 0 70 29t24 104v151q0 88 -28 120t-89 32zM202 720l-96 115l9 25h69l74 -62l75 62h69l9 -25l-97 -115h-112z" />
    <glyph glyph-name="dcaron" unicode="&#x10f;" horiz-adv-x="643" 
d="M457 700v-549q0 -44 35 -49l13 -2v-85q-25 -27 -74 -27q-33 0 -59 18.5t-37 46.5h-7q-50 -65 -128 -65q-79 0 -126 61t-47 188v36q0 259 195 259q46 0 100 -26v96l-60 16v82h195zM162 269v-19q0 -154 80 -154q39 0 80 37v268q-41 18 -71 18q-44 0 -66.5 -34t-22.5 -116z
M497 636q0 35 22 57.5t56 22.5t56 -22.5t22 -58.5q0 -48 -44 -115l-58 -87h-46v18l35 107v4q-43 19 -43 74z" />
    <glyph glyph-name="Dmacron" unicode="&#x110;" horiz-adv-x="563" 
d="M90 118v154h-57v98h57v172l-70 16v102h272q108 0 168 -63.5t60 -196.5v-172q0 -112 -51 -170t-147 -58h-302v102zM268 548h-43v-178h68v-98h-68v-160h66q46 0 70 29t24 104v151q0 88 -28 120t-89 32z" />
    <glyph glyph-name="dmacron" unicode="&#x111;" horiz-adv-x="530" 
d="M457 700v-55h55v-74h-55v-420q0 -44 35 -49l13 -2v-85q-25 -27 -74 -27q-33 0 -59 18.5t-37 46.5h-7q-50 -65 -128 -65q-79 0 -126 61t-47 188v36q0 253 195 253q49 0 97 -25h3v70h-155v74h155v55h135zM162 269v-19q0 -154 80 -154q39 0 80 37v262q-41 18 -71 18
q-45 0 -67 -31.5t-22 -112.5z" />
    <glyph glyph-name="Emacron" unicode="&#x112;" horiz-adv-x="470" 
d="M322 548h-97v-168h150v-98h-150v-170h107l16 73h102v-185h-430v102l70 16v424l-70 16v102h420v-185h-102zM130 738v83h245v-83h-245z" />
    <glyph glyph-name="emacron" unicode="&#x113;" horiz-adv-x="455" 
d="M419 220h-257q0 -63 23.5 -91.5t89.5 -28.5q46 0 112 22l13 -6l2 -14q2 -14 4.5 -36.5t3.5 -41.5q-1 -2 -20 -10t-59.5 -17t-84.5 -9q-219 0 -219 257v35q0 117 57 184.5t150 67.5h11q88 0 135.5 -53t47.5 -156v-17q0 -15 -2 -36.5t-4 -35.5zM162 338v-36h138v36
q0 53 -14.5 74.5t-46.5 21.5h-2q-31 0 -53 -23.5t-22 -72.5zM115 598v83h245v-83h-245z" />
    <glyph glyph-name="Ebreve" unicode="&#x114;" horiz-adv-x="470" 
d="M322 548h-97v-168h150v-98h-150v-170h107l16 73h102v-185h-430v102l70 16v424l-70 16v102h420v-185h-102zM319 856h82q0 -144 -146 -144q-145 0 -145 144h83q0 -24 15.5 -43t46.5 -19q32 0 48 19t16 43z" />
    <glyph glyph-name="ebreve" unicode="&#x115;" horiz-adv-x="455" 
d="M419 220h-257q0 -63 23.5 -91.5t89.5 -28.5q46 0 112 22l13 -6l2 -14q2 -14 4.5 -36.5t3.5 -41.5q-1 -2 -20 -10t-59.5 -17t-84.5 -9q-219 0 -219 257v35q0 117 57 184.5t150 67.5h11q88 0 135.5 -53t47.5 -156v-17q0 -15 -2 -36.5t-4 -35.5zM162 338v-36h138v36
q0 53 -14.5 74.5t-46.5 21.5h-2q-31 0 -53 -23.5t-22 -72.5zM299 717h82q0 -144 -146 -144q-145 0 -145 144h83q0 -24 15.5 -43t46.5 -19q32 0 48 19t16 43z" />
    <glyph glyph-name="Edotaccent" unicode="&#x116;" horiz-adv-x="470" 
d="M322 548h-97v-168h150v-98h-150v-170h107l16 73h102v-185h-430v102l70 16v424l-70 16v102h420v-185h-102zM192 787q0 28 18.5 46t45.5 18t45 -18t18 -46t-18 -46.5t-45 -18.5t-45.5 18.5t-18.5 46.5z" />
    <glyph glyph-name="edotaccent" unicode="&#x117;" horiz-adv-x="455" 
d="M419 220h-257q0 -63 23.5 -91.5t89.5 -28.5q46 0 112 22l13 -6l2 -14q2 -14 4.5 -36.5t3.5 -41.5q-1 -2 -20 -10t-59.5 -17t-84.5 -9q-219 0 -219 257v35q0 117 57 184.5t150 67.5h11q88 0 135.5 -53t47.5 -156v-17q0 -15 -2 -36.5t-4 -35.5zM162 338v-36h138v36
q0 53 -14.5 74.5t-46.5 21.5h-2q-31 0 -53 -23.5t-22 -72.5zM175 647q0 28 18.5 46t45.5 18t45 -18t18 -46t-18 -46.5t-45 -18.5t-45.5 18.5t-18.5 46.5z" />
    <glyph glyph-name="Eogonek" unicode="&#x118;" horiz-adv-x="470" 
d="M470 -141l8 -61q-27 -10 -68 -10q-108 0 -108 81q0 61 75 128v3h-357v102l70 16v424l-70 16v102h420v-185h-102l-16 73h-97v-168h150v-98h-150v-170h107l16 73h102v-185q-58 -77 -58 -109q0 -36 43 -36z" />
    <glyph glyph-name="eogonek" unicode="&#x119;" horiz-adv-x="455" 
d="M419 220h-257q0 -63 23.5 -91.5t89.5 -28.5q46 0 112 22l13 -6l2 -14q2 -14 4.5 -36.5t3.5 -41.5q-1 -1 -8.5 -4.5t-24 -9.5t-34.5 -10q-57 -75 -57 -109q0 -36 43 -36l35 4l8 -61q-27 -10 -68 -10q-108 0 -108 81q0 57 62 117v2h-12q-219 0 -219 257v35q0 117 57 184.5
t150 67.5h11q88 0 135.5 -53t47.5 -156v-17q0 -15 -2 -36.5t-4 -35.5zM162 338v-36h138v36q0 53 -14.5 74.5t-46.5 21.5h-2q-31 0 -53 -23.5t-22 -72.5z" />
    <glyph glyph-name="Ecaron" unicode="&#x11a;" horiz-adv-x="470" 
d="M322 548h-97v-168h150v-98h-150v-170h107l16 73h102v-185h-430v102l70 16v424l-70 16v102h420v-185h-102zM198 720l-96 115l9 25h69l74 -62l75 62h69l9 -25l-97 -115h-112z" />
    <glyph glyph-name="ecaron" unicode="&#x11b;" horiz-adv-x="455" 
d="M419 220h-257q0 -63 23.5 -91.5t89.5 -28.5q46 0 112 22l13 -6l2 -14q2 -14 4.5 -36.5t3.5 -41.5q-1 -2 -20 -10t-59.5 -17t-84.5 -9q-219 0 -219 257v35q0 117 57 184.5t150 67.5h11q88 0 135.5 -53t47.5 -156v-17q0 -15 -2 -36.5t-4 -35.5zM162 338v-36h138v36
q0 53 -14.5 74.5t-46.5 21.5h-2q-31 0 -53 -23.5t-22 -72.5zM181 580l-96 115l9 25h69l74 -62l75 62h69l9 -25l-97 -115h-112z" />
    <glyph glyph-name="Gcircumflex" unicode="&#x11c;" horiz-adv-x="513" 
d="M282 100q38 0 66 19v113l-70 16v102h205v-350h-73l-18 39q-60 -51 -137 -51q-102 0 -157 72t-55 245v35q0 183 67.5 257.5t204.5 74.5q36 0 74 -6.5t59 -13.5l20 -6v-171h-102l-16 83q-20 2 -26 2q-80 0 -111.5 -48t-31.5 -179v-31q0 -81 13 -127t33.5 -60.5t54.5 -14.5z
M358 860l96 -115l-9 -25h-69l-74 62l-75 -62h-69l-9 25l97 115h112z" />
    <glyph glyph-name="gcircumflex" unicode="&#x11d;" horiz-adv-x="517" 
d="M280 -6h-84h-23q-16 -30 -16 -60q0 -62 98 -62q92 0 92 61v6q0 25 -17 40t-50 15zM300 340v21q0 77 -70 77t-70 -77v-14q0 -80 70 -80t70 73zM430 520h70v-105l-13 -9q-12 2 -26 2q-23 0 -34 -8q8 -26 8 -49q0 -90 -54.5 -134t-143.5 -44h-15q-28 0 -54 6
q-12 -22 -12 -42q0 -16 11 -25.5t29 -9.5h113q82 0 127.5 -41t45.5 -101v-19q0 -64 -52.5 -108.5t-159.5 -44.5h-50q-95 0 -146.5 33t-51.5 87v8q0 29 17 55t45 41v3q-41 27 -41 81q0 49 52 111q-70 46 -70 144q0 80 53 130.5t144 50.5h15q95 0 150 -57zM287 720l96 -115
l-9 -25h-69l-74 62l-75 -62h-69l-9 25l97 115h112z" />
    <glyph glyph-name="Gbreve" unicode="&#x11e;" horiz-adv-x="513" 
d="M282 100q38 0 66 19v113l-70 16v102h205v-350h-73l-18 39q-60 -51 -137 -51q-102 0 -157 72t-55 245v35q0 183 67.5 257.5t204.5 74.5q36 0 74 -6.5t59 -13.5l20 -6v-171h-102l-16 83q-20 2 -26 2q-80 0 -111.5 -48t-31.5 -179v-31q0 -81 13 -127t33.5 -60.5t54.5 -14.5z
M363 859h82q0 -144 -146 -144q-145 0 -145 144h83q0 -24 15.5 -43t46.5 -19q32 0 48 19t16 43z" />
    <glyph glyph-name="gbreve" unicode="&#x11f;" horiz-adv-x="517" 
d="M280 -6h-84h-23q-16 -30 -16 -60q0 -62 98 -62q92 0 92 61v6q0 25 -17 40t-50 15zM300 340v21q0 77 -70 77t-70 -77v-14q0 -80 70 -80t70 73zM430 520h70v-105l-13 -9q-12 2 -26 2q-23 0 -34 -8q8 -26 8 -49q0 -90 -54.5 -134t-143.5 -44h-15q-28 0 -54 6
q-12 -22 -12 -42q0 -16 11 -25.5t29 -9.5h113q82 0 127.5 -41t45.5 -101v-19q0 -64 -52.5 -108.5t-159.5 -44.5h-50q-95 0 -146.5 33t-51.5 87v8q0 29 17 55t45 41v3q-41 27 -41 81q0 49 52 111q-70 46 -70 144q0 80 53 130.5t144 50.5h15q95 0 150 -57zM297 719h82
q0 -144 -146 -144q-145 0 -145 144h83q0 -24 15.5 -43t46.5 -19q32 0 48 19t16 43z" />
    <glyph glyph-name="Gdotaccent" unicode="&#x120;" horiz-adv-x="513" 
d="M282 100q38 0 66 19v113l-70 16v102h205v-350h-73l-18 39q-60 -51 -137 -51q-102 0 -157 72t-55 245v35q0 183 67.5 257.5t204.5 74.5q36 0 74 -6.5t59 -13.5l20 -6v-171h-102l-16 83q-20 2 -26 2q-80 0 -111.5 -48t-31.5 -179v-31q0 -81 13 -127t33.5 -60.5t54.5 -14.5z
M238 787q0 28 18.5 46t45.5 18t45 -18t18 -46t-18 -46.5t-45 -18.5t-45.5 18.5t-18.5 46.5z" />
    <glyph glyph-name="gdotaccent" unicode="&#x121;" horiz-adv-x="517" 
d="M280 -6h-84h-23q-16 -30 -16 -60q0 -62 98 -62q92 0 92 61v6q0 25 -17 40t-50 15zM300 340v21q0 77 -70 77t-70 -77v-14q0 -80 70 -80t70 73zM430 520h70v-105l-13 -9q-12 2 -26 2q-23 0 -34 -8q8 -26 8 -49q0 -90 -54.5 -134t-143.5 -44h-15q-28 0 -54 6
q-12 -22 -12 -42q0 -16 11 -25.5t29 -9.5h113q82 0 127.5 -41t45.5 -101v-19q0 -64 -52.5 -108.5t-159.5 -44.5h-50q-95 0 -146.5 33t-51.5 87v8q0 29 17 55t45 41v3q-41 27 -41 81q0 49 52 111q-70 46 -70 144q0 80 53 130.5t144 50.5h15q95 0 150 -57zM167 648
q0 28 18.5 46t45.5 18t45 -18t18 -46t-18 -46.5t-45 -18.5t-45.5 18.5t-18.5 46.5z" />
    <glyph glyph-name="Gcommaaccent" unicode="&#x122;" horiz-adv-x="513" 
d="M282 100q38 0 66 19v113l-70 16v102h205v-350h-73l-18 39q-60 -51 -137 -51q-102 0 -157 72t-55 245v35q0 183 67.5 257.5t204.5 74.5q36 0 74 -6.5t59 -13.5l20 -6v-171h-102l-16 83q-20 2 -26 2q-80 0 -111.5 -48t-31.5 -179v-31q0 -81 13 -127t33.5 -60.5t54.5 -14.5z
M207 -130q0 35 22 57.5t56 22.5t56 -22.5t22 -58.5q0 -48 -44 -115l-58 -87h-46v18l35 107v4q-43 19 -43 74z" />
    <glyph glyph-name="gcommaaccent" unicode="&#x123;" horiz-adv-x="517" 
d="M280 -6h-84h-23q-16 -30 -16 -60q0 -62 98 -62q92 0 92 61v6q0 25 -17 40t-50 15zM300 340v21q0 77 -70 77t-70 -77v-14q0 -80 70 -80t70 73zM430 520h70v-105l-13 -9q-12 2 -26 2q-23 0 -34 -8q8 -26 8 -49q0 -90 -54.5 -134t-143.5 -44h-15q-28 0 -54 6
q-12 -22 -12 -42q0 -16 11 -25.5t29 -9.5h113q82 0 127.5 -41t45.5 -101v-19q0 -64 -52.5 -108.5t-159.5 -44.5h-50q-95 0 -146.5 33t-51.5 87v8q0 29 17 55t45 41v3q-41 27 -41 81q0 49 52 111q-70 46 -70 144q0 80 53 130.5t144 50.5h15q95 0 150 -57zM308 641
q0 -35 -22 -57.5t-56 -22.5t-56 22.5t-22 58.5q0 48 44 115l58 87h46v-18l-35 -107v-4q43 -19 43 -74z" />
    <glyph glyph-name="Hcircumflex" unicode="&#x124;" horiz-adv-x="630" 
d="M540 542v-424l70 -16v-102h-260v102l55 16v157h-180v-157l55 -16v-102h-260v102l70 16v424l-70 16v102h260v-102l-55 -16v-155h180v155l-55 16v102h260v-102zM372 860l96 -115l-9 -25h-69l-74 62l-75 -62h-69l-9 25l97 115h112z" />
    <glyph glyph-name="hcircumflex" unicode="&#x125;" horiz-adv-x="595" 
d="M90 118v484l-60 16v82h195v-224h2q64 56 143 56q64 0 102 -41t38 -109v-264l65 -16v-102h-200v360q0 60 -59 60q-50 0 -91 -32v-270l60 -16v-102h-260v102zM206 881l96 -115l-9 -25h-69l-74 62l-75 -62h-69l-9 25l97 115h112z" />
    <glyph glyph-name="Imacron" unicode="&#x12a;" horiz-adv-x="315" 
d="M225 542v-424l70 -16v-102h-275v102l70 16v424l-70 16v102h275v-102zM35 738v83h245v-83h-245z" />
    <glyph glyph-name="imacron" unicode="&#x12b;" horiz-adv-x="320" 
d="M95 118v284l-65 16v102h200v-402l70 -16v-102h-275v102zM34 598v83h245v-83h-245z" />
    <glyph glyph-name="Iogonek" unicode="&#x12e;" horiz-adv-x="315" 
d="M315 -141l8 -61q-27 -10 -68 -10q-108 0 -108 81q0 62 76 129v2h-203v102l70 16v424l-70 16v102h275v-102l-70 -16v-424l70 -16v-102q-58 -77 -58 -109q0 -36 43 -36z" />
    <glyph glyph-name="iogonek" unicode="&#x12f;" horiz-adv-x="320" 
d="M320 -141l8 -61q-27 -10 -68 -10q-108 0 -108 81q0 62 76 129v2h-203v102l70 16v284l-65 16v102h200v-402l70 -16v-102q-58 -77 -58 -109q0 -36 43 -36zM83 644q0 34 21.5 52t57.5 18t57.5 -18t21.5 -52t-21.5 -52t-57.5 -18t-57.5 18t-21.5 52z" />
    <glyph glyph-name="Idotaccent" unicode="&#x130;" horiz-adv-x="315" 
d="M225 542v-424l70 -16v-102h-275v102l70 16v424l-70 16v102h275v-102zM94 789q0 28 18.5 46t45.5 18t45 -18t18 -46t-18 -46.5t-45 -18.5t-45.5 18.5t-18.5 46.5z" />
    <glyph glyph-name="dotlessi" unicode="&#x131;" horiz-adv-x="320" 
d="M95 118v284l-65 16v102h200v-402l70 -16v-102h-275v102z" />
    <glyph glyph-name="Jcircumflex" unicode="&#x134;" horiz-adv-x="371" 
d="M281 542v-342q0 -117 -40.5 -164.5t-129.5 -47.5q-21 0 -45 3t-38 5l-13 3l8 96l12 9q25 -4 46 -4q38 0 51.5 26t13.5 95v321l-75 16v102h280v-102zM262 860l96 -115l-9 -25h-69l-74 62l-75 -62h-69l-9 25l97 115h112z" />
    <glyph glyph-name="jcircumflex" unicode="&#x135;" horiz-adv-x="291" 
d="M220 520v-573q0 -81 -31 -120t-101 -39q-24 0 -49 4.5t-38 9.5l-13 4l10 86l14 13q16 -5 29 -5q44 0 44 59v443l-65 16v102h200zM191 720l96 -115l-9 -25h-69l-74 62l-75 -62h-69l-9 25l97 115h112z" />
    <glyph glyph-name="Kcommaaccent" unicode="&#x136;" horiz-adv-x="616" 
d="M225 542v-155h68l139 273h154v-102l-69 -16l-104 -207l113 -217l70 -16v-102h-260v102l41 12l-85 161h-67v-157l55 -16v-102h-260v102l70 16v424l-70 16v102h260v-102zM212 -130q0 35 22 57.5t56 22.5t56 -22.5t22 -58.5q0 -48 -44 -115l-58 -87h-46v18l35 107v4
q-43 19 -43 74z" />
    <glyph glyph-name="kcommaaccent" unicode="&#x137;" horiz-adv-x="573" 
d="M85 118v484l-60 16v82h195v-390h58l63 97l-38 11v102h240v-102l-70 -16l-86 -134l93 -150l73 -16v-102h-153l-131 212h-49v-94l60 -16v-102h-260v102zM208 -130q0 35 22 57.5t56 22.5t56 -22.5t22 -58.5q0 -48 -44 -115l-58 -87h-46v18l35 107v4q-43 19 -43 74z" />
    <glyph glyph-name="Lacute" unicode="&#x139;" horiz-adv-x="450" 
d="M90 118v424l-70 16v102h275v-102l-70 -16v-430h87l16 80h102v-192h-410v102zM312 860v-43l-115 -97h-76l-9 17l83 123h117z" />
    <glyph glyph-name="lacute" unicode="&#x13a;" horiz-adv-x="320" 
d="M95 118v484l-60 16v82h195v-582l70 -16v-102h-275v102zM298 880v-43l-115 -97h-76l-9 17l83 123h117z" />
    <glyph glyph-name="Lcommaaccent" unicode="&#x13b;" horiz-adv-x="450" 
d="M90 118v424l-70 16v102h275v-102l-70 -16v-430h87l16 80h102v-192h-410v102zM173 -117q0 31 20 51.5t50 20.5q31 0 50.5 -20t19.5 -53q0 -44 -39 -103l-53 -79h-41v16l32 97v3q-39 17 -39 67z" />
    <glyph glyph-name="lcommaaccent" unicode="&#x13c;" horiz-adv-x="320" 
d="M95 118v484l-60 16v82h195v-582l70 -16v-102h-275v102zM89 -130q0 35 22 57.5t56 22.5t56 -22.5t22 -58.5q0 -48 -44 -115l-58 -87h-46v18l35 107v4q-43 19 -43 74z" />
    <glyph glyph-name="Lcaron" unicode="&#x13d;" horiz-adv-x="467" 
d="M90 118v424l-70 16v102h275v-102l-70 -16v-430h87l16 80h102v-192h-410v102zM323 622q0 28 17.5 46t44.5 18t44.5 -18t17.5 -47q0 -39 -35 -92l-46 -69h-37v14l28 86v3q-34 14 -34 59z" />
    <glyph glyph-name="lcaron" unicode="&#x13e;" horiz-adv-x="436" 
d="M95 118v484l-60 16v82h195v-582l70 -16v-102h-275v102zM280 641q0 35 22 57.5t56 22.5t56 -22.5t22 -58.5q0 -48 -44 -115l-58 -87h-46v18l35 107v4q-43 19 -43 74z" />
    <glyph glyph-name="Ldot" unicode="&#x13f;" horiz-adv-x="450" 
d="M90 118v424l-70 16v102h275v-102l-70 -16v-430h87l16 80h102v-192h-410v102zM277 339q0 32 20.5 52t50.5 20t50 -20t20 -52q0 -31 -20 -51.5t-50 -20.5t-50.5 20.5t-20.5 51.5z" />
    <glyph glyph-name="ldot" unicode="&#x140;" horiz-adv-x="409" 
d="M95 118v484l-60 16v82h195v-582l70 -16v-102h-275v102zM273 356q0 36 22.5 58t55.5 22q34 0 56 -22t22 -58q0 -35 -22 -57.5t-56 -22.5q-33 0 -55.5 22.5t-22.5 57.5z" />
    <glyph glyph-name="Lslash" unicode="&#x141;" horiz-adv-x="450" 
d="M25 193v95l65 33v221l-70 16v102h275v-102l-70 -16v-153l100 51v-95l-100 -51v-182h87l16 80h102v-192h-410v102l70 16v108z" />
    <glyph glyph-name="lslash" unicode="&#x142;" horiz-adv-x="320" 
d="M30 198v90l65 34v280l-60 16v82h195v-307l65 35v-90l-65 -35v-185l70 -16v-102h-275v102l70 16v114z" />
    <glyph glyph-name="Nacute" unicode="&#x143;" horiz-adv-x="677" 
d="M587 542v-542h-147l-186 364l-29 77l-6 -1l6 -98v-224l60 -16v-102h-265v102l70 16v424l-70 16v102h217l186 -364l29 -78l5 1l-5 99v224l-60 16v102h265v-102zM504 860v-43l-115 -97h-76l-9 17l83 123h117z" />
    <glyph glyph-name="nacute" unicode="&#x144;" horiz-adv-x="595" 
d="M90 118v284l-65 16v102h145l39 -60q74 72 161 72q65 0 102.5 -41t37.5 -109v-264l65 -16v-102h-200v360q0 60 -59 60q-50 0 -91 -32v-270l60 -16v-102h-260v102zM434 720v-43l-115 -97h-76l-9 17l83 123h117z" />
    <glyph glyph-name="Ncommaaccent" unicode="&#x145;" horiz-adv-x="677" 
d="M587 542v-542h-147l-186 364l-29 77l-6 -1l6 -98v-224l60 -16v-102h-265v102l70 16v424l-70 16v102h217l186 -364l29 -78l5 1l-5 99v224l-60 16v102h265v-102zM258 -117q0 31 20 51.5t50 20.5q31 0 50.5 -20t19.5 -53q0 -44 -39 -103l-53 -79h-41v16l32 97v3
q-39 17 -39 67z" />
    <glyph glyph-name="ncommaaccent" unicode="&#x146;" horiz-adv-x="595" 
d="M90 118v284l-65 16v102h145l39 -60q74 72 161 72q65 0 102.5 -41t37.5 -109v-264l65 -16v-102h-200v360q0 60 -59 60q-50 0 -91 -32v-270l60 -16v-102h-260v102zM221 -130q0 35 22 57.5t56 22.5t56 -22.5t22 -58.5q0 -48 -44 -115l-58 -87h-46v18l35 107v4q-43 19 -43 74
z" />
    <glyph glyph-name="Ncaron" unicode="&#x147;" horiz-adv-x="677" 
d="M587 542v-542h-147l-186 364l-29 77l-6 -1l6 -98v-224l60 -16v-102h-265v102l70 16v424l-70 16v102h217l186 -364l29 -78l5 1l-5 99v224l-60 16v102h265v-102zM290 720l-96 115l9 25h69l74 -62l75 62h69l9 -25l-97 -115h-112z" />
    <glyph glyph-name="ncaron" unicode="&#x148;" horiz-adv-x="595" 
d="M90 118v284l-65 16v102h145l39 -60q74 72 161 72q65 0 102.5 -41t37.5 -109v-264l65 -16v-102h-200v360q0 60 -59 60q-50 0 -91 -32v-270l60 -16v-102h-260v102zM246 580l-96 115l9 25h69l74 -62l75 62h69l9 -25l-97 -115h-112z" />
    <glyph glyph-name="Omacron" unicode="&#x14c;" horiz-adv-x="526" 
d="M257 672h12q113 0 163.5 -79.5t50.5 -242.5v-41q0 -163 -50.5 -242t-163.5 -79h-12q-113 0 -163.5 79t-50.5 242v41q0 163 50.5 242.5t163.5 79.5zM346 291v77q0 104 -19 148t-64 44t-64 -44t-19 -148v-77q0 -104 19 -147.5t64 -43.5t64 43.5t19 147.5zM139 738v83h245
v-83h-245z" />
    <glyph glyph-name="omacron" unicode="&#x14d;" horiz-adv-x="474" 
d="M230 532h14q94 0 148.5 -66.5t54.5 -184.5v-42q0 -118 -54.5 -184.5t-148.5 -66.5h-14q-94 0 -148.5 66.5t-54.5 184.5v42q0 118 54.5 184.5t148.5 66.5zM312 198v125q0 101 -75 101t-75 -101v-125q0 -102 75 -102t75 102zM114 598v83h245v-83h-245z" />
    <glyph glyph-name="Obreve" unicode="&#x14e;" horiz-adv-x="526" 
d="M257 672h12q113 0 163.5 -79.5t50.5 -242.5v-41q0 -163 -50.5 -242t-163.5 -79h-12q-113 0 -163.5 79t-50.5 242v41q0 163 50.5 242.5t163.5 79.5zM346 291v77q0 104 -19 148t-64 44t-64 -44t-19 -148v-77q0 -104 19 -147.5t64 -43.5t64 43.5t19 147.5zM326 856h82
q0 -144 -146 -144q-145 0 -145 144h83q0 -24 15.5 -43t46.5 -19q32 0 48 19t16 43z" />
    <glyph glyph-name="obreve" unicode="&#x14f;" horiz-adv-x="474" 
d="M230 532h14q94 0 148.5 -66.5t54.5 -184.5v-42q0 -118 -54.5 -184.5t-148.5 -66.5h-14q-94 0 -148.5 66.5t-54.5 184.5v42q0 118 54.5 184.5t148.5 66.5zM312 198v125q0 101 -75 101t-75 -101v-125q0 -102 75 -102t75 102zM300 719h82q0 -144 -146 -144q-145 0 -145 144
h83q0 -24 15.5 -43t46.5 -19q32 0 48 19t16 43z" />
    <glyph glyph-name="Ohungarumlaut" unicode="&#x150;" horiz-adv-x="526" 
d="M257 672h12q113 0 163.5 -79.5t50.5 -242.5v-41q0 -163 -50.5 -242t-163.5 -79h-12q-113 0 -163.5 79t-50.5 242v41q0 163 50.5 242.5t163.5 79.5zM346 291v77q0 104 -19 148t-64 44t-64 -44t-19 -148v-77q0 -104 19 -147.5t64 -43.5t64 43.5t19 147.5zM469 859v-43
l-105 -97h-46l-9 17l65 123h95zM305 859v-43l-105 -97h-46l-9 17l65 123h95z" />
    <glyph glyph-name="ohungarumlaut" unicode="&#x151;" horiz-adv-x="474" 
d="M230 532h14q94 0 148.5 -66.5t54.5 -184.5v-42q0 -118 -54.5 -184.5t-148.5 -66.5h-14q-94 0 -148.5 66.5t-54.5 184.5v42q0 118 54.5 184.5t148.5 66.5zM312 198v125q0 101 -75 101t-75 -101v-125q0 -102 75 -102t75 102zM445 720v-43l-105 -97h-46l-9 17l65 123h95z
M281 720v-43l-105 -97h-46l-9 17l65 123h95z" />
    <glyph glyph-name="OE" unicode="&#x152;" horiz-adv-x="717" 
d="M257 672h12q43 0 78 -12h340v-185h-102l-16 73h-110l-3 -3q23 -63 26 -165h140v-98h-140q-1 -101 -26 -168l2 -2h121l16 73h102v-185h-350q-35 -12 -78 -12h-12q-113 0 -163.5 79t-50.5 242v41q0 163 50.5 242.5t163.5 79.5zM346 291v77q0 104 -19 148t-64 44t-64 -44
t-19 -148v-77q0 -104 19 -147.5t64 -43.5t64 43.5t19 147.5z" />
    <glyph glyph-name="oe" unicode="&#x153;" horiz-adv-x="740" 
d="M704 220h-257q0 -63 23.5 -91.5t89.5 -28.5q46 0 112 22l13 -6l2 -14q2 -14 4.5 -36.5t3.5 -41.5q-1 -2 -20 -10t-59.5 -17t-84.5 -9q-101 0 -151 54h-3q-49 -54 -133 -54h-14q-94 0 -148.5 66.5t-54.5 184.5v42q0 118 54.5 184.5t148.5 66.5h14q86 0 135 -57h3
q52 57 137 57h11q88 0 135.5 -53t47.5 -156v-17q0 -15 -2.5 -36.5t-4.5 -35.5zM312 198v125q0 101 -75 101t-75 -101v-125q0 -102 75 -102t75 102zM447 338v-36h138v36q0 53 -14.5 74.5t-46.5 21.5h-2q-31 0 -53 -23.5t-22 -72.5z" />
    <glyph glyph-name="Racute" unicode="&#x154;" horiz-adv-x="578" 
d="M90 118v424l-70 16v102h281q219 0 219 -199v-16q0 -121 -98 -163v-3q20 -13 35 -54l41 -109l60 -14v-102h-160l-87 233q-10 27 -35 27h-51v-142l65 -16v-102h-270v102zM280 548h-55v-190h66q49 0 71.5 19t22.5 64v10q0 53 -23.5 75t-81.5 22zM409 860v-43l-115 -97h-76
l-9 17l83 123h117z" />
    <glyph glyph-name="racute" unicode="&#x155;" horiz-adv-x="373" 
d="M90 118v284l-65 16v102h145l36 -59h1q45 71 127 71l24 -2l-9 -120l-17 -9q-14 3 -31 3q-51 0 -76 -35v-251l85 -16v-102h-285v102zM358 720v-43l-115 -97h-76l-9 17l83 123h117z" />
    <glyph glyph-name="Rcommaaccent" unicode="&#x156;" horiz-adv-x="578" 
d="M90 118v424l-70 16v102h281q219 0 219 -199v-16q0 -121 -98 -163v-3q20 -13 35 -54l41 -109l60 -14v-102h-160l-87 233q-10 27 -35 27h-51v-142l65 -16v-102h-270v102zM280 548h-55v-190h66q49 0 71.5 19t22.5 64v10q0 53 -23.5 75t-81.5 22zM221 -117q0 31 20 51.5
t50 20.5q31 0 50.5 -20t19.5 -53q0 -44 -39 -103l-53 -79h-41v16l32 97v3q-39 17 -39 67z" />
    <glyph glyph-name="rcommaaccent" unicode="&#x157;" horiz-adv-x="373" 
d="M90 118v284l-65 16v102h145l36 -59h1q45 71 127 71l24 -2l-9 -120l-17 -9q-14 3 -31 3q-51 0 -76 -35v-251l85 -16v-102h-285v102zM86 -130q0 35 22 57.5t56 22.5t56 -22.5t22 -58.5q0 -48 -44 -115l-58 -87h-46v18l35 107v4q-43 19 -43 74z" />
    <glyph glyph-name="Rcaron" unicode="&#x158;" horiz-adv-x="578" 
d="M90 118v424l-70 16v102h281q219 0 219 -199v-16q0 -121 -98 -163v-3q20 -13 35 -54l41 -109l60 -14v-102h-160l-87 233q-10 27 -35 27h-51v-142l65 -16v-102h-270v102zM280 548h-55v-190h66q49 0 71.5 19t22.5 64v10q0 53 -23.5 75t-81.5 22zM218 720l-96 115l9 25h69
l74 -62l75 62h69l9 -25l-97 -115h-112z" />
    <glyph glyph-name="rcaron" unicode="&#x159;" horiz-adv-x="373" 
d="M90 118v284l-65 16v102h145l36 -59h1q45 71 127 71l24 -2l-9 -120l-17 -9q-14 3 -31 3q-51 0 -76 -35v-251l85 -16v-102h-285v102zM135 580l-96 115l9 25h69l74 -62l75 62h69l9 -25l-97 -115h-112z" />
    <glyph glyph-name="Sacute" unicode="&#x15a;" horiz-adv-x="481" 
d="M53 8v177h102l16 -84q11 -1 33 -1q104 0 104 91q0 52 -63 75l-83 31q-60 22 -92 62t-32 111q0 202 235 202q28 0 60.5 -4t50.5 -7.5t23 -5.5v-180h-102l-16 84q-5 1 -13 1q-103 0 -103 -83q0 -51 54 -71l80 -30q69 -26 102.5 -68.5t33.5 -109.5q0 -102 -53.5 -156
t-174.5 -54q-82 0 -162 20zM408 860v-43l-115 -97h-76l-9 17l83 123h117z" />
    <glyph glyph-name="sacute" unicode="&#x15b;" horiz-adv-x="433" 
d="M286 365l-16 54q-17 1 -25 1q-85 0 -85 -52q0 -35 42 -44l66 -13q74 -15 108 -51.5t34 -97.5q0 -87 -50 -130.5t-164 -43.5q-39 0 -77 4.5t-57 9.5l-19 4v144h87l14 -48q21 -2 41 -2q52 0 72.5 14t20.5 43q0 39 -54 48l-71 13q-124 23 -125 137q-2 86 50.5 131.5
t166.5 45.5q71 0 123 -15v-152h-82zM372 720v-43l-115 -97h-76l-9 17l83 123h117z" />
    <glyph glyph-name="Scircumflex" unicode="&#x15c;" horiz-adv-x="481" 
d="M53 8v177h102l16 -84q11 -1 33 -1q104 0 104 91q0 52 -63 75l-83 31q-60 22 -92 62t-32 111q0 202 235 202q28 0 60.5 -4t50.5 -7.5t23 -5.5v-180h-102l-16 84q-5 1 -13 1q-103 0 -103 -83q0 -51 54 -71l80 -30q69 -26 102.5 -68.5t33.5 -109.5q0 -102 -53.5 -156
t-174.5 -54q-82 0 -162 20zM314 860l96 -115l-9 -25h-69l-74 62l-75 -62h-69l-9 25l97 115h112z" />
    <glyph glyph-name="scircumflex" unicode="&#x15d;" horiz-adv-x="433" 
d="M286 365l-16 54q-17 1 -25 1q-85 0 -85 -52q0 -35 42 -44l66 -13q74 -15 108 -51.5t34 -97.5q0 -87 -50 -130.5t-164 -43.5q-39 0 -77 4.5t-57 9.5l-19 4v144h87l14 -48q21 -2 41 -2q52 0 72.5 14t20.5 43q0 39 -54 48l-71 13q-124 23 -125 137q-2 86 50.5 131.5
t166.5 45.5q71 0 123 -15v-152h-82zM283 720l96 -115l-9 -25h-69l-74 62l-75 -62h-69l-9 25l97 115h112z" />
    <glyph glyph-name="Scedilla" unicode="&#x15e;" horiz-adv-x="481" 
d="M160 -203l7 56q30 -5 54 -5q46 0 46 27q0 21 -28 21h-55l13 92q-91 2 -144 20v177h102l16 -84q11 -1 33 -1q104 0 104 91q0 52 -63 75l-83 31q-60 22 -92 62t-32 111q0 202 235 202q28 0 60.5 -4t50.5 -7.5t23 -5.5v-180h-102l-16 84q-5 1 -13 1q-103 0 -103 -83
q0 -51 54 -71l80 -30q69 -26 102.5 -68.5t33.5 -109.5q0 -91 -42 -143.5t-136 -63.5l-1 -43h16q77 0 77 -73q0 -87 -111 -87q-20 0 -41.5 2t-32.5 4z" />
    <glyph glyph-name="scedilla" unicode="&#x15f;" horiz-adv-x="433" 
d="M141 -203l7 56q30 -5 54 -5q46 0 46 27q0 21 -28 21h-55l13 92q-35 1 -68.5 5.5t-49.5 8.5l-17 4v144h87l14 -48q21 -2 41 -2q52 0 72.5 14t20.5 43q0 39 -54 48l-71 13q-124 23 -125 137q-2 86 50.5 131.5t166.5 45.5q71 0 123 -15v-152h-82l-16 54q-17 1 -25 1
q-85 0 -85 -52q0 -35 42 -44l66 -13q74 -15 108 -51.5t34 -97.5q0 -77 -39 -119.5t-125 -51.5l-1 -43h16q77 0 77 -73q0 -87 -111 -87q-20 0 -41.5 2t-33.5 4z" />
    <glyph glyph-name="Scaron" unicode="&#x160;" horiz-adv-x="481" 
d="M53 8v177h102l16 -84q11 -1 33 -1q104 0 104 91q0 52 -63 75l-83 31q-60 22 -92 62t-32 111q0 202 235 202q28 0 60.5 -4t50.5 -7.5t23 -5.5v-180h-102l-16 84q-5 1 -13 1q-103 0 -103 -83q0 -51 54 -71l80 -30q69 -26 102.5 -68.5t33.5 -109.5q0 -102 -53.5 -156
t-174.5 -54q-82 0 -162 20zM199 720l-96 115l9 25h69l74 -62l75 62h69l9 -25l-97 -115h-112z" />
    <glyph glyph-name="scaron" unicode="&#x161;" horiz-adv-x="433" 
d="M286 365l-16 54q-17 1 -25 1q-85 0 -85 -52q0 -35 42 -44l66 -13q74 -15 108 -51.5t34 -97.5q0 -87 -50 -130.5t-164 -43.5q-39 0 -77 4.5t-57 9.5l-19 4v144h87l14 -48q21 -2 41 -2q52 0 72.5 14t20.5 43q0 39 -54 48l-71 13q-124 23 -125 137q-2 86 50.5 131.5
t166.5 45.5q71 0 123 -15v-152h-82zM168 580l-96 115l9 25h69l74 -62l75 62h69l9 -25l-97 -115h-112z" />
    <glyph glyph-name="Tcommaaccent" unicode="&#x162;" horiz-adv-x="491" 
d="M178 118v430h-60l-16 -75h-82v187h451v-187h-82l-16 75h-60v-430l85 -16v-102h-305v102zM173 -117q0 31 20 51.5t50 20.5q31 0 50.5 -20t19.5 -53q0 -44 -39 -103l-53 -79h-41v16l32 97v3q-39 17 -39 67z" />
    <glyph glyph-name="Tcommaaccent" unicode="&#x21a;" horiz-adv-x="491" 
d="M178 118v430h-60l-16 -75h-82v187h451v-187h-82l-16 75h-60v-430l85 -16v-102h-305v102zM173 -117q0 31 20 51.5t50 20.5q31 0 50.5 -20t19.5 -53q0 -44 -39 -103l-53 -79h-41v16l32 97v3q-39 17 -39 67z" />
    <glyph glyph-name="tcommaaccent" unicode="&#x163;" horiz-adv-x="357" 
d="M20 408v112h64l37 120h98v-120h118v-112h-118v-237q0 -38 12.5 -54.5t43.5 -16.5l51 5l11 -5v-97q-39 -15 -92 -15q-90 0 -125.5 45t-35.5 136v239h-64zM139 -130q0 35 22 57.5t56 22.5t56 -22.5t22 -58.5q0 -48 -44 -115l-58 -87h-46v18l35 107v4q-43 19 -43 74z" />
    <glyph glyph-name="tcommaaccent" unicode="&#x21b;" horiz-adv-x="357" 
d="M20 408v112h64l37 120h98v-120h118v-112h-118v-237q0 -38 12.5 -54.5t43.5 -16.5l51 5l11 -5v-97q-39 -15 -92 -15q-90 0 -125.5 45t-35.5 136v239h-64zM139 -130q0 35 22 57.5t56 22.5t56 -22.5t22 -58.5q0 -48 -44 -115l-58 -87h-46v18l35 107v4q-43 19 -43 74z" />
    <glyph glyph-name="Tcaron" unicode="&#x164;" horiz-adv-x="491" 
d="M178 118v430h-60l-16 -75h-82v187h451v-187h-82l-16 75h-60v-430l85 -16v-102h-305v102zM189 720l-96 115l9 25h69l74 -62l75 62h69l9 -25l-97 -115h-112z" />
    <glyph glyph-name="tcaron" unicode="&#x165;" horiz-adv-x="357" 
d="M20 408v112h64l37 120h98v-120h118v-112h-118v-237q0 -38 12.5 -54.5t43.5 -16.5l51 5l11 -5v-97q-39 -15 -92 -15q-90 0 -125.5 45t-35.5 136v239h-64zM251 758q0 35 22 57.5t56 22.5t56 -22.5t22 -58.5q0 -48 -44 -115l-58 -87h-46v18l35 107v4q-43 19 -43 74z" />
    <glyph glyph-name="Utilde" unicode="&#x168;" horiz-adv-x="620" 
d="M225 542v-332q0 -110 85 -110t85 110v332l-50 16v102h255v-102l-70 -16v-308q0 -246 -212 -246h-17q-211 0 -211 246v308l-70 16v102h255v-102zM432 868l61 -19q-31 -130 -116 -130q-30 0 -70.5 29.5t-56.5 29.5q-38 0 -60 -59l-61 19q29 130 121 130q31 0 72 -29.5
t55 -29.5q33 0 55 59z" />
    <glyph glyph-name="utilde" unicode="&#x169;" horiz-adv-x="568" 
d="M20 520h190v-345q0 -75 65 -75q47 0 85 42v260l-55 16v102h190v-369q0 -44 35 -49l13 -2v-85q-25 -27 -75 -27q-74 0 -98 71h-5q-54 -71 -140 -71q-71 0 -110.5 45t-39.5 132v237l-55 16v102zM410 730l61 -19q-31 -130 -116 -130q-30 0 -70.5 29.5t-56.5 29.5
q-38 0 -60 -59l-61 19q29 130 121 130q31 0 72 -29.5t55 -29.5q33 0 55 59z" />
    <glyph glyph-name="Umacron" unicode="&#x16a;" horiz-adv-x="620" 
d="M225 542v-332q0 -110 85 -110t85 110v332l-50 16v102h255v-102l-70 -16v-308q0 -246 -212 -246h-17q-211 0 -211 246v308l-70 16v102h255v-102zM187 742v83h245v-83h-245z" />
    <glyph glyph-name="umacron" unicode="&#x16b;" horiz-adv-x="568" 
d="M20 520h190v-345q0 -75 65 -75q47 0 85 42v260l-55 16v102h190v-369q0 -44 35 -49l13 -2v-85q-25 -27 -75 -27q-74 0 -98 71h-5q-54 -71 -140 -71q-71 0 -110.5 45t-39.5 132v237l-55 16v102zM164 599v83h245v-83h-245z" />
    <glyph glyph-name="Ubreve" unicode="&#x16c;" horiz-adv-x="620" 
d="M225 542v-332q0 -110 85 -110t85 110v332l-50 16v102h255v-102l-70 -16v-308q0 -246 -212 -246h-17q-211 0 -211 246v308l-70 16v102h255v-102zM370 856h82q0 -144 -146 -144q-145 0 -145 144h83q0 -24 15.5 -43t46.5 -19q32 0 48 19t16 43z" />
    <glyph glyph-name="ubreve" unicode="&#x16d;" horiz-adv-x="568" 
d="M20 520h190v-345q0 -75 65 -75q47 0 85 42v260l-55 16v102h190v-369q0 -44 35 -49l13 -2v-85q-25 -27 -75 -27q-74 0 -98 71h-5q-54 -71 -140 -71q-71 0 -110.5 45t-39.5 132v237l-55 16v102zM350 719h82q0 -144 -146 -144q-145 0 -145 144h83q0 -24 15.5 -43t46.5 -19
q32 0 48 19t16 43z" />
    <glyph glyph-name="Uring" unicode="&#x16e;" horiz-adv-x="620" 
d="M225 542v-332q0 -110 85 -110t85 110v332l-50 16v102h255v-102l-70 -16v-308q0 -246 -212 -246h-17q-211 0 -211 246v308l-70 16v102h255v-102zM190 807q0 45 32 74t86 29t85.5 -29t31.5 -74t-31.5 -74t-85.5 -29t-86 29t-32 74zM265 807q0 -18 12 -29.5t31 -11.5
t30.5 11.5t11.5 29.5t-11.5 29.5t-30.5 11.5t-31 -11.5t-12 -29.5z" />
    <glyph glyph-name="uring" unicode="&#x16f;" horiz-adv-x="568" 
d="M20 520h190v-345q0 -75 65 -75q47 0 85 42v260l-55 16v102h190v-369q0 -44 35 -49l13 -2v-85q-25 -27 -75 -27q-74 0 -98 71h-5q-54 -71 -140 -71q-71 0 -110.5 45t-39.5 132v237l-55 16v102zM168 667q0 45 32 74t86 29t85.5 -29t31.5 -74t-31.5 -74t-85.5 -29t-86 29
t-32 74zM243 667q0 -18 12 -29.5t31 -11.5t30.5 11.5t11.5 29.5t-11.5 29.5t-30.5 11.5t-31 -11.5t-12 -29.5z" />
    <glyph glyph-name="Uhungarumlaut" unicode="&#x170;" horiz-adv-x="620" 
d="M225 542v-332q0 -110 85 -110t85 110v332l-50 16v102h255v-102l-70 -16v-308q0 -246 -212 -246h-17q-211 0 -211 246v308l-70 16v102h255v-102zM508 860v-43l-105 -97h-46l-9 17l65 123h95zM344 860v-43l-105 -97h-46l-9 17l65 123h95z" />
    <glyph glyph-name="uhungarumlaut" unicode="&#x171;" horiz-adv-x="568" 
d="M20 520h190v-345q0 -75 65 -75q47 0 85 42v260l-55 16v102h190v-369q0 -44 35 -49l13 -2v-85q-25 -27 -75 -27q-74 0 -98 71h-5q-54 -71 -140 -71q-71 0 -110.5 45t-39.5 132v237l-55 16v102zM481 720v-43l-105 -97h-46l-9 17l65 123h95zM317 720v-43l-105 -97h-46l-9 17
l65 123h95z" />
    <glyph glyph-name="Uogonek" unicode="&#x172;" horiz-adv-x="620" 
d="M419 -141l8 -61q-27 -10 -68 -10q-108 0 -108 81q0 56 63 117v2h-13q-211 0 -211 246v308l-70 16v102h255v-102l-50 -16v-332q0 -110 85 -110t85 110v332l-50 16v102h255v-102l-70 -16v-308q0 -192 -131 -234q-58 -77 -58 -109q0 -36 43 -36z" />
    <glyph glyph-name="uogonek" unicode="&#x173;" horiz-adv-x="568" 
d="M541 -141l8 -61q-27 -10 -68 -10q-108 0 -108 81q0 60 66 121v2q-51 12 -69 67h-5q-54 -71 -140 -71q-71 0 -110.5 45t-39.5 132v237l-55 16v102h190v-345q0 -75 65 -75q47 0 85 42v260l-55 16v102h190v-369q0 -44 35 -49l13 -2v-85q-9 -9 -23 -15q-57 -75 -57 -109
q0 -36 43 -36z" />
    <glyph glyph-name="Wcircumflex" unicode="&#x174;" horiz-adv-x="862" 
d="M772 542l-96 -542h-164l-64 285l-13 95h-8q-9 -80 -13 -95l-64 -285h-164l-96 542l-70 16v102h260v-102l-55 -16l33 -190l23 -144h11q19 106 24 127l72 325h86l72 -325l24 -127h11l23 144l32 190l-54 16v102h260v-102zM488 860l96 -115l-9 -25h-69l-74 62l-75 -62h-69
l-9 25l97 115h112z" />
    <glyph glyph-name="wcircumflex" unicode="&#x175;" horiz-adv-x="792" 
d="M391 294l-8 -59l-53 -235h-172l-84 402l-54 16v102h226v-102l-40 -16l31 -152l14 -100h11l15 100l61 270h116l61 -270l15 -100h11l14 100l31 152l-40 16v102h226v-102l-54 -16l-84 -402h-172l-53 235l-8 59h-10zM453 720l96 -115l-9 -25h-69l-74 62l-75 -62h-69l-9 25
l97 115h112z" />
    <glyph glyph-name="Ycircumflex" unicode="&#x176;" horiz-adv-x="625" 
d="M245 118v94l-156 330l-69 16v102h255v-102l-43 -12l41 -88q7 -14 15.5 -42t13.5 -49l6 -21h9q20 80 35 112l41 88l-43 12v102h255v-102l-70 -16l-155 -330v-94l70 -16v-102h-275v102zM371 860l96 -115l-9 -25h-69l-74 62l-75 -62h-69l-9 25l97 115h112z" />
    <glyph glyph-name="ycircumflex" unicode="&#x177;" horiz-adv-x="578" 
d="M302 168q14 67 19 84l47 153l-41 13v102h231v-102l-56 -15l-147 -472q-23 -73 -60.5 -102t-106.5 -29h-84v100l14 12h53q24 0 36 7.5t20 34.5l15 46h-17l-144 403l-61 15v102h237v-102l-39 -13l53 -153l21 -84h10zM359 720l96 -115l-9 -25h-69l-74 62l-75 -62h-69l-9 25
l97 115h112z" />
    <glyph glyph-name="Ydieresis" unicode="&#x178;" horiz-adv-x="625" 
d="M245 118v94l-156 330l-69 16v102h255v-102l-43 -12l41 -88q7 -14 15.5 -42t13.5 -49l6 -21h9q20 80 35 112l41 88l-43 12v102h255v-102l-70 -16l-155 -330v-94l70 -16v-102h-275v102zM159 781q0 25 17.5 42.5t42.5 17.5t42 -17.5t17 -42.5q0 -26 -17 -43.5t-42 -17.5
q-26 0 -43 17.5t-17 43.5zM347 781q0 25 17.5 42.5t42.5 17.5t42 -17.5t17 -42.5q0 -26 -17 -43.5t-42 -17.5q-26 0 -43 17.5t-17 43.5z" />
    <glyph glyph-name="Zacute" unicode="&#x179;" horiz-adv-x="460" 
d="M47 475v185h383v-90l-224 -418l-25 -35v-5h131l16 73h102v-185h-400v89l225 418l25 37v4h-115l-16 -73h-102zM385 860v-43l-115 -97h-76l-9 17l83 123h117z" />
    <glyph glyph-name="zacute" unicode="&#x17a;" horiz-adv-x="428" 
d="M403 520v-109l-196 -267l-30 -32l2 -4l41 4h80l16 68h87v-180h-378v103l195 266l34 36l-2 5l-40 -2h-79l-16 -63h-87v175h373zM361 720v-43l-115 -97h-76l-9 17l83 123h117z" />
    <glyph glyph-name="Zdotaccent" unicode="&#x17b;" horiz-adv-x="460" 
d="M47 475v185h383v-90l-224 -418l-25 -35v-5h131l16 73h102v-185h-400v89l225 418l25 37v4h-115l-16 -73h-102zM188 787q0 28 18.5 46t45.5 18t45 -18t18 -46t-18 -46.5t-45 -18.5t-45.5 18.5t-18.5 46.5z" />
    <glyph glyph-name="zdotaccent" unicode="&#x17c;" horiz-adv-x="428" 
d="M403 520v-109l-196 -267l-30 -32l2 -4l41 4h80l16 68h87v-180h-378v103l195 266l34 36l-2 5l-40 -2h-79l-16 -63h-87v175h373zM158 647q0 28 18.5 46t45.5 18t45 -18t18 -46t-18 -46.5t-45 -18.5t-45.5 18.5t-18.5 46.5z" />
    <glyph glyph-name="Zcaron" unicode="&#x17d;" horiz-adv-x="460" 
d="M47 475v185h383v-90l-224 -418l-25 -35v-5h131l16 73h102v-185h-400v89l225 418l25 37v4h-115l-16 -73h-102zM195 720l-96 115l9 25h69l74 -62l75 62h69l9 -25l-97 -115h-112z" />
    <glyph glyph-name="zcaron" unicode="&#x17e;" horiz-adv-x="428" 
d="M403 520v-109l-196 -267l-30 -32l2 -4l41 4h80l16 68h87v-180h-378v103l195 266l34 36l-2 5l-40 -2h-79l-16 -63h-87v175h373zM167 580l-96 115l9 25h69l74 -62l75 62h69l9 -25l-97 -115h-112z" />
    <glyph glyph-name="florin" unicode="&#x192;" horiz-adv-x="369" 
d="M10 303v82h90l10 94q10 98 54 140.5t131 42.5q17 0 36.5 -2t30.5 -4l11 -1l-6 -104l-12 -6q-21 4 -38 4q-35 0 -51 -14.5t-20 -51.5l-11 -98h95v-82h-104l-32 -312q-10 -97 -53.5 -139t-130.5 -42q-17 0 -36.5 2t-30.5 4l-11 1l6 103l12 6q21 -4 38 -4q35 0 51 15t20 52
l33 314h-82z" />
    <glyph glyph-name="AEacute" unicode="&#x1fc;" horiz-adv-x="726" 
d="M346 0v188h-106l-17 -71l59 -15v-102h-262v102l69 16l112 424l-71 16v102h566v-185h-102l-16 73h-97v-168h150v-98h-150v-170h107l16 73h102v-185h-360zM292 407l-26 -107h80v248h-24q-12 -65 -30 -141zM574 860v-43l-115 -97h-76l-9 17l83 123h117z" />
    <glyph glyph-name="aeacute" unicode="&#x1fd;" horiz-adv-x="725" 
d="M690 223h-258v-6q0 -61 24 -89t89 -28q46 0 112 22l13 -6l2 -14q2 -14 4.5 -36.5t3.5 -41.5q-1 -2 -20 -10t-59.5 -17t-84.5 -9q-123 0 -177 79h-5q-59 -79 -159 -79q-66 0 -108 44t-42 107v16q0 69 41 108.5t112 43.5l119 7v18q0 46 -25 67t-91 21l-21 -1l-13 -59h-87
v150q71 22 142 22q117 0 170 -50h3q56 50 129 50h11q88 0 135.5 -53t47.5 -156v-17zM220 96q51 0 87 50q-10 42 -10 86l-73 -6q-64 -6 -64 -60v-9q0 -27 16.5 -44t43.5 -17zM432 338v-33h138v33q0 53 -14.5 74.5t-46.5 21.5h-2q-31 0 -53 -23.5t-22 -72.5zM530 720v-43
l-115 -97h-76l-9 17l83 123h117z" />
    <glyph glyph-name="Oslashacute" unicode="&#x1fe;" horiz-adv-x="526" 
d="M257 672h12q74 0 121 -35l37 69l65 -35l-51 -94q42 -78 42 -227v-41q0 -163 -50.5 -242t-163.5 -79h-12q-68 0 -114 29l-34 -63l-65 35l45 84q-46 78 -46 236v41q0 163 50.5 242.5t163.5 79.5zM201 283l125 234q-19 43 -63 43q-45 0 -64 -44t-19 -148v-77q0 -34 1 -48h4z
M346 291v77q0 21 -1 31h-3l-18 -42l-120 -225q19 -32 59 -32q45 0 64 43.5t19 147.5zM417 860v-43l-115 -97h-76l-9 17l83 123h117z" />
    <glyph glyph-name="oslashacute" unicode="&#x1ff;" horiz-adv-x="474" 
d="M230 532h14q54 0 97 -23l32 55l64 -38l-40 -68q50 -66 50 -177v-42q0 -118 -54.5 -184.5t-148.5 -66.5h-14q-51 0 -95 22l-33 -57l-63 38l39 67q-51 66 -51 181v42q0 118 54.5 184.5t148.5 66.5zM177 228l106 182q-19 14 -46 14q-37 0 -58.5 -26t-21.5 -75v-130h4z
M317 198v126h-4l-19 -42l-102 -175q18 -11 45 -11q37 0 58.5 26t21.5 76zM376 720v-43l-115 -97h-76l-9 17l83 123h117z" />
    <glyph glyph-name="Adblgrave" unicode="&#x200;" horiz-adv-x="650" 
d="M90 118l109 424l-69 16v102h291l139 -542l70 -16v-102h-265v102l58 15l-17 71h-164l-16 -71l59 -15v-102h-265v102zM293 400l-24 -100h109l-24 100l-21 125h-17q-14 -85 -23 -125zM116 816v43h95l65 -123l-9 -17h-46zM283 816v43h95l65 -123l-9 -17h-46z" />
    <glyph glyph-name="adblgrave" unicode="&#x201;" horiz-adv-x="505" 
d="M405 -12q-74 0 -98 71h-4q-50 -71 -135 -71q-65 0 -104 43.5t-39 107.5v16q0 137 141 155l131 17v5q0 46 -25 67t-91 21l-21 -1l-13 -59h-87v150q71 22 142 22q124 0 177 -48t53 -152v-181q0 -24 8 -35t27 -14l13 -2v-85q-25 -27 -75 -27zM220 96q41 0 77 44v110l-77 -16
q-60 -12 -60 -65v-12q0 -27 16.5 -44t43.5 -17zM40 677v43h95l65 -123l-9 -17h-46zM207 677v43h95l65 -123l-9 -17h-46z" />
    <glyph glyph-name="Ainvertedbreve" unicode="&#x202;" horiz-adv-x="650" 
d="M90 118l109 424l-69 16v102h291l139 -542l70 -16v-102h-265v102l58 15l-17 71h-164l-16 -71l59 -15v-102h-265v102zM293 400l-24 -100h109l-24 100l-21 125h-17q-14 -85 -23 -125zM263 717h-83q0 144 147 144q144 0 144 -144h-82q0 24 -16 42.5t-46 18.5q-32 0 -48 -18.5
t-16 -42.5z" />
    <glyph glyph-name="ainvertedbreve" unicode="&#x203;" horiz-adv-x="505" 
d="M405 -12q-74 0 -98 71h-4q-50 -71 -135 -71q-65 0 -104 43.5t-39 107.5v16q0 137 141 155l131 17v5q0 46 -25 67t-91 21l-21 -1l-13 -59h-87v150q71 22 142 22q124 0 177 -48t53 -152v-181q0 -24 8 -35t27 -14l13 -2v-85q-25 -27 -75 -27zM220 96q41 0 77 44v110l-77 -16
q-60 -12 -60 -65v-12q0 -27 16.5 -44t43.5 -17zM167 580h-83q0 144 147 144q144 0 144 -144h-82q0 24 -16 42.5t-46 18.5q-32 0 -48 -18.5t-16 -42.5z" />
    <glyph glyph-name="Edblgrave" unicode="&#x204;" horiz-adv-x="470" 
d="M322 548h-97v-168h150v-98h-150v-170h107l16 73h102v-185h-430v102l70 16v424l-70 16v102h420v-185h-102zM56 816v43h95l65 -123l-9 -17h-46zM223 816v43h95l65 -123l-9 -17h-46z" />
    <glyph glyph-name="edblgrave" unicode="&#x205;" horiz-adv-x="455" 
d="M419 220h-257q0 -63 23.5 -91.5t89.5 -28.5q46 0 112 22l13 -6l2 -14q2 -14 4.5 -36.5t3.5 -41.5q-1 -2 -20 -10t-59.5 -17t-84.5 -9q-219 0 -219 257v35q0 117 57 184.5t150 67.5h11q88 0 135.5 -53t47.5 -156v-17q0 -15 -2 -36.5t-4 -35.5zM162 338v-36h138v36
q0 53 -14.5 74.5t-46.5 21.5h-2q-31 0 -53 -23.5t-22 -72.5zM42 677v43h95l65 -123l-9 -17h-46zM209 677v43h95l65 -123l-9 -17h-46z" />
    <glyph glyph-name="Einvertedbreve" unicode="&#x206;" horiz-adv-x="470" 
d="M322 548h-97v-168h150v-98h-150v-170h107l16 73h102v-185h-430v102l70 16v424l-70 16v102h420v-185h-102zM190 715h-83q0 144 147 144q144 0 144 -144h-82q0 24 -16 42.5t-46 18.5q-32 0 -48 -18.5t-16 -42.5z" />
    <glyph glyph-name="einvertedbreve" unicode="&#x207;" horiz-adv-x="455" 
d="M419 220h-257q0 -63 23.5 -91.5t89.5 -28.5q46 0 112 22l13 -6l2 -14q2 -14 4.5 -36.5t3.5 -41.5q-1 -2 -20 -10t-59.5 -17t-84.5 -9q-219 0 -219 257v35q0 117 57 184.5t150 67.5h11q88 0 135.5 -53t47.5 -156v-17q0 -15 -2 -36.5t-4 -35.5zM162 338v-36h138v36
q0 53 -14.5 74.5t-46.5 21.5h-2q-31 0 -53 -23.5t-22 -72.5zM172 580h-83q0 144 147 144q144 0 144 -144h-82q0 24 -16 42.5t-46 18.5q-32 0 -48 -18.5t-16 -42.5z" />
    <glyph glyph-name="Idblgrave" unicode="&#x208;" horiz-adv-x="315" 
d="M225 542v-424l70 -16v-102h-275v102l70 16v424l-70 16v102h275v-102zM-58 816v43h95l65 -123l-9 -17h-46zM109 816v43h95l65 -123l-9 -17h-46z" />
    <glyph glyph-name="idblgrave" unicode="&#x209;" horiz-adv-x="320" 
d="M95 118v284l-65 16v102h200v-402l70 -16v-102h-275v102zM-70 677v43h95l65 -123l-9 -17h-46zM97 677v43h95l65 -123l-9 -17h-46z" />
    <glyph glyph-name="Iinvertedbreve" unicode="&#x20a;" horiz-adv-x="315" 
d="M225 542v-424l70 -16v-102h-275v102l70 16v424l-70 16v102h275v-102zM95 719h-83q0 144 147 144q144 0 144 -144h-82q0 24 -16 42.5t-46 18.5q-32 0 -48 -18.5t-16 -42.5z" />
    <glyph glyph-name="iinvertedbreve" unicode="&#x20b;" horiz-adv-x="320" 
d="M97 580h-83q0 144 147 144q144 0 144 -144h-82q0 24 -16 42.5t-46 18.5q-32 0 -48 -18.5t-16 -42.5zM95 118v284l-65 16v102h200v-402l70 -16v-102h-275v102z" />
    <glyph glyph-name="Odblgrave" unicode="&#x20c;" horiz-adv-x="526" 
d="M257 672h12q113 0 163.5 -79.5t50.5 -242.5v-41q0 -163 -50.5 -242t-163.5 -79h-12q-113 0 -163.5 79t-50.5 242v41q0 163 50.5 242.5t163.5 79.5zM346 291v77q0 104 -19 148t-64 44t-64 -44t-19 -148v-77q0 -104 19 -147.5t64 -43.5t64 43.5t19 147.5zM52 816v43h95
l65 -123l-9 -17h-46zM219 816v43h95l65 -123l-9 -17h-46z" />
    <glyph glyph-name="odblgrave" unicode="&#x20d;" horiz-adv-x="474" 
d="M230 532h14q94 0 148.5 -66.5t54.5 -184.5v-42q0 -118 -54.5 -184.5t-148.5 -66.5h-14q-94 0 -148.5 66.5t-54.5 184.5v42q0 118 54.5 184.5t148.5 66.5zM312 198v125q0 101 -75 101t-75 -101v-125q0 -102 75 -102t75 102zM39 677v43h95l65 -123l-9 -17h-46zM206 677v43
h95l65 -123l-9 -17h-46z" />
    <glyph glyph-name="Oinvertedbreve" unicode="&#x20e;" horiz-adv-x="526" 
d="M257 672h12q113 0 163.5 -79.5t50.5 -242.5v-41q0 -163 -50.5 -242t-163.5 -79h-12q-113 0 -163.5 79t-50.5 242v41q0 163 50.5 242.5t163.5 79.5zM346 291v77q0 104 -19 148t-64 44t-64 -44t-19 -148v-77q0 -104 19 -147.5t64 -43.5t64 43.5t19 147.5zM202 719h-83
q0 144 147 144q144 0 144 -144h-82q0 24 -16 42.5t-46 18.5q-32 0 -48 -18.5t-16 -42.5z" />
    <glyph glyph-name="oinvertedbreve" unicode="&#x20f;" horiz-adv-x="474" 
d="M230 532h14q94 0 148.5 -66.5t54.5 -184.5v-42q0 -118 -54.5 -184.5t-148.5 -66.5h-14q-94 0 -148.5 66.5t-54.5 184.5v42q0 118 54.5 184.5t148.5 66.5zM312 198v125q0 101 -75 101t-75 -101v-125q0 -102 75 -102t75 102zM174 580h-83q0 144 147 144q144 0 144 -144h-82
q0 24 -16 42.5t-46 18.5q-32 0 -48 -18.5t-16 -42.5z" />
    <glyph glyph-name="Rdblgrave" unicode="&#x210;" horiz-adv-x="578" 
d="M90 118v424l-70 16v102h281q219 0 219 -199v-16q0 -121 -98 -163v-3q20 -13 35 -54l41 -109l60 -14v-102h-160l-87 233q-10 27 -35 27h-51v-142l65 -16v-102h-270v102zM280 548h-55v-190h66q49 0 71.5 19t22.5 64v10q0 53 -23.5 75t-81.5 22zM65 816v43h95l65 -123
l-9 -17h-46zM232 816v43h95l65 -123l-9 -17h-46z" />
    <glyph glyph-name="rdblgrave" unicode="&#x211;" horiz-adv-x="373" 
d="M90 118v284l-65 16v102h145l36 -59h1q45 71 127 71l24 -2l-9 -120l-17 -9q-14 3 -31 3q-51 0 -76 -35v-251l85 -16v-102h-285v102zM25 677v43h95l65 -123l-9 -17h-46zM192 677v43h95l65 -123l-9 -17h-46z" />
    <glyph glyph-name="Rinvertedbreve" unicode="&#x212;" horiz-adv-x="578" 
d="M90 118v424l-70 16v102h281q219 0 219 -199v-16q0 -121 -98 -163v-3q20 -13 35 -54l41 -109l60 -14v-102h-160l-87 233q-10 27 -35 27h-51v-142l65 -16v-102h-270v102zM280 548h-55v-190h66q49 0 71.5 19t22.5 64v10q0 53 -23.5 75t-81.5 22zM211 719h-83q0 144 147 144
q144 0 144 -144h-82q0 24 -16 42.5t-46 18.5q-32 0 -48 -18.5t-16 -42.5z" />
    <glyph glyph-name="rinvertedbreve" unicode="&#x213;" horiz-adv-x="373" 
d="M90 118v284l-65 16v102h145l36 -59h1q45 71 127 71l24 -2l-9 -120l-17 -9q-14 3 -31 3q-51 0 -76 -35v-251l85 -16v-102h-285v102zM128 580h-83q0 144 147 144q144 0 144 -144h-82q0 24 -16 42.5t-46 18.5q-32 0 -48 -18.5t-16 -42.5z" />
    <glyph glyph-name="Udblgrave" unicode="&#x214;" horiz-adv-x="620" 
d="M225 542v-332q0 -110 85 -110t85 110v332l-50 16v102h255v-102l-70 -16v-308q0 -246 -212 -246h-17q-211 0 -211 246v308l-70 16v102h255v-102zM98 817v43h95l65 -123l-9 -17h-46zM265 817v43h95l65 -123l-9 -17h-46z" />
    <glyph glyph-name="udblgrave" unicode="&#x215;" horiz-adv-x="568" 
d="M20 520h190v-345q0 -75 65 -75q47 0 85 42v260l-55 16v102h190v-369q0 -44 35 -49l13 -2v-85q-25 -27 -75 -27q-74 0 -98 71h-5q-54 -71 -140 -71q-71 0 -110.5 45t-39.5 132v237l-55 16v102zM90 677v43h95l65 -123l-9 -17h-46zM257 677v43h95l65 -123l-9 -17h-46z" />
    <glyph glyph-name="Uinvertedbreve" unicode="&#x216;" horiz-adv-x="620" 
d="M225 542v-332q0 -110 85 -110t85 110v332l-50 16v102h255v-102l-70 -16v-308q0 -246 -212 -246h-17q-211 0 -211 246v308l-70 16v102h255v-102zM246 719h-83q0 144 147 144q144 0 144 -144h-82q0 24 -16 42.5t-46 18.5q-32 0 -48 -18.5t-16 -42.5z" />
    <glyph glyph-name="uinvertedbreve" unicode="&#x217;" horiz-adv-x="568" 
d="M20 520h190v-345q0 -75 65 -75q47 0 85 42v260l-55 16v102h190v-369q0 -44 35 -49l13 -2v-85q-25 -27 -75 -27q-74 0 -98 71h-5q-54 -71 -140 -71q-71 0 -110.5 45t-39.5 132v237l-55 16v102zM223 580h-83q0 144 147 144q144 0 144 -144h-82q0 24 -16 42.5t-46 18.5
q-32 0 -48 -18.5t-16 -42.5z" />
    <glyph glyph-name="Scommaaccent" unicode="&#x218;" horiz-adv-x="481" 
d="M53 8v177h102l16 -84q11 -1 33 -1q104 0 104 91q0 52 -63 75l-83 31q-60 22 -92 62t-32 111q0 202 235 202q28 0 60.5 -4t50.5 -7.5t23 -5.5v-180h-102l-16 84q-5 1 -13 1q-103 0 -103 -83q0 -51 54 -71l80 -30q69 -26 102.5 -68.5t33.5 -109.5q0 -102 -53.5 -156
t-174.5 -54q-82 0 -162 20zM180 -117q0 31 20 51.5t50 20.5q31 0 50.5 -20t19.5 -53q0 -44 -39 -103l-53 -79h-41v16l32 97v3q-39 17 -39 67z" />
    <glyph glyph-name="scommaaccent" unicode="&#x219;" horiz-adv-x="433" 
d="M286 365l-16 54q-17 1 -25 1q-85 0 -85 -52q0 -35 42 -44l66 -13q74 -15 108 -51.5t34 -97.5q0 -87 -50 -130.5t-164 -43.5q-39 0 -77 4.5t-57 9.5l-19 4v144h87l14 -48q21 -2 41 -2q52 0 72.5 14t20.5 43q0 39 -54 48l-71 13q-124 23 -125 137q-2 86 50.5 131.5
t166.5 45.5q71 0 123 -15v-152h-82zM149 -130q0 35 22 57.5t56 22.5t56 -22.5t22 -58.5q0 -48 -44 -115l-58 -87h-46v18l35 107v4q-43 19 -43 74z" />
    <glyph glyph-name="circumflex" unicode="&#x2c6;" horiz-adv-x="833" 
d="M456 720l96 -115l-9 -25h-69l-74 62l-75 -62h-69l-9 25l97 115h112z" />
    <glyph glyph-name="caron" unicode="&#x2c7;" horiz-adv-x="833" 
d="M343 580l-96 115l9 25h69l74 -62l75 62h69l9 -25l-97 -115h-112z" />
    <glyph glyph-name="breve" unicode="&#x2d8;" horiz-adv-x="406" 
d="M266 719h82q0 -144 -146 -144q-145 0 -145 144h83q0 -24 15.5 -43t46.5 -19q32 0 48 19t16 43z" />
    <glyph glyph-name="dotaccent" unicode="&#x2d9;" horiz-adv-x="230" 
d="M51 654q0 28 18.5 46t45.5 18t45 -18t18 -46t-18 -46.5t-45 -18.5t-45.5 18.5t-18.5 46.5z" />
    <glyph glyph-name="ring" unicode="&#x2da;" horiz-adv-x="270" 
d="M17 667q0 45 32 74t86 29t85.5 -29t31.5 -74t-31.5 -74t-85.5 -29t-86 29t-32 74zM92 667q0 -18 12 -29.5t31 -11.5t30.5 11.5t11.5 29.5t-11.5 29.5t-30.5 11.5t-31 -11.5t-12 -29.5z" />
    <glyph glyph-name="ogonek" unicode="&#x2db;" horiz-adv-x="306" 
d="M215 -141l8 -61q-27 -10 -68 -10q-108 0 -108 81q0 64 78 131h70q-58 -77 -58 -109q0 -36 43 -36z" />
    <glyph glyph-name="tilde" unicode="&#x2dc;" horiz-adv-x="476" 
d="M359 734l61 -19q-31 -130 -116 -130q-30 0 -70.5 29.5t-56.5 29.5q-38 0 -60 -59l-61 19q29 130 121 130q31 0 72 -29.5t55 -29.5q33 0 55 59z" />
    <glyph glyph-name="hungarumlaut" unicode="&#x2dd;" horiz-adv-x="470" 
d="M435 720v-43l-105 -97h-46l-9 17l65 123h95zM271 720v-43l-105 -97h-46l-9 17l65 123h95z" />
    <glyph glyph-name="invertedbreve" unicode="&#x311;" horiz-adv-x="406" 
d="M140 580h-83q0 144 147 144q144 0 144 -144h-82q0 24 -16 42.5t-46 18.5q-32 0 -48 -18.5t-16 -42.5z" />
    <glyph glyph-name="pi" unicode="&#x3c0;" horiz-adv-x="660" 
d="M125 118v290h-100v112h610v-112h-100v-252q0 -56 45 -56l29 3l14 -13v-85q-39 -17 -91 -17q-70 0 -101 38t-31 116v266h-140v-290l65 -16v-102h-270v102z" />
    <glyph glyph-name="bahtthai" unicode="&#xe3f;" horiz-adv-x="527" 
d="M65 0v650h140v90h98v-92q162 -16 162 -171v-8q0 -52 -16.5 -85t-59.5 -48v-4q96 -27 96 -151v-8q0 -73 -40 -123t-128 -50h-14v-100h-98v100h-140zM273 277h-73v-171h86q64 0 64 73v25q0 73 -77 73zM251 544h-51v-169h73q57 0 57 69v19q0 81 -79 81z" />
    <glyph glyph-name="Wgrave" unicode="&#x1e80;" horiz-adv-x="862" 
d="M772 542l-96 -542h-164l-64 285l-13 95h-8q-9 -80 -13 -95l-64 -285h-164l-96 542l-70 16v102h260v-102l-55 -16l33 -190l23 -144h11q19 106 24 127l72 325h86l72 -325l24 -127h11l23 144l32 190l-54 16v102h260v-102zM292 817v43h117l83 -123l-9 -17h-76z" />
    <glyph glyph-name="wgrave" unicode="&#x1e81;" horiz-adv-x="792" 
d="M391 294l-8 -59l-53 -235h-172l-84 402l-54 16v102h226v-102l-40 -16l31 -152l14 -100h11l15 100l61 270h116l61 -270l15 -100h11l14 100l31 152l-40 16v102h226v-102l-54 -16l-84 -402h-172l-53 235l-8 59h-10zM252 677v43h117l83 -123l-9 -17h-76z" />
    <glyph glyph-name="Wacute" unicode="&#x1e82;" horiz-adv-x="862" 
d="M772 542l-96 -542h-164l-64 285l-13 95h-8q-9 -80 -13 -95l-64 -285h-164l-96 542l-70 16v102h260v-102l-55 -16l33 -190l23 -144h11q19 106 24 127l72 325h86l72 -325l24 -127h11l23 144l32 190l-54 16v102h260v-102zM573 860v-43l-115 -97h-76l-9 17l83 123h117z" />
    <glyph glyph-name="wacute" unicode="&#x1e83;" horiz-adv-x="792" 
d="M391 294l-8 -59l-53 -235h-172l-84 402l-54 16v102h226v-102l-40 -16l31 -152l14 -100h11l15 100l61 270h116l61 -270l15 -100h11l14 100l31 152l-40 16v102h226v-102l-54 -16l-84 -402h-172l-53 235l-8 59h-10zM538 720v-43l-115 -97h-76l-9 17l83 123h117z" />
    <glyph glyph-name="Wdieresis" unicode="&#x1e84;" horiz-adv-x="862" 
d="M772 542l-96 -542h-164l-64 285l-13 95h-8q-9 -80 -13 -95l-64 -285h-164l-96 542l-70 16v102h260v-102l-55 -16l33 -190l23 -144h11q19 106 24 127l72 325h86l72 -325l24 -127h11l23 144l32 190l-54 16v102h260v-102zM277 783q0 25 17.5 42.5t42.5 17.5t42 -17.5
t17 -42.5q0 -26 -17 -43.5t-42 -17.5q-26 0 -43 17.5t-17 43.5zM465 783q0 25 17.5 42.5t42.5 17.5t42 -17.5t17 -42.5q0 -26 -17 -43.5t-42 -17.5q-26 0 -43 17.5t-17 43.5z" />
    <glyph glyph-name="wdieresis" unicode="&#x1e85;" horiz-adv-x="792" 
d="M391 294l-8 -59l-53 -235h-172l-84 402l-54 16v102h226v-102l-40 -16l31 -152l14 -100h11l15 100l61 270h116l61 -270l15 -100h11l14 100l31 152l-40 16v102h226v-102l-54 -16l-84 -402h-172l-53 235l-8 59h-10zM242 644q0 26 17 43t43 17q25 0 42 -17.5t17 -42.5
q0 -26 -17 -43.5t-42 -17.5q-26 0 -43 17.5t-17 43.5zM430 644q0 26 17 43t43 17q25 0 42 -17.5t17 -42.5q0 -26 -17 -43.5t-42 -17.5q-26 0 -43 17.5t-17 43.5z" />
    <glyph glyph-name="Ygrave" unicode="&#x1ef2;" horiz-adv-x="625" 
d="M245 118v94l-156 330l-69 16v102h255v-102l-43 -12l41 -88q7 -14 15.5 -42t13.5 -49l6 -21h9q20 80 35 112l41 88l-43 12v102h255v-102l-70 -16l-155 -330v-94l70 -16v-102h-275v102zM164 817v43h117l83 -123l-9 -17h-76z" />
    <glyph glyph-name="ygrave" unicode="&#x1ef3;" horiz-adv-x="578" 
d="M302 168q14 67 19 84l47 153l-41 13v102h231v-102l-56 -15l-147 -472q-23 -73 -60.5 -102t-106.5 -29h-84v100l14 12h53q24 0 36 7.5t20 34.5l15 46h-17l-144 403l-61 15v102h237v-102l-39 -13l53 -153l21 -84h10zM146 677v43h117l83 -123l-9 -17h-76z" />
    <glyph glyph-name="endash" unicode="&#x2013;" 
d="M450 250h-400v97h400v-97z" />
    <glyph glyph-name="emdash" unicode="&#x2014;" horiz-adv-x="740" 
d="M695 250h-650v97h650v-97z" />
    <glyph glyph-name="quoteleft" unicode="&#x2018;" horiz-adv-x="240" 
d="M198 497q0 -35 -22 -57.5t-56 -22.5t-56 22.5t-22 58.5q0 48 44 115l58 87h46v-18l-35 -107v-4q43 -19 43 -74z" />
    <glyph glyph-name="quoteright" unicode="&#x2019;" horiz-adv-x="240" 
d="M42 620q0 35 22 57.5t56 22.5t56 -22.5t22 -58.5q0 -48 -44 -115l-58 -87h-46v18l35 107v4q-43 19 -43 74z" />
    <glyph glyph-name="quotesinglbase" unicode="&#x201a;" horiz-adv-x="240" 
d="M42 70q0 35 22 57.5t56 22.5t56 -22.5t22 -58.5q0 -48 -44 -115l-58 -87h-46v18l35 107v4q-43 19 -43 74z" />
    <glyph glyph-name="quotedblleft" unicode="&#x201c;" horiz-adv-x="435" 
d="M393 497q0 -35 -22 -57.5t-56 -22.5t-56 22.5t-22 58.5q0 48 44 115l58 87h46v-18l-35 -107v-4q43 -19 43 -74zM198 497q0 -35 -22 -57.5t-56 -22.5t-56 22.5t-22 58.5q0 48 44 115l58 87h46v-18l-35 -107v-4q43 -19 43 -74z" />
    <glyph glyph-name="quotedblright" unicode="&#x201d;" horiz-adv-x="435" 
d="M42 620q0 35 22 57.5t56 22.5t56 -22.5t22 -58.5q0 -48 -44 -115l-58 -87h-46v18l35 107v4q-43 19 -43 74zM237 620q0 35 22 57.5t56 22.5t56 -22.5t22 -58.5q0 -48 -44 -115l-58 -87h-46v18l35 107v4q-43 19 -43 74z" />
    <glyph glyph-name="quotedblbase" unicode="&#x201e;" horiz-adv-x="435" 
d="M42 70q0 35 22 57.5t56 22.5t56 -22.5t22 -58.5q0 -48 -44 -115l-58 -87h-46v18l35 107v4q-43 19 -43 74zM237 70q0 35 22 57.5t56 22.5t56 -22.5t22 -58.5q0 -48 -44 -115l-58 -87h-46v18l35 107v4q-43 19 -43 74z" />
    <glyph glyph-name="dagger" unicode="&#x2020;" horiz-adv-x="522" 
d="M471 435v-40q0 -21 -7 -29.5t-27 -8.5h-51l-92 25l17 -85v-95l-17 -252h-67l-16 252v95l17 85l-92 -25h-52q-19 0 -26 9t-7 29v40q0 21 6.5 29t26.5 8h52l92 -24l-25 119v60q0 18 8.5 25.5t27.5 7.5h43q21 0 28.5 -7t7.5 -26v-60l-24 -119l92 24h51q19 0 26.5 -8.5
t7.5 -28.5z" />
    <glyph glyph-name="daggerdbl" unicode="&#x2021;" horiz-adv-x="522" 
d="M211 317l17 75l-102 -25h-37q-23 0 -30.5 8.5t-7.5 29.5v40q0 22 7 29.5t31 7.5h37l102 -24l-25 117v47q0 22 8 30t28 8h43q21 0 28.5 -8t7.5 -30v-47l-24 -117l101 24h37q23 0 31 -8.5t8 -28.5v-40q0 -23 -7.5 -30.5t-31.5 -7.5h-37l-101 25l17 -75v-25l-17 -74l101 24
h37q23 0 31 -8.5t8 -28.5v-40q0 -23 -7.5 -30.5t-31.5 -7.5h-37l-101 25l24 -117v-48q0 -20 -8 -28.5t-28 -8.5h-43q-21 0 -28.5 8.5t-7.5 28.5v48l25 117l-102 -25h-37q-23 0 -30.5 8.5t-7.5 29.5v40q0 22 7 29.5t31 7.5h37l102 -24l-17 74v25z" />
    <glyph glyph-name="bullet" unicode="&#x2022;" horiz-adv-x="350" 
d="M62 330q0 50 32.5 82.5t80.5 32.5t80.5 -32.5t32.5 -82.5t-32.5 -82.5t-80.5 -32.5t-80.5 32.5t-32.5 82.5z" />
    <glyph glyph-name="ellipsis" unicode="&#x2026;" horiz-adv-x="740" 
d="M70 70q0 35 22 57.5t56 22.5t56 -22.5t22 -57.5t-22 -57.5t-56 -22.5t-56 22.5t-22 57.5zM292 70q0 35 22 57.5t56 22.5t56 -22.5t22 -57.5t-22 -57.5t-56 -22.5t-56 22.5t-22 57.5zM514 70q0 35 22 57.5t56 22.5t56 -22.5t22 -57.5t-22 -57.5t-56 -22.5t-56 22.5
t-22 57.5z" />
    <glyph glyph-name="perthousand" unicode="&#x2030;" horiz-adv-x="1094" 
d="M174 650h18q52 0 90 -38t38 -113v-41q0 -74 -38 -112t-90 -38h-18q-52 0 -90.5 38t-38.5 112v41q0 75 38.5 113t90.5 38zM223 449v60q0 66 -40 66t-40 -66v-60q0 -66 40 -66t40 66zM139 -12l404 671h100l-404 -671h-100zM583 330h18q52 0 90 -38t38 -113v-41
q0 -74 -38 -112t-90 -38h-18q-52 0 -90.5 38t-38.5 112v41q0 75 38.5 113t90.5 38zM632 129v60q0 66 -40 66t-40 -66v-60q0 -66 40 -66t40 66zM903 330h18q52 0 90 -38t38 -113v-41q0 -74 -38 -112t-90 -38h-18q-52 0 -90.5 38t-38.5 112v41q0 75 38.5 113t90.5 38zM952 129
v60q0 66 -40 66t-40 -66v-60q0 -66 40 -66t40 66z" />
    <glyph glyph-name="guilsinglleft" unicode="&#x2039;" horiz-adv-x="281" 
d="M144 0l-110 220l110 220h93l-78 -220l78 -220h-93z" />
    <glyph glyph-name="guilsinglright" unicode="&#x203a;" horiz-adv-x="281" 
d="M247 220l-110 -220h-93l78 220l-78 220h93z" />
    <glyph glyph-name="fraction" unicode="&#x2044;" horiz-adv-x="512" 
d="M0 -12l412 684h100l-412 -684h-100z" />
    <glyph glyph-name="zerosuperior" unicode="&#x2070;" horiz-adv-x="356" 
d="M174 824h8q66 0 105 -44.5t39 -135.5v-50q0 -91 -39 -135.5t-105 -44.5h-8q-66 0 -105 44.5t-39 135.5v50q0 91 39 135.5t105 44.5zM228 576v86q0 80 -50 80t-50 -80v-86q0 -80 50 -80t50 80z" />
    <glyph glyph-name="foursuperior" unicode="&#x2074;" horiz-adv-x="326" 
d="M15 569l97 247h96l-97 -249h62l29 103h61v-103h48v-82h-48v-65h-98v65h-150v84z" />
    <glyph glyph-name="fivesuperior" unicode="&#x2075;" horiz-adv-x="299" 
d="M274 563v-17q0 -132 -133 -132q-27 0 -54.5 5.5t-42 10.5t-14.5 6l6 70l8 4q46 -14 75 -14q30 0 43.5 13.5t13.5 43.5v3q0 52 -46 52q-12 0 -24.5 -4t-18.5 -8l-6 -4l-49 12l12 214h206v-82h-114l-3 -70h1q25 9 42 9q48 0 73 -29.5t25 -82.5z" />
    <glyph glyph-name="sixsuperior" unicode="&#x2076;" horiz-adv-x="350" 
d="M217 742q-45 0 -66 -20.5t-23 -66.5q35 26 83 26q50 0 79.5 -31.5t29.5 -82.5v-19q0 -60 -38.5 -97t-106.5 -37q-67 0 -106 43.5t-39 128.5v39q0 100 47 149.5t131 49.5q19 0 39.5 -3t32.5 -6l11 -3l-8 -75l-7 -4q-30 9 -59 9zM177 598q-29 0 -49 -13v-19q0 -70 47 -70
t47 54v3q0 45 -45 45z" />
    <glyph glyph-name="sevensuperior" unicode="&#x2077;" horiz-adv-x="285" 
d="M15 734v82h255v-81l-132 -315h-105l130 302v12h-148z" />
    <glyph glyph-name="eightsuperior" unicode="&#x2078;" horiz-adv-x="362" 
d="M32 519q0 69 53 97v4q-46 32 -46 88q0 55 38 85.5t104 30.5q68 0 104.5 -29t36.5 -79q0 -58 -51 -82v-4q59 -34 59 -98q0 -118 -149 -118q-67 0 -108 26t-41 79zM185 575l-20 7q-35 -20 -35 -52q0 -41 51 -41t51 41q0 16 -10 26t-37 19zM132 712q0 -14 9 -23t34 -18
l22 -8q32 25 32 49q0 37 -48 37q-49 0 -49 -37z" />
    <glyph glyph-name="ninesuperior" unicode="&#x2079;" horiz-adv-x="350" 
d="M132 496q48 0 68.5 20.5t20.5 67.5q-33 -26 -83 -26q-53 0 -80.5 29t-27.5 82v17q0 64 38 101t107 37t107 -42.5t38 -128.5v-40q0 -100 -47 -149.5t-131 -49.5q-19 0 -40 3t-32 5l-11 3l7 75l7 4q35 -8 59 -8zM172 640q29 0 50 14v18q0 70 -47 70t-47 -53q0 -49 44 -49z
" />
    <glyph glyph-name="parenleftsuperior" unicode="&#x207d;" horiz-adv-x="187" 
d="M120 600q0 -101 48 -216h-65q-68 95 -68 216q0 72 21.5 134.5t46.5 99.5h65q-48 -109 -48 -234z" />
    <glyph glyph-name="parenrightsuperior" unicode="&#x207e;" horiz-adv-x="187" 
d="M67 600q0 125 -48 234h65q25 -37 46.5 -99.5t21.5 -134.5q0 -121 -68 -216h-65q48 115 48 216z" />
    <glyph glyph-name="zeroinferior" unicode="&#x2080;" horiz-adv-x="356" 
d="M174 324h8q66 0 105 -44.5t39 -135.5v-50q0 -91 -39 -135.5t-105 -44.5h-8q-66 0 -105 44.5t-39 135.5v50q0 91 39 135.5t105 44.5zM228 76v86q0 80 -50 80t-50 -80v-86q0 -80 50 -80t50 80z" />
    <glyph glyph-name="oneinferior" unicode="&#x2081;" horiz-adv-x="247" 
d="M25 188v52l108 78h63v-398h-98v268h-73z" />
    <glyph glyph-name="twoinferior" unicode="&#x2082;" horiz-adv-x="320" 
d="M290 202q0 -33 -13 -59t-28 -40.5t-53 -46.5l-38 -32q-14 -12 -14 -19v-3h140v-82h-254v69q0 30 15.5 50t61.5 59l30 25q33 27 44 41t11 31q0 47 -65 47q-16 0 -35 -4t-30 -8l-11 -5l-9 4q-3 34 -5 70q0 1 14.5 7t42.5 12t55 6q66 0 103.5 -34.5t37.5 -87.5z" />
    <glyph glyph-name="threeinferior" unicode="&#x2083;" horiz-adv-x="296" 
d="M275 42q0 -128 -150 -128q-27 0 -53 4t-39 8l-13 5l6 70l8 4q43 -9 72 -9q69 0 69 50q0 44 -64 44h-53v67h62q46 2 46 44q0 41 -57 41q-15 0 -32 -3.5t-27 -6.5l-10 -4l-8 4q-4 42 -7 70q49 22 107 22q65 0 98.5 -30.5t33.5 -77.5q0 -53 -38 -80v-2q49 -30 49 -92z" />
    <glyph glyph-name="fourinferior" unicode="&#x2084;" horiz-adv-x="326" 
d="M15 69l97 247h96l-97 -249h62l29 103h61v-103h48v-82h-48v-65h-98v65h-150v84z" />
    <glyph glyph-name="fiveinferior" unicode="&#x2085;" horiz-adv-x="299" 
d="M274 63v-17q0 -132 -133 -132q-27 0 -54.5 5.5t-42 10.5t-14.5 6l6 70l8 4q46 -14 75 -14q30 0 43.5 13.5t13.5 43.5v3q0 52 -46 52q-12 0 -24.5 -4t-18.5 -8l-6 -4l-49 12l12 214h206v-82h-114l-3 -70h1q25 9 42 9q48 0 73 -29.5t25 -82.5z" />
    <glyph glyph-name="sixinferior" unicode="&#x2086;" horiz-adv-x="350" 
d="M217 242q-45 0 -66 -20.5t-23 -66.5q35 26 83 26q50 0 79.5 -31.5t29.5 -82.5v-19q0 -60 -38.5 -97t-106.5 -37q-67 0 -106 43.5t-39 128.5v39q0 100 47 149.5t131 49.5q19 0 39.5 -3t32.5 -6l11 -3l-8 -75l-7 -4q-30 9 -59 9zM177 98q-29 0 -49 -13v-19q0 -70 47 -70
t47 54v3q0 45 -45 45z" />
    <glyph glyph-name="seveninferior" unicode="&#x2087;" horiz-adv-x="285" 
d="M15 234v82h255v-81l-132 -315h-105l130 302v12h-148z" />
    <glyph glyph-name="eightinferior" unicode="&#x2088;" horiz-adv-x="362" 
d="M32 19q0 69 53 97v4q-46 32 -46 88q0 55 38 85.5t104 30.5q68 0 104.5 -29t36.5 -79q0 -58 -51 -82v-4q59 -34 59 -98q0 -118 -149 -118q-67 0 -108 26t-41 79zM185 75l-20 7q-35 -20 -35 -52q0 -41 51 -41t51 41q0 16 -10 26t-37 19zM132 212q0 -14 9 -23t34 -18l22 -8
q32 25 32 49q0 37 -48 37q-49 0 -49 -37z" />
    <glyph glyph-name="nineinferior" unicode="&#x2089;" horiz-adv-x="350" 
d="M132 -4q48 0 68.5 20.5t20.5 67.5q-33 -26 -83 -26q-53 0 -80.5 29t-27.5 82v17q0 64 38 101t107 37t107 -42.5t38 -128.5v-40q0 -100 -47 -149.5t-131 -49.5q-19 0 -40 3t-32 5l-11 3l7 75l7 4q35 -8 59 -8zM172 140q29 0 50 14v18q0 70 -47 70t-47 -53q0 -49 44 -49z
" />
    <glyph glyph-name="parenleftinferior" unicode="&#x208d;" horiz-adv-x="187" 
d="M120 100q0 -101 48 -216h-65q-68 95 -68 216q0 72 21.5 134.5t46.5 99.5h65q-48 -109 -48 -234z" />
    <glyph glyph-name="parenrightinferior" unicode="&#x208e;" horiz-adv-x="187" 
d="M67 100q0 125 -48 234h65q25 -37 46.5 -99.5t21.5 -134.5q0 -121 -68 -216h-65q48 115 48 216z" />
    <glyph glyph-name="colonmonetary" unicode="&#x20a1;" horiz-adv-x="552" 
d="M170 -85l18 93q-67 24 -105.5 94.5t-38.5 184.5v40q0 165 67.5 243t199.5 80l18 90l73 -14l-16 -81q32 -4 56 -9l15 79l73 -15l-115 -591l55 11l11 -5q6 -37 11 -99q-41 -15 -99 -22l-22 -119l-73 15l19 98q-27 0 -57 5l-17 -92zM332 100h5l84 426q-27 5 -57 8l-82 -429
q23 -5 50 -5zM179 335v-48q0 -98 31 -150h6q0 2 1 11t2 19.5t3 18.5l67 349q-56 -9 -83 -55.5t-27 -144.5z" />
    <glyph glyph-name="cruzeiro" unicode="&#x20a2;" horiz-adv-x="516" 
d="M482 16q-5 -3 -21.5 -8t-59.5 -12.5t-88 -7.5q-61 0 -106.5 13.5t-84 46t-58.5 93.5t-20 149v34q0 174 70 250t210 76q36 0 72.5 -5t54.5 -9l18 -5l-15 -100l-11 -6q-60 12 -106 12q-84 0 -120.5 -46.5t-36.5 -168.5v-20q0 -98 22.5 -142.5t76.5 -54.5v275h67l30 -48
q12 19 21 29.5t28 19.5t44 9l19 -2l-6 -98l-13 -7q-9 2 -21 2q-38 0 -57 -29v-150l68 14l11 -5q8 -51 12 -99z" />
    <glyph glyph-name="franc" unicode="&#x20a3;" horiz-adv-x="425" 
d="M20 125v82h65v443h320v-112h-185v-145h155v-106h-155v-80h105v-82h-105v-125h-135v125h-65z" />
    <glyph glyph-name="naira" unicode="&#x20a6;" horiz-adv-x="633" 
d="M10 363v82h68v205h150l98 -205h94v205h135v-205h68v-82h-68v-86h68v-82h-68v-195h-150l-93 195h-99v-195h-135v195h-68v82h68v86h-68zM213 310v-33h60l-24 51l-33 90l-15 -3zM428 234l-8 109v20h-55l17 -36l32 -95z" />
    <glyph glyph-name="peseta" unicode="&#x20a7;" horiz-adv-x="570" 
d="M12 362v82h65v206h201q203 0 207 -206h65v-82h-65q-1 -96 -48.5 -143t-133.5 -47h-91v-172h-135v362h-65zM212 270h54q84 0 84 92h-138v-92zM256 538h-44v-94h137q-5 94 -93 94z" />
    <glyph glyph-name="rupee" unicode="&#x20a8;" horiz-adv-x="605" 
d="M44 375l24 82h242q-3 46 -27.5 65.5t-79.5 19.5h-163l31 108h491l-23 -82h-130q-1 -1 -1 -2q34 -39 37 -109h116l-23 -82h-95q-10 -105 -99 -140v-3q34 -17 63 -87l61 -145h-144l-74 159q-16 33 -58 33h-122v98h145q87 0 94 85h-265z" />
    <glyph glyph-name="won" unicode="&#x20a9;" horiz-adv-x="804" 
d="M18 363v82h79l-37 205h136l36 -205h83l46 185h82l45 -185h84l36 205h136l-37 -205h79v-82h-94l-15 -85h109v-82h-124l-35 -196h-144l-64 261l-11 84h-12q-7 -69 -11 -84l-64 -261h-144l-36 196h-123v82h109l-16 85h-93zM543 244q7 72 12 103l3 16h-49l8 -33l13 -86h13z
M274 244q8 65 13 86l8 33h-49l3 -16l12 -103h13z" />
    <glyph glyph-name="sheqel" unicode="&#x20aa;" horiz-adv-x="860" 
d="M595 180h-125v138q0 49 -19 69.5t-68 20.5h-198v-408h-135v520h364q89 0 135 -38t46 -128v-174zM675 520h135v-354q0 -91 -44.5 -128.5t-133.5 -37.5h-367v340h125v-228h195q49 0 69.5 20.5t20.5 68.5v319z" />
    <glyph glyph-name="Euro" unicode="&#x20ac;" horiz-adv-x="496" 
d="M12 340l33 82h52q17 120 80.5 174t176.5 54q27 0 56.5 -4t45.5 -8l15 -4q-4 -21 -9 -55t-7 -44l-11 -6q-43 9 -79 9q-55 0 -86.5 -27t-42.5 -89h205l-13 -82h-199v-50h192l-11 -82h-175q10 -58 40 -83t85 -25q15 0 36 3t34 7l13 3l11 -6q7 -51 12 -99l-7 -2q-7 -2 -19 -5
t-27 -6t-35 -5t-39 -2q-107 0 -168.5 48.5t-76.5 171.5h-82l33 82h45v50h-78z" />
    <glyph glyph-name="litre" unicode="&#x2113;" horiz-adv-x="445" 
d="M267 -12q-95 0 -137.5 49t-45.5 141l-2 2l-50 -21q-22 59 -27 73l79 38v200q0 104 40 153t126 49q81 0 117.5 -42.5t36.5 -133.5q0 -101 -30 -155t-115 -91l-45 -21v-30q0 -58 15 -78.5t56 -20.5q15 0 33.5 3t29.5 5l12 3l11 -6v-99q-48 -18 -104 -18zM214 502v-172
q43 20 57.5 48.5t14.5 76.5v47q0 36 -8 50.5t-28 14.5q-36 0 -36 -65z" />
    <glyph glyph-name="trademark" unicode="&#x2122;" horiz-adv-x="574" 
d="M20 600v60h190v-60h-58v-270h-75v270h-57zM454 660h96v-330h-75v127l2 64l-9 1l-12 -49l-43 -131h-32l-44 131l-11 49l-9 -1l2 -64v-127h-75v330h96l40 -115l13 -57h8q6 38 13 57z" />
    <glyph glyph-name="Omega" unicode="&#x2126;" horiz-adv-x="566" 
d="M313 0v201q36 16 54 44.5t18 94.5v86q0 61 -26 97t-76 36t-75.5 -36t-25.5 -97v-86q0 -46 9 -74t22.5 -40t39.5 -25v-201h-210v112h120v27q-120 49 -120 241v22q0 132 59 201t175 69h12q116 0 175 -69t59 -201v-22q0 -192 -120 -241v-27h120v-112h-210z" />
    <glyph glyph-name="estimated" unicode="&#x212e;" horiz-adv-x="855" 
d="M671 343v188q0 13 -10 23q-97 97 -232 97q-137 0 -234 -100q-9 -11 -9 -24v-184q0 -5 5 -5h475q5 0 5 5zM810 319h-619q-5 0 -5 -4v-187q0 -12 8 -22q95 -101 235 -101q149 0 246 113h56q-52 -62 -132 -98t-171 -36q-159 0 -271 100.5t-112 243.5q0 142 112.5 243
t270.5 101t270 -100.5t112 -243.5v-9z" />
    <glyph glyph-name="onethird" unicode="&#x2153;" horiz-adv-x="747" 
d="M726 122q0 -128 -150 -128q-27 0 -53 4t-39 8l-13 5l6 70l8 4q43 -9 72 -9q69 0 69 50q0 44 -64 44h-53v67h62q46 2 46 44q0 41 -57 41q-15 0 -32 -3.5t-27 -6.5l-10 -4l-8 4q-4 42 -7 70q49 22 107 22q65 0 98.5 -30.5t33.5 -77.5q0 -53 -38 -80v-2q49 -30 49 -92z
M89 -12l412 684h100l-412 -684h-100zM25 530v52l108 78h63v-398h-98v268h-73z" />
    <glyph glyph-name="twothirds" unicode="&#x2154;" horiz-adv-x="830" 
d="M290 544q0 -33 -13 -59t-28 -40.5t-53 -46.5l-38 -32q-14 -12 -14 -19v-3h140v-82h-254v69q0 30 15.5 50t61.5 59l30 25q33 27 44 41t11 31q0 47 -65 47q-16 0 -35 -4t-30 -8l-11 -5l-9 4q-3 34 -5 70q0 1 14.5 7t42.5 12t55 6q66 0 103.5 -34.5t37.5 -87.5zM809 122
q0 -128 -150 -128q-27 0 -53 4t-39 8l-13 5l6 70l8 4q43 -9 72 -9q69 0 69 50q0 44 -64 44h-53v67h62q46 2 46 44q0 41 -57 41q-15 0 -32 -3.5t-27 -6.5l-10 -4l-8 4q-4 42 -7 70q49 22 107 22q65 0 98.5 -30.5t33.5 -77.5q0 -53 -38 -80v-2q49 -30 49 -92zM166 -12l412 684
h100l-412 -684h-100z" />
    <glyph glyph-name="oneeighth" unicode="&#x215b;" horiz-adv-x="771" 
d="M441 99q0 69 53 97v4q-46 32 -46 88q0 55 38 85.5t104 30.5q68 0 104.5 -29t36.5 -79q0 -58 -51 -82v-4q59 -34 59 -98q0 -118 -149 -118q-67 0 -108 26t-41 79zM594 155l-20 7q-35 -20 -35 -52q0 -41 51 -41t51 41q0 16 -10 26t-37 19zM541 292q0 -14 9 -23t34 -18
l22 -8q32 25 32 49q0 37 -48 37q-49 0 -49 -37zM89 -12l412 684h100l-412 -684h-100zM25 530v52l108 78h63v-398h-98v268h-73z" />
    <glyph glyph-name="threeeighths" unicode="&#x215c;" horiz-adv-x="809" 
d="M275 384q0 -128 -150 -128q-27 0 -53 4t-39 8l-13 5l6 70l8 4q43 -9 72 -9q69 0 69 50q0 44 -64 44h-53v67h62q46 2 46 44q0 41 -57 41q-15 0 -32 -3.5t-27 -6.5l-10 -4l-8 4q-4 42 -7 70q49 22 107 22q65 0 98.5 -30.5t33.5 -77.5q0 -53 -38 -80v-2q49 -30 49 -92z
M479 99q0 69 53 97v4q-46 32 -46 88q0 55 38 85.5t104 30.5q68 0 104.5 -29t36.5 -79q0 -58 -51 -82v-4q59 -34 59 -98q0 -118 -149 -118q-67 0 -108 26t-41 79zM632 155l-20 7q-35 -20 -35 -52q0 -41 51 -41t51 41q0 16 -10 26t-37 19zM579 292q0 -14 9 -23t34 -18l22 -8
q32 25 32 49q0 37 -48 37q-49 0 -49 -37zM128 -12l412 684h100l-412 -684h-100z" />
    <glyph glyph-name="fiveeighths" unicode="&#x215d;" horiz-adv-x="810" 
d="M480 99q0 69 53 97v4q-46 32 -46 88q0 55 38 85.5t104 30.5q68 0 104.5 -29t36.5 -79q0 -58 -51 -82v-4q59 -34 59 -98q0 -118 -149 -118q-67 0 -108 26t-41 79zM633 155l-20 7q-35 -20 -35 -52q0 -41 51 -41t51 41q0 16 -10 26t-37 19zM580 292q0 -14 9 -23t34 -18
l22 -8q32 25 32 49q0 37 -48 37q-49 0 -49 -37zM274 405v-17q0 -132 -133 -132q-27 0 -54.5 5.5t-42 10.5t-14.5 6l6 70l8 4q46 -14 75 -14q30 0 43.5 13.5t13.5 43.5v3q0 52 -46 52q-12 0 -24.5 -4t-18.5 -8l-6 -4l-49 12l12 214h206v-82h-114l-3 -70h1q25 9 42 9
q48 0 73 -29.5t25 -82.5zM128 -12l412 684h100l-412 -684h-100z" />
    <glyph glyph-name="seveneighths" unicode="&#x215e;" horiz-adv-x="735" 
d="M405 99q0 69 53 97v4q-46 32 -46 88q0 55 38 85.5t104 30.5q68 0 104.5 -29t36.5 -79q0 -58 -51 -82v-4q59 -34 59 -98q0 -118 -149 -118q-67 0 -108 26t-41 79zM558 155l-20 7q-35 -20 -35 -52q0 -41 51 -41t51 41q0 16 -10 26t-37 19zM505 292q0 -14 9 -23t34 -18
l22 -8q32 25 32 49q0 37 -48 37q-49 0 -49 -37zM15 576v82h255v-81l-132 -315h-105l130 302v12h-148zM55 -12l412 684h100l-412 -684h-100z" />
    <glyph glyph-name="partialdiff" unicode="&#x2202;" horiz-adv-x="474" 
d="M447 374v-135q0 -118 -55 -184.5t-149 -66.5h-13q-94 0 -148.5 66.5t-54.5 184.5v31q0 124 48 188t130 64q63 0 98 -41l4 3q-24 125 -185 171l-28 8q4 14 12 40t11 37q162 -14 246 -106.5t84 -259.5zM312 198v115q0 101 -75 101t-75 -101v-115q0 -102 75 -102t75 102z
" />
    <glyph glyph-name="Delta" unicode="&#x2206;" horiz-adv-x="552" 
d="M522 107v-107h-492v107l170 553h152zM244 357l-73 -245h210l-73 245l-22 144h-20z" />
    <glyph glyph-name="product" unicode="&#x220f;" horiz-adv-x="630" 
d="M540 542v-424l70 -16v-102h-260v102l55 16v430h-180v-430l55 -16v-102h-260v102l70 16v424l-70 16v102h590v-102z" />
    <glyph glyph-name="summation" unicode="&#x2211;" horiz-adv-x="457" 
d="M309 548h-126v-7q15 -9 32 -36l106 -165l-103 -194l-21 -29v-5h122l16 73h102v-185h-407v68l140 265l-140 223v104h397v-185h-102z" />
    <glyph glyph-name="minus" unicode="&#x2212;" 
d="M450 250h-400v97h400v-97z" />
    <glyph glyph-name="radical" unicode="&#x221a;" horiz-adv-x="583" 
d="M281 70l166 690h100l-207 -860h-146l-76 351h-108v97h187l60 -278l7 -60h8z" />
    <glyph glyph-name="infinity" unicode="&#x221e;" horiz-adv-x="792" 
d="M590 482q81 0 131.5 -48t50.5 -161q0 -112 -51.5 -161t-130.5 -49q-27 0 -50 7t-38.5 15t-36 29.5t-31.5 35.5t-37 48h-4q-27 -36 -37.5 -48.5t-31.5 -35t-36 -30t-37.5 -14.5t-49.5 -7q-79 0 -130 48.5t-51 159.5q0 114 50 162.5t131 48.5q27 0 49.5 -7t37 -14.5
t36 -30.5t31 -35t37.5 -48h6q56 76 93.5 105.5t98.5 29.5zM201 160q36 0 62.5 20.5t59.5 66.5l19 27l-19 24q-42 53 -64 70.5t-58 16.5q-35 0 -59.5 -27.5t-24.5 -86.5q0 -57 24.5 -84t59.5 -27zM590 385q-36 -1 -61 -19t-61 -67l-18 -25l18 -27q58 -87 122 -87q36 0 60 27
t24 86q0 58 -24 85t-60 27z" />
    <glyph glyph-name="integral" unicode="&#x222b;" horiz-adv-x="284" 
d="M171 628v-670q0 -92 -31 -131t-109 -39q-17 0 -33.5 2t-23.5 4l-8 3v56l12 11q2 0 15 -0.5t22 -0.5q59 0 59 67v670q0 92 31 131t109 39q17 0 33.5 -2t24.5 -4l7 -3v-56l-3 -3q-3 -3 -4.5 -5t-3.5 -3q-2 0 -15.5 0.5t-22.5 0.5q-59 0 -59 -67z" />
    <glyph glyph-name="approxequal" unicode="&#x2248;" 
d="M151 362q-33 0 -63 -19.5t-38 -32.5v98q45 52 108 52q44 0 98.5 -32.5t91.5 -32.5q24 0 49.5 12.5t38.5 25.5l14 13v-97q-47 -52 -109 -52q-44 0 -99 32.5t-91 32.5zM151 184q-33 0 -63 -19.5t-38 -32.5v98q43 52 108 52q44 0 95 -32.5t88 -32.5q24 0 51.5 12.5
t42.5 25.5l15 13v-97q-49 -52 -109 -52q-44 0 -99 32.5t-91 32.5z" />
    <glyph glyph-name="notequal" unicode="&#x2260;" 
d="M165 20h-91l62 128h-86v97h132l44 90h-176v97h221l63 128h91l-63 -128h88v-97h-133l-44 -90h177v-97h-223z" />
    <glyph glyph-name="lessequal" unicode="&#x2264;" 
d="M436 0h-372v97h372v-97zM436 236v-96h-24l-348 184v84l348 186h24v-98l-234 -129v-2z" />
    <glyph glyph-name="greaterequal" unicode="&#x2265;" 
d="M436 0h-372v97h372v-97zM64 497v97h24l348 -185v-83l-348 -186h-24v97l234 130v2z" />
    <glyph glyph-name="lozenge" unicode="&#x25ca;" horiz-adv-x="517" 
d="M483 316l-166 -356h-116l-166 356l166 356h116zM143 316l114 -246h4l114 246l-114 246h-4z" />
    <glyph glyph-name="zero.tb" unicode="&#xf639;" 
d="M243 672h13q99 0 159 -76t60 -226v-81q0 -150 -60 -225.5t-159 -75.5h-13q-98 0 -158 75.5t-60 225.5v81q0 150 60 226t158 76zM339 247v165q0 147 -89 147t-89 -147v-165q0 -147 89 -147t89 147z" />
    <glyph glyph-name="two.tb" unicode="&#xf63a;" 
d="M455 477v-9q0 -55 -19.5 -97t-45.5 -67t-74 -64q-4 -3 -6.5 -5t-5.5 -4l-74 -60q-24 -20 -31 -30t-7 -25v-4h253v-112h-400v80q0 61 18.5 98.5t70.5 79.5l118 96q36 30 52 55t16 56v5q0 39 -26.5 64t-87.5 25q-14 0 -38 -4l-16 -90h-97v164q8 5 23 12t62 19t95 12
q106 0 163 -53.5t57 -141.5z" />
    <glyph glyph-name="three.tb" unicode="&#xf63b;" 
d="M440 200v-9q0 -91 -60.5 -147t-167.5 -56q-43 0 -84.5 8.5t-61.5 16t-20 8.5l10 92l13 7q65 -20 114 -20q62 0 92 28t30 71v5q0 81 -112 81h-83v98h96q37 0 61 24.5t24 66.5v5q0 36 -25 58.5t-77 22.5q-15 0 -32 -3l-16 -82h-87v160q66 37 165 37q98 0 149.5 -48.5
t51.5 -122.5v-9q0 -93 -69 -138v-3q89 -49 89 -151z" />
    <glyph glyph-name="four.tb" unicode="&#xf63c;" 
d="M35 214l176 446h140l-175 -445h114l35 185h100v-185h65v-112h-65v-103h-135v103h-255v111z" />
    <glyph glyph-name="five.tb" unicode="&#xf63d;" 
d="M442 240v-33q0 -108 -52.5 -163.5t-154.5 -55.5q-44 0 -87.5 9t-65.5 17t-22 9l11 93l12 6q74 -22 123 -22q101 0 101 109v14q0 89 -84 89q-20 0 -40 -6.5t-30 -13.5l-10 -6l-81 19l20 355h320v-160h-97l-10 48h-85l-8 -143h2q34 17 75 17q79 0 121 -47t42 -135z" />
    <glyph glyph-name="six.tb" unicode="&#xf63e;" 
d="M306 560q-70 0 -101.5 -39t-34.5 -135h2q60 42 130 42q79 0 121 -51.5t42 -136.5v-32q0 -103 -52.5 -161.5t-160.5 -58.5q-217 0 -217 287v65q0 173 65.5 252.5t196.5 79.5q29 0 59 -5t45 -9l15 -5v-153h-97l-12 60h-1zM253 316q-41 0 -83 -26v-35q0 -89 21 -122t61 -33
q36 0 57 26t21 72v31q0 87 -77 87z" />
    <glyph glyph-name="seven.tb" unicode="&#xf63f;" 
d="M314 548h-161l-16 -88h-92v200h410v-113l-230 -547h-147l236 539v9z" />
    <glyph glyph-name="eight.tb" unicode="&#xf640;" 
d="M27 167q0 109 91 157v8q-80 59 -80 153q0 91 58 139t154 48q95 0 153 -46.5t58 -130.5q0 -99 -89 -141v-6q101 -63 101 -166q0 -96 -58.5 -145t-164.5 -49q-100 0 -161.5 44t-61.5 135zM255 266l-31 13q-62 -37 -62 -102q0 -36 23 -56.5t65 -20.5t65 20t23 57
q0 29 -17.5 49t-65.5 40zM166 490q0 -28 19 -46t60 -37l30 -13q58 48 58 96q0 32 -21 51t-62 19q-40 0 -62 -19t-22 -51z" />
    <glyph glyph-name="nine.tb" unicode="&#xf641;" 
d="M197 100q69 0 99.5 38.5t32.5 133.5q-56 -40 -124 -40q-80 0 -125 51t-45 138v31q0 102 58.5 161t156.5 59q105 0 160 -69.5t55 -195.5v-87q0 -173 -65 -252.5t-198 -79.5q-28 0 -57.5 4.5t-44.5 9.5l-16 5v153h97l11 -60h5zM246 344q47 0 84 22v38q0 84 -20 120t-60 36
q-37 0 -58.5 -27.5t-21.5 -75.5v-22q0 -91 76 -91z" />
    <glyph glyph-name="zero.ot" unicode="&#xf643;" 
d="M244 532h12q97 0 158 -69.5t61 -191.5v-22q0 -123 -61 -192t-158 -69h-12q-97 0 -158 69t-61 192v22q0 122 61 191.5t158 69.5zM339 234v52q0 66 -24 100t-65 34q-42 0 -65.5 -34t-23.5 -100v-52q0 -66 23.5 -100t65.5 -34q41 0 65 34t24 100z" />
    <glyph glyph-name="one.ot" unicode="&#xf644;" 
d="M80 321v72l177 127h80v-408h113v-112h-380v112h132v241l-3 2l-48 -34h-71z" />
    <glyph glyph-name="two.ot" unicode="&#xf645;" 
d="M445 352q0 -60 -29 -100.5t-87 -82.5l-81 -59l2 -6l50 8h145v-112h-400v101l149 114q42 32 56.5 43.5t32.5 30t22.5 30.5t4.5 29q0 72 -103 72q-20 0 -38 -3l-16 -92h-97v166q71 41 176 41q99 0 156 -48t57 -132z" />
    <glyph glyph-name="three.ot" unicode="&#xf646;" 
d="M443 67v-9q0 -90 -60.5 -145t-167.5 -55q-43 0 -84.5 8.5t-61.5 16t-20 8.5l10 93l13 6q65 -20 114 -20q62 0 92 26.5t30 67.5v5q0 83 -112 83h-83v98h96q38 0 62 23t24 64v5q0 35 -25 56.5t-78 21.5l-31 -3l-16 -82h-87v161q67 36 164 36q98 0 149.5 -48t51.5 -120v-9
q0 -92 -69 -137v-3q89 -45 89 -148z" />
    <glyph glyph-name="four.ot" unicode="&#xf647;" 
d="M35 112l162 408h140l-162 -408h115l35 185h100v-185h65v-112h-65v-130h-135v130h-255v112z" />
    <glyph glyph-name="five.ot" unicode="&#xf648;" 
d="M450 106v-32q0 -106 -52.5 -161t-154.5 -55q-44 0 -87.5 8.5t-65.5 16.5t-22 9l11 94l12 6q74 -22 123 -22q53 0 77 26.5t24 79.5v14q0 83 -84 83q-20 0 -40 -6.5t-30 -12.5l-10 -6l-81 18l20 354h320v-160h-97l-10 48h-85l-8 -143h2q34 17 77 17q79 0 120 -44.5
t41 -131.5z" />
    <glyph glyph-name="six.ot" unicode="&#xf649;" 
d="M307 652q28 0 58 -5t45 -9l16 -5v-153h-97l-12 60q-70 -1 -102 -38.5t-35 -122.5h2q58 41 130 41q79 0 121 -51t42 -135v-28q0 -102 -52.5 -160t-160.5 -58q-217 0 -217 285v60q0 158 67 238.5t195 80.5zM263 308q-41 0 -83 -24v-36q0 -83 21 -115.5t61 -32.5
q36 0 57 25.5t21 71.5v25q0 86 -77 86z" />
    <glyph glyph-name="seven.ot" unicode="&#xf64a;" 
d="M314 408h-161l-16 -88h-92v200h410v-113l-226 -537h-147l232 529v9z" />
    <glyph glyph-name="eight.ot" unicode="&#xf64b;" 
d="M27 162q0 108 92 156v4q-80 55 -80 143q0 92 56.5 139.5t154.5 47.5q97 0 154 -43.5t57 -126.5q0 -94 -88 -138v-6q100 -54 100 -156q0 -194 -223 -194q-100 0 -161.5 41.5t-61.5 132.5zM275 248l-53 22q-60 -37 -60 -95q0 -34 23 -54.5t65 -20.5q43 0 65.5 19t22.5 53
q0 26 -13 43.5t-50 32.5zM166 475q0 -41 64 -70l47 -20q57 47 57 90q0 29 -21.5 47t-62.5 18q-40 0 -62 -18t-22 -47z" />
    <glyph glyph-name="nine.ot" unicode="&#xf64c;" 
d="M192 -30h5q127 0 133 168l-3 1q-61 -39 -129 -39q-79 0 -121 50t-42 135v30q0 101 58.5 159t156.5 58q105 0 160 -68.5t55 -192.5v-86q0 -170 -65 -248.5t-198 -78.5q-28 0 -57.5 5t-44.5 9l-16 5v153h97zM246 212q46 0 84 21v35q0 83 -19.5 117.5t-60.5 34.5
q-37 0 -58.5 -27t-21.5 -74v-18q0 -89 76 -89z" />
    <glyph glyph-name="zero.denominator" unicode="&#xf655;" horiz-adv-x="356" 
d="M174 404h8q66 0 105 -44.5t39 -135.5v-50q0 -91 -39 -135.5t-105 -44.5h-8q-66 0 -105 44.5t-39 135.5v50q0 91 39 135.5t105 44.5zM228 156v86q0 80 -50 80t-50 -80v-86q0 -80 50 -80t50 80z" />
    <glyph glyph-name="one.denominator" unicode="&#xf656;" horiz-adv-x="247" 
d="M25 268v52l108 78h63v-398h-98v268h-73z" />
    <glyph glyph-name="two.denominator" unicode="&#xf657;" horiz-adv-x="320" 
d="M290 282q0 -33 -13 -59t-28 -40.5t-53 -46.5l-38 -32q-14 -12 -14 -19v-3h140v-82h-254v69q0 30 15.5 50t61.5 59l30 25q33 27 44 41t11 31q0 47 -65 47q-16 0 -35 -4t-30 -8l-11 -5l-9 4q-3 34 -5 70q0 1 14.5 7t42.5 12t55 6q66 0 103.5 -34.5t37.5 -87.5z" />
    <glyph glyph-name="three.denominator" unicode="&#xf658;" horiz-adv-x="296" 
d="M275 122q0 -128 -150 -128q-27 0 -53 4t-39 8l-13 5l6 70l8 4q43 -9 72 -9q69 0 69 50q0 44 -64 44h-53v67h62q46 2 46 44q0 41 -57 41q-15 0 -32 -3.5t-27 -6.5l-10 -4l-8 4q-4 42 -7 70q49 22 107 22q65 0 98.5 -30.5t33.5 -77.5q0 -53 -38 -80v-2q49 -30 49 -92z" />
    <glyph glyph-name="four.denominator" unicode="&#xf659;" horiz-adv-x="326" 
d="M15 149l97 247h96l-97 -249h62l29 103h61v-103h48v-82h-48v-65h-98v65h-150v84z" />
    <glyph glyph-name="five.denominator" unicode="&#xf65a;" horiz-adv-x="299" 
d="M274 143v-17q0 -132 -133 -132q-27 0 -54.5 5.5t-42 10.5t-14.5 6l6 70l8 4q46 -14 75 -14q30 0 43.5 13.5t13.5 43.5v3q0 52 -46 52q-12 0 -24.5 -4t-18.5 -8l-6 -4l-49 12l12 214h206v-82h-114l-3 -70h1q25 9 42 9q48 0 73 -29.5t25 -82.5z" />
    <glyph glyph-name="six.denominator" unicode="&#xf65b;" horiz-adv-x="350" 
d="M217 322q-45 0 -66 -20.5t-23 -66.5q35 26 83 26q50 0 79.5 -31.5t29.5 -82.5v-19q0 -60 -38.5 -97t-106.5 -37q-67 0 -106 43.5t-39 128.5v39q0 100 47 149.5t131 49.5q19 0 39.5 -3t32.5 -6l11 -3l-8 -75l-7 -4q-30 9 -59 9zM177 178q-29 0 -49 -13v-19q0 -70 47 -70
t47 54v3q0 45 -45 45z" />
    <glyph glyph-name="seven.denominator" unicode="&#xf65c;" horiz-adv-x="285" 
d="M15 314v82h255v-81l-132 -315h-105l130 302v12h-148z" />
    <glyph glyph-name="eight.denominator" unicode="&#xf65d;" horiz-adv-x="362" 
d="M32 99q0 69 53 97v4q-46 32 -46 88q0 55 38 85.5t104 30.5q68 0 104.5 -29t36.5 -79q0 -58 -51 -82v-4q59 -34 59 -98q0 -118 -149 -118q-67 0 -108 26t-41 79zM185 155l-20 7q-35 -20 -35 -52q0 -41 51 -41t51 41q0 16 -10 26t-37 19zM132 292q0 -14 9 -23t34 -18l22 -8
q32 25 32 49q0 37 -48 37q-49 0 -49 -37z" />
    <glyph glyph-name="nine.denominator" unicode="&#xf65e;" horiz-adv-x="350" 
d="M132 76q48 0 68.5 20.5t20.5 67.5q-33 -26 -83 -26q-53 0 -80.5 29t-27.5 82v17q0 64 38 101t107 37t107 -42.5t38 -128.5v-40q0 -100 -47 -149.5t-131 -49.5q-19 0 -40 3t-32 5l-11 3l7 75l7 4q35 -8 59 -8zM172 220q29 0 50 14v18q0 70 -47 70t-47 -53q0 -49 44 -49z
" />
    <glyph glyph-name="zero.numerator" unicode="&#xf661;" horiz-adv-x="356" 
d="M174 666h8q66 0 105 -44.5t39 -135.5v-50q0 -91 -39 -135.5t-105 -44.5h-8q-66 0 -105 44.5t-39 135.5v50q0 91 39 135.5t105 44.5zM228 418v86q0 80 -50 80t-50 -80v-86q0 -80 50 -80t50 80z" />
    <glyph glyph-name="one.numerator" unicode="&#xf662;" horiz-adv-x="247" 
d="M25 530v52l108 78h63v-398h-98v268h-73z" />
    <glyph glyph-name="two.numerator" unicode="&#xf663;" horiz-adv-x="320" 
d="M290 544q0 -33 -13 -59t-28 -40.5t-53 -46.5l-38 -32q-14 -12 -14 -19v-3h140v-82h-254v69q0 30 15.5 50t61.5 59l30 25q33 27 44 41t11 31q0 47 -65 47q-16 0 -35 -4t-30 -8l-11 -5l-9 4q-3 34 -5 70q0 1 14.5 7t42.5 12t55 6q66 0 103.5 -34.5t37.5 -87.5z" />
    <glyph glyph-name="three.numerator" unicode="&#xf664;" horiz-adv-x="296" 
d="M275 384q0 -128 -150 -128q-27 0 -53 4t-39 8l-13 5l6 70l8 4q43 -9 72 -9q69 0 69 50q0 44 -64 44h-53v67h62q46 2 46 44q0 41 -57 41q-15 0 -32 -3.5t-27 -6.5l-10 -4l-8 4q-4 42 -7 70q49 22 107 22q65 0 98.5 -30.5t33.5 -77.5q0 -53 -38 -80v-2q49 -30 49 -92z" />
    <glyph glyph-name="four.numerator" unicode="&#xf665;" horiz-adv-x="326" 
d="M15 411l97 247h96l-97 -249h62l29 103h61v-103h48v-82h-48v-65h-98v65h-150v84z" />
    <glyph glyph-name="five.numerator" unicode="&#xf666;" horiz-adv-x="299" 
d="M274 405v-17q0 -132 -133 -132q-27 0 -54.5 5.5t-42 10.5t-14.5 6l6 70l8 4q46 -14 75 -14q30 0 43.5 13.5t13.5 43.5v3q0 52 -46 52q-12 0 -24.5 -4t-18.5 -8l-6 -4l-49 12l12 214h206v-82h-114l-3 -70h1q25 9 42 9q48 0 73 -29.5t25 -82.5z" />
    <glyph glyph-name="six.numerator" unicode="&#xf667;" horiz-adv-x="350" 
d="M217 584q-45 0 -66 -20.5t-23 -66.5q35 26 83 26q50 0 79.5 -31.5t29.5 -82.5v-19q0 -60 -38.5 -97t-106.5 -37q-67 0 -106 43.5t-39 128.5v39q0 100 47 149.5t131 49.5q19 0 39.5 -3t32.5 -6l11 -3l-8 -75l-7 -4q-30 9 -59 9zM177 440q-29 0 -49 -13v-19q0 -70 47 -70
t47 54v3q0 45 -45 45z" />
    <glyph glyph-name="seven.numerator" unicode="&#xf668;" horiz-adv-x="285" 
d="M15 576v82h255v-81l-132 -315h-105l130 302v12h-148z" />
    <glyph glyph-name="eight.numerator" unicode="&#xf669;" horiz-adv-x="362" 
d="M32 361q0 69 53 97v4q-46 32 -46 88q0 55 38 85.5t104 30.5q68 0 104.5 -29t36.5 -79q0 -58 -51 -82v-4q59 -34 59 -98q0 -118 -149 -118q-67 0 -108 26t-41 79zM185 417l-20 7q-35 -20 -35 -52q0 -41 51 -41t51 41q0 16 -10 26t-37 19zM132 554q0 -14 9 -23t34 -18
l22 -8q32 25 32 49q0 37 -48 37q-49 0 -49 -37z" />
    <glyph glyph-name="nine.numerator" unicode="&#xf66a;" horiz-adv-x="350" 
d="M132 338q48 0 68.5 20.5t20.5 67.5q-33 -26 -83 -26q-53 0 -80.5 29t-27.5 82v17q0 64 38 101t107 37t107 -42.5t38 -128.5v-40q0 -100 -47 -149.5t-131 -49.5q-19 0 -40 3t-32 5l-11 3l7 75l7 4q35 -8 59 -8zM172 482q29 0 50 14v18q0 70 -47 70t-47 -53q0 -49 44 -49z
" />
    <glyph glyph-name="Abreve.sc" unicode="&#xf66d;" horiz-adv-x="606" 
d="M85 118l87 314l-55 16v102h284l120 -432l65 -16v-102h-250v102l51 13l-14 53h-141l-13 -53l51 -13v-102h-250v102zM275 337l-20 -77h95l-19 77l-22 101h-12q-15 -73 -22 -101zM368 752h82q0 -144 -146 -144q-145 0 -145 144h83q0 -24 15.5 -43t46.5 -19q32 0 48 19t16 43
z" />
    <glyph glyph-name="Amacron.sc" unicode="&#xf66e;" horiz-adv-x="606" 
d="M85 118l87 314l-55 16v102h284l120 -432l65 -16v-102h-250v102l51 13l-14 53h-141l-13 -53l51 -13v-102h-250v102zM275 337l-20 -77h95l-19 77l-22 101h-12q-15 -73 -22 -101zM180 614v83h245v-83h-245z" />
    <glyph glyph-name="Aogonek.sc" unicode="&#xf66f;" horiz-adv-x="606" 
d="M606 -141l8 -61q-27 -10 -68 -10q-108 0 -108 81q0 62 76 129v2h-178v102l51 13l-14 53h-141l-13 -53l51 -13v-102h-250v102l65 16l87 314l-55 16v102h284l120 -432l65 -16v-102q-58 -77 -58 -109q0 -36 43 -36zM275 337l-20 -77h95l-19 77l-22 101h-12q-15 -73 -22 -101
z" />
    <glyph glyph-name="Cacute.sc" unicode="&#xf671;" horiz-adv-x="439" 
d="M298 450h-6q-65 0 -92.5 -44t-27.5 -129v-17q0 -82 29 -121t94 -39q21 0 44.5 4t36.5 8l14 4l11 -4q9 -61 13 -99q-54 -25 -144 -25q-104 0 -169 62t-65 200v29q0 148 64.5 215.5t185.5 67.5q30 0 61.5 -6t47.5 -12l16 -6v-173h-97zM421 749v-43l-115 -97h-76l-9 17
l83 123h117z" />
    <glyph glyph-name="Ccaron.sc" unicode="&#xf672;" horiz-adv-x="439" 
d="M298 450h-6q-65 0 -92.5 -44t-27.5 -129v-17q0 -82 29 -121t94 -39q21 0 44.5 4t36.5 8l14 4l11 -4q9 -61 13 -99q-54 -25 -144 -25q-104 0 -169 62t-65 200v29q0 148 64.5 215.5t185.5 67.5q30 0 61.5 -6t47.5 -12l16 -6v-173h-97zM219 609l-96 115l9 25h69l74 -62
l75 62h69l9 -25l-97 -115h-112z" />
    <glyph glyph-name="Ccircumflex.sc" unicode="&#xf673;" horiz-adv-x="439" 
d="M298 450h-6q-65 0 -92.5 -44t-27.5 -129v-17q0 -82 29 -121t94 -39q21 0 44.5 4t36.5 8l14 4l11 -4q9 -61 13 -99q-54 -25 -144 -25q-104 0 -169 62t-65 200v29q0 148 64.5 215.5t185.5 67.5q30 0 61.5 -6t47.5 -12l16 -6v-173h-97zM330 749l96 -115l-9 -25h-69l-74 62
l-75 -62h-69l-9 25l97 115h112z" />
    <glyph glyph-name="Cdotaccent.sc" unicode="&#xf674;" horiz-adv-x="439" 
d="M298 450h-6q-65 0 -92.5 -44t-27.5 -129v-17q0 -82 29 -121t94 -39q21 0 44.5 4t36.5 8l14 4l11 -4q9 -61 13 -99q-54 -25 -144 -25q-104 0 -169 62t-65 200v29q0 148 64.5 215.5t185.5 67.5q30 0 61.5 -6t47.5 -12l16 -6v-173h-97zM211 678q0 28 18.5 46t45.5 18t45 -18
t18 -46t-18 -46.5t-45 -18.5t-45.5 18.5t-18.5 46.5z" />
    <glyph glyph-name="Dcaron.sc" unicode="&#xf675;" horiz-adv-x="546" 
d="M90 118v314l-70 16v102h262q108 0 168 -58t60 -175v-120q0 -197 -218 -197h-272v102zM258 438h-33v-326h56q46 0 70 24t24 84v84q0 78 -28 106t-89 28zM229 610l-96 115l9 25h69l74 -62l75 62h69l9 -25l-97 -115h-112z" />
    <glyph glyph-name="Dmacron.sc" unicode="&#xf676;" horiz-adv-x="546" 
d="M43 232v98h47v102l-70 16v102h262q108 0 168 -58t60 -175v-120q0 -197 -218 -197h-272v102l70 16v114h-47zM258 438h-33v-108h68v-98h-68v-120h56q46 0 70 24t24 84v84q0 78 -28 106t-89 28z" />
    <glyph glyph-name="Ebreve.sc" unicode="&#xf677;" horiz-adv-x="460" 
d="M322 438h-97v-113h145v-98h-145v-115h107l16 53h92v-165h-420v102l70 16v314l-70 16v102h410v-165h-92zM314 753h82q0 -144 -146 -144q-145 0 -145 144h83q0 -24 15.5 -43t46.5 -19q32 0 48 19t16 43z" />
    <glyph glyph-name="Ecaron.sc" unicode="&#xf678;" horiz-adv-x="460" 
d="M322 438h-97v-113h145v-98h-145v-115h107l16 53h92v-165h-420v102l70 16v314l-70 16v102h410v-165h-92zM205 609l-96 115l9 25h69l74 -62l75 62h69l9 -25l-97 -115h-112z" />
    <glyph glyph-name="Edotaccent.sc" unicode="&#xf679;" horiz-adv-x="460" 
d="M322 438h-97v-113h145v-98h-145v-115h107l16 53h92v-165h-420v102l70 16v314l-70 16v102h410v-165h-92zM199 674q0 28 18.5 46t45.5 18t45 -18t18 -46t-18 -46.5t-45 -18.5t-45.5 18.5t-18.5 46.5z" />
    <glyph glyph-name="Emacron.sc" unicode="&#xf67a;" horiz-adv-x="460" 
d="M322 438h-97v-113h145v-98h-145v-115h107l16 53h92v-165h-420v102l70 16v314l-70 16v102h410v-165h-92zM124 616v83h245v-83h-245z" />
    <glyph glyph-name="Eogonek.sc" unicode="&#xf67c;" horiz-adv-x="460" 
d="M460 -141l8 -61q-27 -10 -68 -10q-108 0 -108 81q0 61 75 128v3h-347v102l70 16v314l-70 16v102h410v-165h-92l-16 53h-97v-113h145v-98h-145v-115h107l16 53h92v-165q-58 -77 -58 -109q0 -36 43 -36z" />
    <glyph glyph-name="Gbreve.sc" unicode="&#xf67d;" horiz-adv-x="485" 
d="M322 450h-17q-73 0 -103 -40.5t-30 -132.5v-21q0 -85 23.5 -120.5t72.5 -35.5q12 0 24 3.5t19.5 8t8.5 4.5v71l-60 16v92h195v-295h-72l-18 33h-2q-57 -45 -123 -45q-204 0 -204 266v29q0 147 67 213t198 66q33 0 66.5 -6t50.5 -12l17 -6v-168h-97zM344 754h82
q0 -144 -146 -144q-145 0 -145 144h83q0 -24 15.5 -43t46.5 -19q32 0 48 19t16 43z" />
    <glyph glyph-name="Gcircumflex.sc" unicode="&#xf67e;" horiz-adv-x="485" 
d="M322 450h-17q-73 0 -103 -40.5t-30 -132.5v-21q0 -85 23.5 -120.5t72.5 -35.5q12 0 24 3.5t19.5 8t8.5 4.5v71l-60 16v92h195v-295h-72l-18 33h-2q-57 -45 -123 -45q-204 0 -204 266v29q0 147 67 213t198 66q33 0 66.5 -6t50.5 -12l17 -6v-168h-97zM339 749l96 -115
l-9 -25h-69l-74 62l-75 -62h-69l-9 25l97 115h112z" />
    <glyph glyph-name="Gcommaaccent.sc" unicode="&#xf67f;" horiz-adv-x="485" 
d="M322 450h-17q-73 0 -103 -40.5t-30 -132.5v-21q0 -85 23.5 -120.5t72.5 -35.5q12 0 24 3.5t19.5 8t8.5 4.5v71l-60 16v92h195v-295h-72l-18 33h-2q-57 -45 -123 -45q-204 0 -204 266v29q0 147 67 213t198 66q33 0 66.5 -6t50.5 -12l17 -6v-168h-97zM191 -117
q0 32 19.5 52t50.5 20q30 0 50 -20t20 -53q0 -45 -40 -104l-52 -78h-41v16l31 97v3q-38 17 -38 67z" />
    <glyph glyph-name="Gdotaccent.sc" unicode="&#xf680;" horiz-adv-x="485" 
d="M322 450h-17q-73 0 -103 -40.5t-30 -132.5v-21q0 -85 23.5 -120.5t72.5 -35.5q12 0 24 3.5t19.5 8t8.5 4.5v71l-60 16v92h195v-295h-72l-18 33h-2q-57 -45 -123 -45q-204 0 -204 266v29q0 147 67 213t198 66q33 0 66.5 -6t50.5 -12l17 -6v-168h-97zM219 675q0 28 18.5 46
t45.5 18t45 -18t18 -46t-18 -46.5t-45 -18.5t-45.5 18.5t-18.5 46.5z" />
    <glyph glyph-name="Hcircumflex.sc" unicode="&#xf682;" horiz-adv-x="620" 
d="M530 432v-314l70 -16v-102h-260v102l55 16v97h-170v-97l55 -16v-102h-260v102l70 16v314l-70 16v102h260v-102l-55 -16v-105h170v105l-55 16v102h260v-102zM369 749l96 -115l-9 -25h-69l-74 62l-75 -62h-69l-9 25l97 115h112z" />
    <glyph glyph-name="Imacron.sc" unicode="&#xf685;" horiz-adv-x="315" 
d="M225 432v-314l70 -16v-102h-275v102l70 16v314l-70 16v102h275v-102zM35 616v83h245v-83h-245z" />
    <glyph glyph-name="Iogonek.sc" unicode="&#xf686;" horiz-adv-x="315" 
d="M315 -141l8 -61q-27 -10 -68 -10q-108 0 -108 81q0 61 77 129v2h-204v102l70 16v314l-70 16v102h275v-102l-70 -16v-314l70 -16v-102q-58 -77 -58 -109q0 -36 43 -36z" />
    <glyph glyph-name="Jcircumflex.sc" unicode="&#xf688;" horiz-adv-x="351" 
d="M271 432v-256q0 -101 -43 -144.5t-128 -43.5q-20 0 -42.5 3t-35.5 5l-12 3l8 98l12 8q25 -5 43 -5q34 0 48.5 21.5t14.5 79.5v231l-80 16v102h275v-102zM257 749l96 -115l-9 -25h-69l-74 62l-75 -62h-69l-9 25l97 115h112z" />
    <glyph glyph-name="Kcommaaccent.sc" unicode="&#xf689;" horiz-adv-x="601" 
d="M225 432v-106h61l130 224h145v-102l-70 -16l-83 -146l103 -168l70 -16v-102h-251v102l34 11l-73 115h-66v-110l55 -16v-102h-260v102l70 16v314l-70 16v102h270v-102zM221 -117q0 31 20 51.5t50 20.5q31 0 50.5 -20t19.5 -53q0 -44 -39 -103l-53 -79h-41v16l32 97v3
q-39 17 -39 67z" />
    <glyph glyph-name="Lacute.sc" unicode="&#xf68a;" horiz-adv-x="440" 
d="M90 118v314l-70 16v102h275v-102l-70 -16v-320h77l16 80h102v-192h-400v102zM304 750v-43l-115 -97h-76l-9 17l83 123h117z" />
    <glyph glyph-name="Lcaron.sc" unicode="&#xf68b;" horiz-adv-x="464" 
d="M90 118v314l-70 16v102h275v-102l-70 -16v-320h77l16 80h102v-192h-400v102zM320 493q0 28 17.5 46t44.5 18t44.5 -18t17.5 -47q0 -40 -35 -92l-46 -69h-37v14l28 86v3q-34 14 -34 59z" />
    <glyph glyph-name="Lcommaaccent.sc" unicode="&#xf68c;" horiz-adv-x="440" 
d="M90 118v314l-70 16v102h275v-102l-70 -16v-320h77l16 80h102v-192h-400v102zM159 -117q0 31 20 51.5t50 20.5q31 0 50.5 -20t19.5 -53q0 -44 -39 -103l-53 -79h-41v16l32 97v3q-39 17 -39 67z" />
    <glyph glyph-name="Ldot.sc" unicode="&#xf68d;" horiz-adv-x="440" 
d="M90 118v314l-70 16v102h275v-102l-70 -16v-320h77l16 80h102v-192h-400v102zM276 336q0 36 22 58t56 22t56 -22t22 -58q0 -35 -22 -57.5t-56 -22.5q-33 0 -55.5 22.5t-22.5 57.5z" />
    <glyph glyph-name="Nacute.sc" unicode="&#xf68e;" horiz-adv-x="662" 
d="M572 432v-432h-160l-163 301l-24 62l-6 -1l6 -78v-166l60 -16v-102h-265v102l70 16v314l-70 16v102h230l163 -302l23 -61l6 1l-5 77v167l-60 16v102h265v-102zM483 750v-43l-115 -97h-76l-9 17l83 123h117z" />
    <glyph glyph-name="Ncaron.sc" unicode="&#xf68f;" horiz-adv-x="662" 
d="M572 432v-432h-160l-163 301l-24 62l-6 -1l6 -78v-166l60 -16v-102h-265v102l70 16v314l-70 16v102h230l163 -302l23 -61l6 1l-5 77v167l-60 16v102h265v-102zM281 610l-96 115l9 25h69l74 -62l75 62h69l9 -25l-97 -115h-112z" />
    <glyph glyph-name="Ncommaaccent.sc" unicode="&#xf690;" horiz-adv-x="662" 
d="M572 432v-432h-160l-163 301l-24 62l-6 -1l6 -78v-166l60 -16v-102h-265v102l70 16v314l-70 16v102h230l163 -302l23 -61l6 1l-5 77v167l-60 16v102h265v-102zM242 -117q0 31 20 51.5t50 20.5q31 0 50.5 -20t19.5 -53q0 -44 -39 -103l-53 -79h-41v16l32 97v3
q-39 17 -39 67z" />
    <glyph glyph-name="Obreve.sc" unicode="&#xf691;" horiz-adv-x="506" 
d="M247 562h12q211 0 211 -270v-35q0 -269 -211 -269h-12q-211 0 -211 269v35q0 270 211 270zM334 245v59q0 81 -20 115.5t-61 34.5t-61 -34.5t-20 -115.5v-59q0 -80 20 -115t61 -35t61 35t20 115zM318 754h82q0 -144 -146 -144q-145 0 -145 144h83q0 -24 15.5 -43t46.5 -19
q32 0 48 19t16 43z" />
    <glyph glyph-name="Ohungarumlaut.sc" unicode="&#xf692;" horiz-adv-x="506" 
d="M247 562h12q211 0 211 -270v-35q0 -269 -211 -269h-12q-211 0 -211 269v35q0 270 211 270zM334 245v59q0 81 -20 115.5t-61 34.5t-61 -34.5t-20 -115.5v-59q0 -80 20 -115t61 -35t61 35t20 115zM455 749v-43l-105 -97h-46l-9 17l65 123h95zM291 749v-43l-105 -97h-46
l-9 17l65 123h95z" />
    <glyph glyph-name="Omacron.sc" unicode="&#xf693;" horiz-adv-x="506" 
d="M247 562h12q211 0 211 -270v-35q0 -269 -211 -269h-12q-211 0 -211 269v35q0 270 211 270zM334 245v59q0 81 -20 115.5t-61 34.5t-61 -34.5t-20 -115.5v-59q0 -80 20 -115t61 -35t61 35t20 115zM128 620v83h245v-83h-245z" />
    <glyph glyph-name="Oslashacute.sc" unicode="&#xf694;" horiz-adv-x="506" 
d="M247 562h12q61 0 102 -22l30 54l65 -36l-37 -67q51 -67 51 -199v-35q0 -269 -211 -269h-12q-54 0 -95 18l-29 -54l-65 36l34 63q-56 68 -56 206v35q0 270 211 270zM200 247l104 189q-18 18 -51 18q-41 0 -61 -34.5t-20 -115.5v-59q0 -33 1 -46h6zM334 245v59q0 7 -0.5 19
t-0.5 17h-5l-16 -44l-104 -189q16 -12 45 -12q41 0 61 35t20 115zM395 749v-43l-115 -97h-76l-9 17l83 123h117z" />
    <glyph glyph-name="Racute.sc" unicode="&#xf695;" horiz-adv-x="561" 
d="M90 118v314l-70 16v102h273q112 0 164 -48t51 -126v-4q0 -112 -95 -140v-4q19 -11 36 -46l28 -65l64 -15v-102h-159l-72 167q-7 18 -18 25.5t-33 7.5h-34v-82l60 -16v-102h-265v102zM279 438h-54v-140h58q48 0 69 15.5t21 48.5v4q0 38 -22.5 55t-71.5 17zM414 749v-43
l-115 -97h-76l-9 17l83 123h117z" />
    <glyph glyph-name="Rcaron.sc" unicode="&#xf696;" horiz-adv-x="561" 
d="M90 118v314l-70 16v102h273q112 0 164 -48t51 -126v-4q0 -112 -95 -140v-4q19 -11 36 -46l28 -65l64 -15v-102h-159l-72 167q-7 18 -18 25.5t-33 7.5h-34v-82l60 -16v-102h-265v102zM279 438h-54v-140h58q48 0 69 15.5t21 48.5v4q0 38 -22.5 55t-71.5 17zM205 610
l-96 115l9 25h69l74 -62l75 62h69l9 -25l-97 -115h-112z" />
    <glyph glyph-name="Rcommaaccent.sc" unicode="&#xf697;" horiz-adv-x="561" 
d="M90 118v314l-70 16v102h273q112 0 164 -48t51 -126v-4q0 -112 -95 -140v-4q19 -11 36 -46l28 -65l64 -15v-102h-159l-72 167q-7 18 -18 25.5t-33 7.5h-34v-82l60 -16v-102h-265v102zM279 438h-54v-140h58q48 0 69 15.5t21 48.5v4q0 38 -22.5 55t-71.5 17zM225 -117
q0 31 20 51.5t50 20.5q31 0 50.5 -20t19.5 -53q0 -44 -39 -103l-53 -79h-41v16l32 97v3q-39 17 -39 67z" />
    <glyph glyph-name="Sacute.sc" unicode="&#xf698;" horiz-adv-x="439" 
d="M39 7v158h97l12 -64q10 -1 32 -1q54 0 77.5 15t23.5 46q0 42 -63 59l-74 21q-121 35 -121 148q0 173 225 173q32 0 65.5 -5t50.5 -10l18 -5v-157h-97l-12 64q-6 1 -17 1q-98 0 -98 -58q0 -22 13 -33.5t40 -19.5l73 -21q132 -37 132 -151q0 -179 -225 -179q-76 0 -152 19z
M381 750v-43l-115 -97h-76l-9 17l83 123h117z" />
    <glyph glyph-name="Scedilla.sc" unicode="&#xf699;" horiz-adv-x="439" 
d="M144 -203l7 56q30 -5 54 -5q46 0 46 27q0 21 -28 21h-55l13 92q-75 2 -142 19v158h97l12 -64q10 -1 32 -1q54 0 77.5 15t23.5 46q0 42 -63 59l-74 21q-121 35 -121 148q0 173 225 173q32 0 65.5 -5t50.5 -10l18 -5v-157h-97l-12 64q-6 1 -17 1q-98 0 -98 -58
q0 -22 13 -33.5t40 -19.5l73 -21q132 -37 132 -151q0 -154 -167 -175l-1 -44h16q77 0 77 -73q0 -87 -111 -87q-20 0 -41.5 2t-32.5 4z" />
    <glyph glyph-name="Scircumflex.sc" unicode="&#xf69a;" horiz-adv-x="439" 
d="M39 7v158h97l12 -64q10 -1 32 -1q54 0 77.5 15t23.5 46q0 42 -63 59l-74 21q-121 35 -121 148q0 173 225 173q32 0 65.5 -5t50.5 -10l18 -5v-157h-97l-12 64q-6 1 -17 1q-98 0 -98 -58q0 -22 13 -33.5t40 -19.5l73 -21q132 -37 132 -151q0 -179 -225 -179q-76 0 -152 19z
M288 750l96 -115l-9 -25h-69l-74 62l-75 -62h-69l-9 25l97 115h112z" />
    <glyph glyph-name="Scommaaccent.sc" unicode="&#xf69b;" horiz-adv-x="439" 
d="M39 7v158h97l12 -64q10 -1 32 -1q54 0 77.5 15t23.5 46q0 42 -63 59l-74 21q-121 35 -121 148q0 173 225 173q32 0 65.5 -5t50.5 -10l18 -5v-157h-97l-12 64q-6 1 -17 1q-98 0 -98 -58q0 -22 13 -33.5t40 -19.5l73 -21q132 -37 132 -151q0 -179 -225 -179q-76 0 -152 19z
M158 -117q0 32 19.5 52t50.5 20q30 0 50 -20t20 -53q0 -45 -40 -104l-52 -78h-41v16l31 97v3q-38 17 -38 67z" />
    <glyph glyph-name="Tcaron.sc" unicode="&#xf69d;" horiz-adv-x="491" 
d="M178 118v320h-58l-13 -73h-87v185h451v-185h-87l-13 73h-58v-320l85 -16v-102h-305v102zM191 610l-96 115l9 25h69l74 -62l75 62h69l9 -25l-97 -115h-112z" />
    <glyph glyph-name="Tcommaaccent.sc" unicode="&#xf69e;" horiz-adv-x="491" 
d="M178 118v320h-58l-13 -73h-87v185h451v-185h-87l-13 73h-58v-320l85 -16v-102h-305v102zM175 -117q0 31 20 51.5t50 20.5q31 0 50.5 -20t19.5 -53q0 -44 -39 -103l-53 -79h-41v16l32 97v3q-39 17 -39 67z" />
    <glyph glyph-name="Ubreve.sc" unicode="&#xf69f;" horiz-adv-x="600" 
d="M220 432v-236q0 -96 80 -96t80 96v236l-55 16v102h255v-102l-65 -16v-227q0 -217 -207 -217h-16q-207 0 -207 217v227l-65 16v102h255v-102zM363 754h82q0 -144 -146 -144q-145 0 -145 144h83q0 -24 15.5 -43t46.5 -19q32 0 48 19t16 43z" />
    <glyph glyph-name="Uhungarumlaut.sc" unicode="&#xf6a0;" horiz-adv-x="600" 
d="M220 432v-236q0 -96 80 -96t80 96v236l-55 16v102h255v-102l-65 -16v-227q0 -217 -207 -217h-16q-207 0 -207 217v227l-65 16v102h255v-102zM500 749v-43l-105 -97h-46l-9 17l65 123h95zM336 749v-43l-105 -97h-46l-9 17l65 123h95z" />
    <glyph glyph-name="Umacron.sc" unicode="&#xf6a1;" horiz-adv-x="600" 
d="M220 432v-236q0 -96 80 -96t80 96v236l-55 16v102h255v-102l-65 -16v-227q0 -217 -207 -217h-16q-207 0 -207 217v227l-65 16v102h255v-102zM177 618v83h245v-83h-245z" />
    <glyph glyph-name="Uogonek.sc" unicode="&#xf6a2;" horiz-adv-x="600" 
d="M411 -141l8 -61q-27 -10 -68 -10q-108 0 -108 81q0 57 63 117v2h-14q-207 0 -207 217v227l-65 16v102h255v-102l-55 -16v-236q0 -96 80 -96t80 96v236l-55 16v102h255v-102l-65 -16v-227q0 -167 -125 -205q-57 -75 -57 -109q0 -36 43 -36z" />
    <glyph glyph-name="Uring.sc" unicode="&#xf6a3;" horiz-adv-x="600" 
d="M220 432v-236q0 -96 80 -96t80 96v236l-55 16v102h255v-102l-65 -16v-227q0 -217 -207 -217h-16q-207 0 -207 217v227l-65 16v102h255v-102zM182 710q0 45 32 74t86 29t85.5 -29t31.5 -74t-31.5 -74t-85.5 -29t-86 29t-32 74zM257 710q0 -18 12 -29.5t31 -11.5t30.5 11.5
t11.5 29.5t-11.5 29.5t-30.5 11.5t-31 -11.5t-12 -29.5z" />
    <glyph glyph-name="Utilde.sc" unicode="&#xf6a4;" horiz-adv-x="600" 
d="M220 432v-236q0 -96 80 -96t80 96v236l-55 16v102h255v-102l-65 -16v-227q0 -217 -207 -217h-16q-207 0 -207 217v227l-65 16v102h255v-102zM421 758l61 -19q-31 -130 -116 -130q-30 0 -70.5 29.5t-56.5 29.5q-38 0 -60 -59l-61 19q29 130 121 130q31 0 72 -29.5
t55 -29.5q33 0 55 59z" />
    <glyph glyph-name="Wacute.sc" unicode="&#xf6a5;" horiz-adv-x="804" 
d="M334 0h-159l-91 432l-64 16v102h245v-102l-45 -16l32 -149l17 -107h7q11 68 19 102l62 272h90l62 -272l19 -102h7l17 107l31 149l-44 16v102h245v-102l-65 -16l-90 -432h-159l-54 237l-11 83h-6q-7 -66 -11 -83zM558 750v-43l-115 -97h-76l-9 17l83 123h117z" />
    <glyph glyph-name="Wcircumflex.sc" unicode="&#xf6a6;" horiz-adv-x="804" 
d="M334 0h-159l-91 432l-64 16v102h245v-102l-45 -16l32 -149l17 -107h7q11 68 19 102l62 272h90l62 -272l19 -102h7l17 107l31 149l-44 16v102h245v-102l-65 -16l-90 -432h-159l-54 237l-11 83h-6q-7 -66 -11 -83zM459 750l96 -115l-9 -25h-69l-74 62l-75 -62h-69l-9 25
l97 115h112z" />
    <glyph glyph-name="Wdieresis.sc" unicode="&#xf6a7;" horiz-adv-x="804" 
d="M334 0h-159l-91 432l-64 16v102h245v-102l-45 -16l32 -149l17 -107h7q11 68 19 102l62 272h90l62 -272l19 -102h7l17 107l31 149l-44 16v102h245v-102l-65 -16l-90 -432h-159l-54 237l-11 83h-6q-7 -66 -11 -83zM247 672q0 26 17.5 43t42.5 17t42 -17.5t17 -42.5
q0 -26 -17 -43.5t-42 -17.5q-26 0 -43 17.5t-17 43.5zM435 672q0 26 17.5 43t42.5 17t42 -17.5t17 -42.5q0 -26 -17 -43.5t-42 -17.5q-26 0 -43 17.5t-17 43.5z" />
    <glyph glyph-name="Wgrave.sc" unicode="&#xf6a8;" horiz-adv-x="804" 
d="M334 0h-159l-91 432l-64 16v102h245v-102l-45 -16l32 -149l17 -107h7q11 68 19 102l62 272h90l62 -272l19 -102h7l17 107l31 149l-44 16v102h245v-102l-65 -16l-90 -432h-159l-54 237l-11 83h-6q-7 -66 -11 -83zM254 706v43h117l83 -123l-9 -17h-76z" />
    <glyph glyph-name="Ycircumflex.sc" unicode="&#xf6a9;" horiz-adv-x="549" 
d="M207 118v84l-124 230l-63 16v102h225v-102l-31 -10l27 -52l30 -84h7q18 59 30 84l27 52l-31 10v102h225v-102l-63 -16l-124 -231v-83l70 -16v-102h-275v102zM331 749l96 -115l-9 -25h-69l-74 62l-75 -62h-69l-9 25l97 115h112z" />
    <glyph glyph-name="Ygrave.sc" unicode="&#xf6aa;" horiz-adv-x="549" 
d="M207 118v84l-124 230l-63 16v102h225v-102l-31 -10l27 -52l30 -84h7q18 59 30 84l27 52l-31 10v102h225v-102l-63 -16l-124 -231v-83l70 -16v-102h-275v102zM129 706v43h117l83 -123l-9 -17h-76z" />
    <glyph glyph-name="Zacute.sc" unicode="&#xf6ab;" horiz-adv-x="429" 
d="M263 438h-117l-12 -63h-102v175h375v-111l-194 -276q-8 -11 -19.5 -23t-19.5 -18l-7 -6v-4h124l14 68h102v-180h-385v109l190 268q7 9 19.5 22.5t22.5 22.5l9 8v8zM358 749v-43l-115 -97h-76l-9 17l83 123h117z" />
    <glyph glyph-name="Zdotaccent.sc" unicode="&#xf6ac;" horiz-adv-x="429" 
d="M263 438h-117l-12 -63h-102v175h375v-111l-194 -276q-8 -11 -19.5 -23t-19.5 -18l-7 -6v-4h124l14 68h102v-180h-385v109l190 268q7 9 19.5 22.5t22.5 22.5l9 8v8zM157 677q0 28 18.5 46t45.5 18t45 -18t18 -46t-18 -46.5t-45 -18.5t-45.5 18.5t-18.5 46.5z" />
    <glyph glyph-name="Idotaccent.sc" unicode="&#xf6ad;" horiz-adv-x="315" 
d="M225 432v-314l70 -16v-102h-275v102l70 16v314l-70 16v102h275v-102zM94 684q0 28 18.5 46t45.5 18t45 -18t18 -46t-18 -46.5t-45 -18.5t-45.5 18.5t-18.5 46.5z" />
    <glyph glyph-name="Germandbls.sc" unicode="&#xf6be;" horiz-adv-x="862" 
d="M462 7v158h97l12 -64q10 -1 32 -1q54 0 77.5 15t23.5 46q0 42 -63 59l-74 21q-121 35 -121 148q0 173 225 173q32 0 65.5 -5t51.5 -10l17 -5v-157h-97l-12 64q-6 1 -17 1q-98 0 -98 -58q0 -22 13 -33.5t40 -19.5l73 -21q132 -37 132 -151q0 -179 -225 -179q-76 0 -152 19
zM39 7v158h97l12 -64q10 -1 32 -1q54 0 77.5 15t23.5 46q0 42 -63 59l-74 21q-121 35 -121 148q0 173 225 173q32 0 65.5 -5t50.5 -10l18 -5v-157h-97l-12 64q-6 1 -17 1q-98 0 -98 -58q0 -22 13 -33.5t40 -19.5l73 -21q132 -37 132 -151q0 -179 -225 -179q-76 0 -152 19z
" />
    <glyph glyph-name="commaaccent" unicode="&#xf6c3;" horiz-adv-x="220" 
d="M31 -130q0 35 22 57.5t56 22.5t56 -22.5t22 -58.5q0 -48 -44 -115l-58 -87h-46v18l35 107v4q-43 19 -43 74z" />
    <glyph glyph-name="dblgrave" unicode="&#xf6d6;" horiz-adv-x="470" 
d="M40 677v43h95l65 -123l-9 -17h-46zM207 677v43h95l65 -123l-9 -17h-46z" />
    <glyph glyph-name="one.tb" unicode="&#xf6dc;" 
d="M80 461v72l177 127h80v-548h113v-112h-380v112h132v381l-3 2l-48 -34h-71z" />
    <glyph glyph-name="rupiah" unicode="&#xf6dd;" horiz-adv-x="1030" 
d="M227 538h-40v-184h51q50 0 72 18t22 62v10q0 52 -23.5 73t-81.5 21zM488 0h-143l-87 229q-10 27 -35 27h-36v-256h-135v650h196q219 0 219 -196v-16q0 -120 -98 -160v-3q20 -12 35 -53zM693 -200h-135v720h80l34 -53q67 65 146 65q170 0 170 -259v-33q0 -126 -46.5 -189
t-123.5 -63q-72 0 -123 45h-2v-233zM853 251v18q0 84 -19 117.5t-61 33.5q-11 0 -22 -2t-20.5 -5t-16.5 -5.5t-13.5 -5.5t-7.5 -3v-279q48 -24 72 -24q45 0 66.5 36.5t21.5 118.5z" />
    <glyph glyph-name="Lslash.sc" unicode="&#xf6f9;" horiz-adv-x="440" 
d="M28 178v90l62 22v142l-70 16v102h275v-102l-70 -16v-94l95 34v-90l-95 -34v-136h77l16 80h102v-192h-400v102l70 16v82z" />
    <glyph glyph-name="OE.sc" unicode="&#xf6fa;" horiz-adv-x="694" 
d="M247 562h12q43 0 79 -12h326v-165h-92l-16 53h-104l-3 -3q17 -48 20 -110h135v-98h-135q-3 -62 -20 -112l4 -3h113l16 53h92v-165h-337q-35 -12 -78 -12h-12q-211 0 -211 269v35q0 270 211 270zM334 245v59q0 81 -20 115.5t-61 34.5t-61 -34.5t-20 -115.5v-59
q0 -80 20 -115t61 -35t61 35t20 115z" />
    <glyph glyph-name="Scaron.sc" unicode="&#xf6fd;" horiz-adv-x="439" 
d="M39 7v158h97l12 -64q10 -1 32 -1q54 0 77.5 15t23.5 46q0 42 -63 59l-74 21q-121 35 -121 148q0 173 225 173q32 0 65.5 -5t50.5 -10l18 -5v-157h-97l-12 64q-6 1 -17 1q-98 0 -98 -58q0 -22 13 -33.5t40 -19.5l73 -21q132 -37 132 -151q0 -179 -225 -179q-76 0 -152 19z
M172 610l-96 115l9 25h69l74 -62l75 62h69l9 -25l-97 -115h-112z" />
    <glyph glyph-name="Zcaron.sc" unicode="&#xf6ff;" horiz-adv-x="429" 
d="M263 438h-117l-12 -63h-102v175h375v-111l-194 -276q-8 -11 -19.5 -23t-19.5 -18l-7 -6v-4h124l14 68h102v-180h-385v109l190 268q7 9 19.5 22.5t22.5 22.5l9 8v8zM170 609l-96 115l9 25h69l74 -62l75 62h69l9 -25l-97 -115h-112z" />
    <glyph glyph-name="exclam.sc" unicode="&#xf721;" horiz-adv-x="256" 
d="M119 582h18q34 0 47 -12.5t13 -39.5v-115l-31 -192h-75l-32 192v115q0 26 13.5 39t46.5 13zM50 67q0 34 22 55.5t56 21.5t56 -21.5t22 -55.5t-22 -55.5t-56 -21.5t-56 21.5t-22 55.5z" />
    <glyph glyph-name="ampersand.sc" unicode="&#xf726;" horiz-adv-x="628" 
d="M613 0h-170l-37 35q-57 -47 -168 -47q-97 0 -150 42.5t-53 114.5q0 102 97 150v6q-62 52 -62 114q0 65 51 106t140 41q92 0 141.5 -40.5t49.5 -105.5q0 -47 -25 -79t-90 -70l36 -35q12 -11 22 -23.5t14 -18.5l4 -7l5 1q3 19 3 52v31h170v-87l-59 -15q-7 -34 -26 -62z
M261 94q41 0 66 18l-119 115q-38 -28 -38 -65q0 -32 24 -50t67 -18zM205 415q0 -20 28 -47l35 -35q35 26 45.5 40t10.5 37q0 21 -15.5 33.5t-45.5 12.5q-28 0 -43 -11t-15 -30z" />
    <glyph glyph-name="zerooldstyle" unicode="&#xf730;" horiz-adv-x="550" 
d="M269 532h12q103 0 171 -67.5t68 -195.5v-19q0 -128 -68 -195t-171 -67h-13q-103 0 -170.5 67t-67.5 195v19q0 128 68 195.5t171 67.5zM384 242v36q0 67 -30 104.5t-79 37.5q-50 0 -79.5 -37t-29.5 -105v-36q0 -67 29.5 -104.5t79.5 -37.5q49 0 79 37.5t30 104.5z" />
    <glyph glyph-name="oneoldstyle" unicode="&#xf731;" horiz-adv-x="302" 
d="M20 348v63l145 109h80v-520h-135v348h-90z" />
    <glyph glyph-name="twooldstyle" unicode="&#xf732;" horiz-adv-x="475" 
d="M433 352q0 -60 -29 -100.5t-87 -82.5l-81 -59l2 -6l50 8h145v-112h-400v101l149 114q42 32 56.5 43.5t32.5 30t22.5 30.5t4.5 29q0 72 -103 72q-20 0 -38 -3l-16 -92h-97v166q71 41 176 41q99 0 156 -48t57 -132z" />
    <glyph glyph-name="threeoldstyle" unicode="&#xf733;" horiz-adv-x="454" 
d="M419 67v-9q0 -90 -60.5 -145t-167.5 -55q-43 0 -84.5 8.5t-61.5 16t-20 8.5l10 93l13 6q65 -20 114 -20q62 0 92 26.5t30 67.5v5q0 83 -112 83h-83v98h96q38 0 62 23t24 64v5q0 35 -25 56.5t-78 21.5l-31 -3l-16 -82h-87v161q67 36 164 36q98 0 149.5 -48t51.5 -120v-9
q0 -92 -69 -137v-3q89 -45 89 -148z" />
    <glyph glyph-name="fouroldstyle" unicode="&#xf734;" horiz-adv-x="487" 
d="M22 112l162 408h140l-162 -408h115l35 185h100v-185h65v-112h-65v-130h-135v130h-255v112z" />
    <glyph glyph-name="fiveoldstyle" unicode="&#xf735;" horiz-adv-x="472" 
d="M429 106v-32q0 -106 -52.5 -161t-154.5 -55q-44 0 -87.5 8.5t-65.5 16.5t-22 9l11 94l12 6q74 -22 123 -22q53 0 77 26.5t24 79.5v14q0 83 -84 83q-20 0 -40 -6.5t-30 -12.5l-10 -6l-81 18l20 354h320v-160h-97l-10 48h-85l-8 -143h2q34 17 77 17q79 0 120 -44.5
t41 -131.5z" />
    <glyph glyph-name="sixoldstyle" unicode="&#xf736;" horiz-adv-x="510" 
d="M302 652q28 0 58 -5t46 -9l15 -5v-153h-97l-12 60q-70 -1 -102 -38.5t-35 -122.5h2q58 41 130 41q79 0 121 -51t42 -135v-28q0 -102 -52.5 -160t-160.5 -58q-217 0 -217 285v60q0 158 67 238.5t195 80.5zM258 308q-41 0 -83 -24v-36q0 -83 21 -115.5t61 -32.5
q36 0 57 25.5t21 71.5v25q0 86 -77 86z" />
    <glyph glyph-name="sevenoldstyle" unicode="&#xf737;" horiz-adv-x="445" 
d="M291 408h-161l-16 -88h-92v200h410v-113l-226 -537h-147l232 529v9z" />
    <glyph glyph-name="eightoldstyle" unicode="&#xf738;" horiz-adv-x="526" 
d="M40 162q0 108 92 156v4q-80 55 -80 143q0 92 56.5 139.5t154.5 47.5q97 0 154 -43.5t57 -126.5q0 -94 -88 -138v-6q100 -54 100 -156q0 -194 -223 -194q-100 0 -161.5 41.5t-61.5 132.5zM288 248l-53 22q-60 -37 -60 -95q0 -34 23 -54.5t65 -20.5q43 0 65.5 19t22.5 53
q0 26 -13 43.5t-50 32.5zM179 475q0 -41 64 -70l47 -20q57 47 57 90q0 29 -21.5 47t-62.5 18q-40 0 -62 -18t-22 -47z" />
    <glyph glyph-name="nineoldstyle" unicode="&#xf739;" horiz-adv-x="510" 
d="M197 -30h5q127 0 133 168l-3 1q-61 -39 -129 -39q-79 0 -121 50t-42 135v30q0 101 58.5 159t156.5 58q105 0 160 -68.5t55 -192.5v-86q0 -170 -65 -248.5t-198 -78.5q-28 0 -57.5 5t-45.5 9l-15 5v153h97zM251 212q45 0 84 21v35q0 83 -19.5 117.5t-60.5 34.5
q-37 0 -58.5 -27t-21.5 -74v-18q0 -89 76 -89z" />
    <glyph glyph-name="question.sc" unicode="&#xf73f;" horiz-adv-x="402" 
d="M367 412v-3q0 -87 -70 -127l-43 -25q-18 -11 -24 -23t-6 -34h-135v51q0 35 14 50t66 41q38 19 50.5 31t12.5 31q0 46 -76 46q-19 0 -42 -4t-36 -8l-13 -3l-13 8q-6 40 -11 94q62 25 142 25q94 0 139 -40.5t45 -109.5zM78 67q0 34 22 55.5t56 21.5t56 -21.5t22 -55.5
t-22 -55.5t-56 -21.5t-56 21.5t-22 55.5z" />
    <glyph glyph-name="A.sc" unicode="&#xf761;" horiz-adv-x="606" 
d="M85 118l87 314l-55 16v102h284l120 -432l65 -16v-102h-250v102l51 13l-14 53h-141l-13 -53l51 -13v-102h-250v102zM275 337l-20 -77h95l-19 77l-22 101h-12q-15 -73 -22 -101z" />
    <glyph glyph-name="B.sc" unicode="&#xf762;" horiz-adv-x="536" 
d="M90 118v314l-70 16v102h272q193 0 193 -148v-6q0 -87 -73 -111v-3q93 -26 93 -129v-6q0 -63 -38.5 -105t-126.5 -42h-320v102zM293 235h-68v-135h83q62 0 62 61v12q0 62 -77 62zM276 450h-51v-130h68q57 0 57 57v13q0 31 -16.5 45.5t-57.5 14.5z" />
    <glyph glyph-name="C.sc" unicode="&#xf763;" horiz-adv-x="439" 
d="M298 450h-6q-65 0 -92.5 -44t-27.5 -129v-17q0 -82 29 -121t94 -39q21 0 44.5 4t36.5 8l14 4l11 -4q9 -61 13 -99q-54 -25 -144 -25q-104 0 -169 62t-65 200v29q0 148 64.5 215.5t185.5 67.5q30 0 61.5 -6t47.5 -12l16 -6v-173h-97z" />
    <glyph glyph-name="D.sc" unicode="&#xf764;" horiz-adv-x="546" 
d="M90 118v314l-70 16v102h262q108 0 168 -58t60 -175v-120q0 -197 -218 -197h-272v102zM258 438h-33v-326h56q46 0 70 24t24 84v84q0 78 -28 106t-89 28z" />
    <glyph glyph-name="E.sc" unicode="&#xf765;" horiz-adv-x="460" 
d="M322 438h-97v-113h145v-98h-145v-115h107l16 53h92v-165h-420v102l70 16v314l-70 16v102h410v-165h-92z" />
    <glyph glyph-name="F.sc" unicode="&#xf766;" horiz-adv-x="450" 
d="M322 438h-97v-127h148v-105h-148v-88l75 -16v-102h-280v102l70 16v314l-70 16v102h410v-165h-92z" />
    <glyph glyph-name="G.sc" unicode="&#xf767;" horiz-adv-x="485" 
d="M322 450h-17q-73 0 -103 -40.5t-30 -132.5v-21q0 -85 23.5 -120.5t72.5 -35.5q12 0 24 3.5t19.5 8t8.5 4.5v71l-60 16v92h195v-295h-72l-18 33h-2q-57 -45 -123 -45q-204 0 -204 266v29q0 147 67 213t198 66q33 0 66.5 -6t50.5 -12l17 -6v-168h-97z" />
    <glyph glyph-name="H.sc" unicode="&#xf768;" horiz-adv-x="620" 
d="M530 432v-314l70 -16v-102h-260v102l55 16v97h-170v-97l55 -16v-102h-260v102l70 16v314l-70 16v102h260v-102l-55 -16v-105h170v105l-55 16v102h260v-102z" />
    <glyph glyph-name="I.sc" unicode="&#xf769;" horiz-adv-x="315" 
d="M225 432v-314l70 -16v-102h-275v102l70 16v314l-70 16v102h275v-102z" />
    <glyph glyph-name="J.sc" unicode="&#xf76a;" horiz-adv-x="351" 
d="M271 432v-256q0 -101 -43 -144.5t-128 -43.5q-20 0 -42.5 3t-35.5 5l-12 3l8 98l12 8q25 -5 43 -5q34 0 48.5 21.5t14.5 79.5v231l-80 16v102h275v-102z" />
    <glyph glyph-name="K.sc" unicode="&#xf76b;" horiz-adv-x="601" 
d="M225 432v-106h61l130 224h145v-102l-70 -16l-83 -146l103 -168l70 -16v-102h-251v102l34 11l-73 115h-66v-110l55 -16v-102h-260v102l70 16v314l-70 16v102h270v-102z" />
    <glyph glyph-name="L.sc" unicode="&#xf76c;" horiz-adv-x="440" 
d="M90 118v314l-70 16v102h275v-102l-70 -16v-320h77l16 80h102v-192h-400v102z" />
    <glyph glyph-name="M.sc" unicode="&#xf76d;" horiz-adv-x="780" 
d="M90 118v314l-70 16v102h259l93 -246l15 -51h6q7 29 15 51l93 246h259v-102l-70 -16v-314l70 -16v-102h-265v102l60 16v119l3 163l-7 1q-32 -108 -41 -131l-93 -253h-54l-93 253l-41 131l-7 -1q3 -112 3 -163v-119l60 -16v-102h-265v102z" />
    <glyph glyph-name="N.sc" unicode="&#xf76e;" horiz-adv-x="662" 
d="M572 432v-432h-160l-163 301l-24 62l-6 -1l6 -78v-166l60 -16v-102h-265v102l70 16v314l-70 16v102h230l163 -302l23 -61l6 1l-5 77v167l-60 16v102h265v-102z" />
    <glyph glyph-name="O.sc" unicode="&#xf76f;" horiz-adv-x="506" 
d="M247 562h12q211 0 211 -270v-35q0 -269 -211 -269h-12q-211 0 -211 269v35q0 270 211 270zM334 245v59q0 81 -20 115.5t-61 34.5t-61 -34.5t-20 -115.5v-59q0 -80 20 -115t61 -35t61 35t20 115z" />
    <glyph glyph-name="P.sc" unicode="&#xf770;" horiz-adv-x="510" 
d="M90 118v314l-70 16v102h267q203 0 203 -187v-11q0 -82 -46 -126t-132 -44h-87v-64l90 -16v-102h-295v102zM264 438h-39v-158h52q78 0 78 69v7q0 82 -91 82z" />
    <glyph glyph-name="Q.sc" unicode="&#xf771;" horiz-adv-x="506" 
d="M247 562h12q211 0 211 -270v-35q0 -155 -71 -221l45 -87l-97 -49l-47 91q-20 -3 -41 -3h-12q-211 0 -211 269v35q0 270 211 270zM334 245v59q0 81 -20 115.5t-61 34.5t-61 -34.5t-20 -115.5v-59q0 -80 20 -115t61 -35t61 35t20 115z" />
    <glyph glyph-name="R.sc" unicode="&#xf772;" horiz-adv-x="561" 
d="M90 118v314l-70 16v102h273q112 0 164 -48t51 -126v-4q0 -112 -95 -140v-4q19 -11 36 -46l28 -65l64 -15v-102h-159l-72 167q-7 18 -18 25.5t-33 7.5h-34v-82l60 -16v-102h-265v102zM279 438h-54v-140h58q48 0 69 15.5t21 48.5v4q0 38 -22.5 55t-71.5 17z" />
    <glyph glyph-name="S.sc" unicode="&#xf773;" horiz-adv-x="439" 
d="M39 7v158h97l12 -64q10 -1 32 -1q54 0 77.5 15t23.5 46q0 42 -63 59l-74 21q-121 35 -121 148q0 173 225 173q32 0 65.5 -5t50.5 -10l18 -5v-157h-97l-12 64q-6 1 -17 1q-98 0 -98 -58q0 -22 13 -33.5t40 -19.5l73 -21q132 -37 132 -151q0 -179 -225 -179q-76 0 -152 19z
" />
    <glyph glyph-name="T.sc" unicode="&#xf774;" horiz-adv-x="491" 
d="M178 118v320h-58l-13 -73h-87v185h451v-185h-87l-13 73h-58v-320l85 -16v-102h-305v102z" />
    <glyph glyph-name="U.sc" unicode="&#xf775;" horiz-adv-x="600" 
d="M220 432v-236q0 -96 80 -96t80 96v236l-55 16v102h255v-102l-65 -16v-227q0 -217 -207 -217h-16q-207 0 -207 217v227l-65 16v102h255v-102z" />
    <glyph glyph-name="V.sc" unicode="&#xf776;" horiz-adv-x="604" 
d="M327 223l55 209l-48 16v102h250v-102l-65 -16l-115 -432h-204l-116 432l-64 16v102h250v-102l-48 -16l55 -209l20 -103h10q12 71 20 103z" />
    <glyph glyph-name="W.sc" unicode="&#xf777;" horiz-adv-x="804" 
d="M334 0h-159l-91 432l-64 16v102h245v-102l-45 -16l32 -149l17 -107h7q11 68 19 102l62 272h90l62 -272l19 -102h7l17 107l31 149l-44 16v102h245v-102l-65 -16l-90 -432h-159l-54 237l-11 83h-6q-7 -66 -11 -83z" />
    <glyph glyph-name="X.sc" unicode="&#xf778;" horiz-adv-x="556" 
d="M25 550h220v-102l-18 -6l22 -45l26 -68h6q17 46 26 68l22 45l-18 6v102h220v-102l-64 -16l-75 -150l79 -166l65 -14v-102h-225v102l21 7l-28 60l-23 59h-6q-14 -40 -23 -59l-28 -60l21 -7v-102h-225v102l64 14l80 166l-75 150l-64 16v102z" />
    <glyph glyph-name="Y.sc" unicode="&#xf779;" horiz-adv-x="549" 
d="M207 118v84l-124 230l-63 16v102h225v-102l-31 -10l27 -52l30 -84h7q18 59 30 84l27 52l-31 10v102h225v-102l-63 -16l-124 -231v-83l70 -16v-102h-275v102z" />
    <glyph glyph-name="Z.sc" unicode="&#xf77a;" horiz-adv-x="429" 
d="M263 438h-117l-12 -63h-102v175h375v-111l-194 -276q-8 -11 -19.5 -23t-19.5 -18l-7 -6v-4h124l14 68h102v-180h-385v109l190 268q7 9 19.5 22.5t22.5 22.5l9 8v8z" />
    <glyph glyph-name="exclamdown.sc" unicode="&#xf7a1;" horiz-adv-x="256" 
d="M137 -92h-18q-34 0 -47 12.5t-13 39.5v115l31 192h75l32 -192v-115q0 -26 -13.5 -39t-46.5 -13zM206 423q0 -34 -22 -55.5t-56 -21.5t-56 21.5t-22 55.5t22 55.5t56 21.5t56 -21.5t22 -55.5z" />
    <glyph glyph-name="questiondown.sc" unicode="&#xf7bf;" horiz-adv-x="402" 
d="M35 78v3q0 87 70 127l43 25q18 11 24 23t6 34h135v-51q0 -35 -14 -50t-66 -41q-38 -19 -50.5 -31t-12.5 -31q0 -46 76 -46q19 0 42 3.5t36 7.5l13 4l13 -8q6 -40 11 -94q-63 -25 -142 -25q-94 0 -139 40.5t-45 109.5zM324 423q0 -34 -22 -55.5t-56 -21.5t-56 21.5
t-22 55.5t22 55.5t56 21.5t56 -21.5t22 -55.5z" />
    <glyph glyph-name="Agrave.sc" unicode="&#xf7e0;" horiz-adv-x="606" 
d="M85 118l87 314l-55 16v102h284l120 -432l65 -16v-102h-250v102l51 13l-14 53h-141l-13 -53l51 -13v-102h-250v102zM275 337l-20 -77h95l-19 77l-22 101h-12q-15 -73 -22 -101zM166 706v43h117l83 -123l-9 -17h-76z" />
    <glyph glyph-name="Aacute.sc" unicode="&#xf7e1;" horiz-adv-x="606" 
d="M85 118l87 314l-55 16v102h284l120 -432l65 -16v-102h-250v102l51 13l-14 53h-141l-13 -53l51 -13v-102h-250v102zM275 337l-20 -77h95l-19 77l-22 101h-12q-15 -73 -22 -101zM466 750v-43l-115 -97h-76l-9 17l83 123h117z" />
    <glyph glyph-name="Acircumflex.sc" unicode="&#xf7e2;" horiz-adv-x="606" 
d="M85 118l87 314l-55 16v102h284l120 -432l65 -16v-102h-250v102l51 13l-14 53h-141l-13 -53l51 -13v-102h-250v102zM275 337l-20 -77h95l-19 77l-22 101h-12q-15 -73 -22 -101zM360 749l96 -115l-9 -25h-69l-74 62l-75 -62h-69l-9 25l97 115h112z" />
    <glyph glyph-name="Atilde.sc" unicode="&#xf7e3;" horiz-adv-x="606" 
d="M85 118l87 314l-55 16v102h284l120 -432l65 -16v-102h-250v102l51 13l-14 53h-141l-13 -53l51 -13v-102h-250v102zM275 337l-20 -77h95l-19 77l-22 101h-12q-15 -73 -22 -101zM424 758l61 -19q-31 -130 -116 -130q-30 0 -70.5 29.5t-56.5 29.5q-38 0 -60 -59l-61 19
q29 130 121 130q31 0 72 -29.5t55 -29.5q33 0 55 59z" />
    <glyph glyph-name="Adieresis.sc" unicode="&#xf7e4;" horiz-adv-x="606" 
d="M85 118l87 314l-55 16v102h284l120 -432l65 -16v-102h-250v102l51 13l-14 53h-141l-13 -53l51 -13v-102h-250v102zM275 337l-20 -77h95l-19 77l-22 101h-12q-15 -73 -22 -101zM149 672q0 26 17.5 43t42.5 17t42 -17.5t17 -42.5q0 -26 -17 -43.5t-42 -17.5q-26 0 -43 17.5
t-17 43.5zM337 672q0 26 17.5 43t42.5 17t42 -17.5t17 -42.5q0 -26 -17 -43.5t-42 -17.5q-26 0 -43 17.5t-17 43.5z" />
    <glyph glyph-name="Aring.sc" unicode="&#xf7e5;" horiz-adv-x="606" 
d="M85 118l87 314l-55 16v102h284l120 -432l65 -16v-102h-250v102l51 13l-14 53h-141l-13 -53l51 -13v-102h-250v102zM275 337l-20 -77h95l-19 77l-22 101h-12q-15 -73 -22 -101zM185 706q0 45 32 74t86 29t85.5 -29t31.5 -74t-31.5 -74t-85.5 -29t-86 29t-32 74zM260 706
q0 -18 12 -29.5t31 -11.5t30.5 11.5t11.5 29.5t-11.5 29.5t-30.5 11.5t-31 -11.5t-12 -29.5z" />
    <glyph glyph-name="AE.sc" unicode="&#xf7e6;" horiz-adv-x="703" 
d="M333 0v168h-98l-15 -53l50 -13v-102h-250v102l64 16l91 314l-55 16v102h553v-165h-92l-16 53h-97v-113h145v-98h-145v-115h107l16 53h92v-165h-350zM283 338l-22 -78h72v178h-23z" />
    <glyph glyph-name="Ccedilla.sc" unicode="&#xf7e7;" horiz-adv-x="439" 
d="M182 -203l7 56q30 -5 54 -5q46 0 46 27q0 21 -28 21h-55l14 96q-84 13 -134 75.5t-50 182.5v29q0 148 64.5 215.5t185.5 67.5q30 0 61.5 -6t47.5 -12l16 -6v-173h-97l-16 85h-6q-65 0 -92.5 -44t-27.5 -129v-17q0 -82 29 -121t94 -39q21 0 44.5 4t36.5 8l14 4l11 -4
q9 -61 13 -99q-48 -22 -127 -25l-1 -40h16q77 0 77 -73q0 -87 -111 -87q-20 0 -41.5 2t-32.5 4z" />
    <glyph glyph-name="Egrave.sc" unicode="&#xf7e8;" horiz-adv-x="460" 
d="M322 438h-97v-113h145v-98h-145v-115h107l16 53h92v-165h-420v102l70 16v314l-70 16v102h410v-165h-92zM112 707v43h117l83 -123l-9 -17h-76z" />
    <glyph glyph-name="Eacute.sc" unicode="&#xf7e9;" horiz-adv-x="460" 
d="M322 438h-97v-113h145v-98h-145v-115h107l16 53h92v-165h-420v102l70 16v314l-70 16v102h410v-165h-92zM391 750v-43l-115 -97h-76l-9 17l83 123h117z" />
    <glyph glyph-name="Ecircumflex.sc" unicode="&#xf7ea;" horiz-adv-x="460" 
d="M322 438h-97v-113h145v-98h-145v-115h107l16 53h92v-165h-420v102l70 16v314l-70 16v102h410v-165h-92zM311 749l96 -115l-9 -25h-69l-74 62l-75 -62h-69l-9 25l97 115h112z" />
    <glyph glyph-name="Edieresis.sc" unicode="&#xf7eb;" horiz-adv-x="460" 
d="M322 438h-97v-113h145v-98h-145v-115h107l16 53h92v-165h-420v102l70 16v314l-70 16v102h410v-165h-92zM99 672q0 26 17.5 43t42.5 17t42 -17.5t17 -42.5q0 -26 -17 -43.5t-42 -17.5q-26 0 -43 17.5t-17 43.5zM287 672q0 26 17.5 43t42.5 17t42 -17.5t17 -42.5
q0 -26 -17 -43.5t-42 -17.5q-26 0 -43 17.5t-17 43.5z" />
    <glyph glyph-name="Igrave.sc" unicode="&#xf7ec;" horiz-adv-x="315" 
d="M225 432v-314l70 -16v-102h-275v102l70 16v314l-70 16v102h275v-102zM30 706v43h117l83 -123l-9 -17h-76z" />
    <glyph glyph-name="Iacute.sc" unicode="&#xf7ed;" horiz-adv-x="315" 
d="M225 432v-314l70 -16v-102h-275v102l70 16v314l-70 16v102h275v-102zM303 750v-43l-115 -97h-76l-9 17l83 123h117z" />
    <glyph glyph-name="Icircumflex.sc" unicode="&#xf7ee;" horiz-adv-x="315" 
d="M225 432v-314l70 -16v-102h-275v102l70 16v314l-70 16v102h275v-102zM214 749l96 -115l-9 -25h-69l-74 62l-75 -62h-69l-9 25l97 115h112z" />
    <glyph glyph-name="Idieresis.sc" unicode="&#xf7ef;" horiz-adv-x="315" 
d="M225 432v-314l70 -16v-102h-275v102l70 16v314l-70 16v102h275v-102zM4 672q0 26 17 43t43 17q25 0 42 -17.5t17 -42.5q0 -26 -17 -43.5t-42 -17.5q-26 0 -43 17.5t-17 43.5zM192 672q0 26 17 43t43 17q25 0 42 -17.5t17 -42.5q0 -26 -17 -43.5t-42 -17.5q-26 0 -43 17.5
t-17 43.5z" />
    <glyph glyph-name="Eth.sc" unicode="&#xf7f0;" horiz-adv-x="546" 
d="M43 232v98h47v102l-70 16v102h262q108 0 168 -58t60 -175v-120q0 -197 -218 -197h-272v102l70 16v114h-47zM258 438h-33v-108h68v-98h-68v-120h56q46 0 70 24t24 84v84q0 78 -28 106t-89 28z" />
    <glyph glyph-name="Ntilde.sc" unicode="&#xf7f1;" horiz-adv-x="662" 
d="M572 432v-432h-160l-163 301l-24 62l-6 -1l6 -78v-166l60 -16v-102h-265v102l70 16v314l-70 16v102h230l163 -302l23 -61l6 1l-5 77v167l-60 16v102h265v-102zM458 759l61 -19q-31 -130 -116 -130q-30 0 -70.5 29.5t-56.5 29.5q-38 0 -60 -59l-61 19q29 130 121 130
q31 0 72 -29.5t55 -29.5q33 0 55 59z" />
    <glyph glyph-name="Ograve.sc" unicode="&#xf7f2;" horiz-adv-x="506" 
d="M247 562h12q211 0 211 -270v-35q0 -269 -211 -269h-12q-211 0 -211 269v35q0 270 211 270zM334 245v59q0 81 -20 115.5t-61 34.5t-61 -34.5t-20 -115.5v-59q0 -80 20 -115t61 -35t61 35t20 115zM114 707v43h117l83 -123l-9 -17h-76z" />
    <glyph glyph-name="Oacute.sc" unicode="&#xf7f3;" horiz-adv-x="506" 
d="M247 562h12q211 0 211 -270v-35q0 -269 -211 -269h-12q-211 0 -211 269v35q0 270 211 270zM334 245v59q0 81 -20 115.5t-61 34.5t-61 -34.5t-20 -115.5v-59q0 -80 20 -115t61 -35t61 35t20 115zM394 750v-43l-115 -97h-76l-9 17l83 123h117z" />
    <glyph glyph-name="Ocircumflex.sc" unicode="&#xf7f4;" horiz-adv-x="506" 
d="M247 562h12q211 0 211 -270v-35q0 -269 -211 -269h-12q-211 0 -211 269v35q0 270 211 270zM334 245v59q0 81 -20 115.5t-61 34.5t-61 -34.5t-20 -115.5v-59q0 -80 20 -115t61 -35t61 35t20 115zM311 750l96 -115l-9 -25h-69l-74 62l-75 -62h-69l-9 25l97 115h112z" />
    <glyph glyph-name="Otilde.sc" unicode="&#xf7f5;" horiz-adv-x="506" 
d="M374 759l61 -19q-31 -130 -116 -130q-30 0 -70.5 29.5t-56.5 29.5q-38 0 -60 -59l-61 19q29 130 121 130q31 0 72 -29.5t55 -29.5q33 0 55 59zM247 562h12q211 0 211 -270v-35q0 -269 -211 -269h-12q-211 0 -211 269v35q0 270 211 270zM334 245v59q0 81 -20 115.5
t-61 34.5t-61 -34.5t-20 -115.5v-59q0 -80 20 -115t61 -35t61 35t20 115z" />
    <glyph glyph-name="Odieresis.sc" unicode="&#xf7f6;" horiz-adv-x="506" 
d="M247 562h12q211 0 211 -270v-35q0 -269 -211 -269h-12q-211 0 -211 269v35q0 270 211 270zM334 245v59q0 81 -20 115.5t-61 34.5t-61 -34.5t-20 -115.5v-59q0 -80 20 -115t61 -35t61 35t20 115zM104 672q0 26 17 43t43 17q25 0 42 -17.5t17 -42.5q0 -26 -17 -43.5
t-42 -17.5q-26 0 -43 17.5t-17 43.5zM292 672q0 26 17 43t43 17q25 0 42 -17.5t17 -42.5q0 -26 -17 -43.5t-42 -17.5q-26 0 -43 17.5t-17 43.5z" />
    <glyph glyph-name="AEacute.sc" unicode="&#xf7f7;" horiz-adv-x="703" 
d="M333 0v168h-98l-15 -53l50 -13v-102h-250v102l64 16l91 314l-55 16v102h553v-165h-92l-16 53h-97v-113h145v-98h-145v-115h107l16 53h92v-165h-350zM283 338l-22 -78h72v178h-23zM566 749v-43l-115 -97h-76l-9 17l83 123h117z" />
    <glyph glyph-name="Oslash.sc" unicode="&#xf7f8;" horiz-adv-x="506" 
d="M247 562h12q61 0 102 -22l30 54l65 -36l-37 -67q51 -67 51 -199v-35q0 -269 -211 -269h-12q-54 0 -95 18l-29 -54l-65 36l34 63q-56 68 -56 206v35q0 270 211 270zM200 247l104 189q-18 18 -51 18q-41 0 -61 -34.5t-20 -115.5v-59q0 -33 1 -46h6zM334 245v59q0 7 -0.5 19
t-0.5 17h-5l-16 -44l-104 -189q16 -12 45 -12q41 0 61 35t20 115z" />
    <glyph glyph-name="Ugrave.sc" unicode="&#xf7f9;" horiz-adv-x="600" 
d="M220 432v-236q0 -96 80 -96t80 96v236l-55 16v102h255v-102l-65 -16v-227q0 -217 -207 -217h-16q-207 0 -207 217v227l-65 16v102h255v-102zM149 706v43h117l83 -123l-9 -17h-76z" />
    <glyph glyph-name="Uacute.sc" unicode="&#xf7fa;" horiz-adv-x="600" 
d="M220 432v-236q0 -96 80 -96t80 96v236l-55 16v102h255v-102l-65 -16v-227q0 -217 -207 -217h-16q-207 0 -207 217v227l-65 16v102h255v-102zM455 750v-43l-115 -97h-76l-9 17l83 123h117z" />
    <glyph glyph-name="Ucircumflex.sc" unicode="&#xf7fb;" horiz-adv-x="600" 
d="M220 432v-236q0 -96 80 -96t80 96v236l-55 16v102h255v-102l-65 -16v-227q0 -217 -207 -217h-16q-207 0 -207 217v227l-65 16v102h255v-102zM357 750l96 -115l-9 -25h-69l-74 62l-75 -62h-69l-9 25l97 115h112z" />
    <glyph glyph-name="Udieresis.sc" unicode="&#xf7fc;" horiz-adv-x="600" 
d="M220 432v-236q0 -96 80 -96t80 96v236l-55 16v102h255v-102l-65 -16v-227q0 -217 -207 -217h-16q-207 0 -207 217v227l-65 16v102h255v-102zM147 672q0 26 17.5 43t42.5 17t42 -17.5t17 -42.5q0 -26 -17 -43.5t-42 -17.5q-26 0 -43 17.5t-17 43.5zM335 672q0 26 17.5 43
t42.5 17t42 -17.5t17 -42.5q0 -26 -17 -43.5t-42 -17.5q-26 0 -43 17.5t-17 43.5z" />
    <glyph glyph-name="Yacute.sc" unicode="&#xf7fd;" horiz-adv-x="549" 
d="M207 118v84l-124 230l-63 16v102h225v-102l-31 -10l27 -52l30 -84h7q18 59 30 84l27 52l-31 10v102h225v-102l-63 -16l-124 -231v-83l70 -16v-102h-275v102zM429 750v-43l-115 -97h-76l-9 17l83 123h117z" />
    <glyph glyph-name="Thorn.sc" unicode="&#xf7fe;" horiz-adv-x="510" 
d="M90 118v314l-70 16v102h205v-75h62q203 0 203 -187v-46q0 -82 -46 -126t-132 -44h-87v-72h-205v102zM264 363h-39v-193h52q78 0 78 79v27q0 45 -21 66t-70 21z" />
    <glyph glyph-name="Ydieresis.sc" unicode="&#xf7ff;" horiz-adv-x="549" 
d="M207 118v84l-124 230l-63 16v102h225v-102l-31 -10l27 -52l30 -84h7q18 59 30 84l27 52l-31 10v102h225v-102l-63 -16l-124 -231v-83l70 -16v-102h-275v102zM120 672q0 26 17 43t43 17q25 0 42 -17.5t17 -42.5q0 -26 -17 -43.5t-42 -17.5q-26 0 -43 17.5t-17 43.5z
M308 672q0 26 17 43t43 17q25 0 42 -17.5t17 -42.5q0 -26 -17 -43.5t-42 -17.5q-26 0 -43 17.5t-17 43.5z" />
    <glyph glyph-name="s_t" unicode="&#xfb06;" horiz-adv-x="765" 
d="M286 365l-16 54q-17 1 -25 1q-85 0 -85 -52q0 -35 42 -44l66 -13q74 -15 108 -51.5t34 -97.5q0 -87 -50 -130.5t-164 -43.5q-39 0 -77 4.5t-57 9.5l-19 4v144h87l14 -48q21 -2 41 -2q52 0 72.5 14t20.5 43q0 39 -54 48l-71 13q-124 23 -125 137q-2 86 50.5 131.5
t166.5 45.5h16v5q-20 33 -20 71q0 64 49 105.5t137 41.5h16q88 0 137 -40.5t49 -107.5v-87h118v-112h-118v-237q0 -38 12.5 -54.5t43.5 -16.5l51 5l11 -5v-97q-39 -15 -92 -15q-90 0 -125.5 45t-35.5 136v239h-64v112h64v59q0 63 -68 63h-3q-33 0 -52.5 -18t-19.5 -51
q0 -29 17 -56v-152h-82z" />
    <glyph glyph-name="c_t" unicode="&#xfb1e;" horiz-adv-x="748" 
d="M273 419q-3 0 -7 0.5t-7 0.5q-48 0 -72.5 -34t-24.5 -128v-12q0 -85 26 -115.5t73 -30.5q42 0 87 15l10 -6q7 -14 13 -98q-51 -23 -126 -23q-111 0 -164.5 58t-53.5 199v15q0 146 54.5 209t165.5 63h7l1 5q-20 27 -20 72q0 64 47 105t132 41h17q179 0 179 -164v-71h118
v-112h-118v-237q0 -38 12.5 -54.5t43.5 -16.5l51 5l11 -5v-97q-39 -15 -92 -15q-90 0 -125.5 45t-35.5 136v239h-54v112h54v59q0 63 -60 63h-3q-68 0 -68 -62q0 -40 27 -71v-164h-82z" />
    <glyph glyph-name="Adblgrave.sc" unicode="&#xfff0;" horiz-adv-x="606" 
d="M85 118l87 314l-55 16v102h284l120 -432l65 -16v-102h-250v102l51 13l-14 53h-141l-13 -53l51 -13v-102h-250v102zM275 337l-20 -77h95l-19 77l-22 101h-12q-15 -73 -22 -101zM98 707v43h95l65 -123l-9 -17h-46zM265 707v43h95l65 -123l-9 -17h-46z" />
    <glyph glyph-name="Ainvertedbreve.sc" unicode="&#xfff1;" horiz-adv-x="606" 
d="M85 118l87 314l-55 16v102h284l120 -432l65 -16v-102h-250v102l51 13l-14 53h-141l-13 -53l51 -13v-102h-250v102zM275 337l-20 -77h95l-19 77l-22 101h-12q-15 -73 -22 -101zM240 610h-83q0 144 147 144q144 0 144 -144h-82q0 24 -16 42.5t-46 18.5q-32 0 -48 -18.5
t-16 -42.5z" />
    <glyph glyph-name="Edblgrave.sc" unicode="&#xfff2;" horiz-adv-x="460" 
d="M322 438h-97v-113h145v-98h-145v-115h107l16 53h92v-165h-420v102l70 16v314l-70 16v102h410v-165h-92zM58 706v43h95l65 -123l-9 -17h-46zM225 706v43h95l65 -123l-9 -17h-46z" />
    <glyph glyph-name="Einvertedbreve.sc" unicode="&#xfff3;" horiz-adv-x="460" 
d="M322 438h-97v-113h145v-98h-145v-115h107l16 53h92v-165h-420v102l70 16v314l-70 16v102h410v-165h-92zM191 610h-83q0 144 147 144q144 0 144 -144h-82q0 24 -16 42.5t-46 18.5q-32 0 -48 -18.5t-16 -42.5z" />
    <glyph glyph-name="Idblgrave.sc" unicode="&#xfff4;" horiz-adv-x="315" 
d="M225 432v-314l70 -16v-102h-275v102l70 16v314l-70 16v102h275v-102zM-44 707v43h95l65 -123l-9 -17h-46zM123 707v43h95l65 -123l-9 -17h-46z" />
    <glyph glyph-name="Iinvertedbreve.sc" unicode="&#xfff5;" horiz-adv-x="315" 
d="M225 432v-314l70 -16v-102h-275v102l70 16v314l-70 16v102h275v-102zM95 610h-83q0 144 147 144q144 0 144 -144h-82q0 24 -16 42.5t-46 18.5q-32 0 -48 -18.5t-16 -42.5z" />
    <glyph glyph-name="Odblgrave.sc" unicode="&#xfff6;" horiz-adv-x="506" 
d="M247 562h12q211 0 211 -270v-35q0 -269 -211 -269h-12q-211 0 -211 269v35q0 270 211 270zM334 245v59q0 81 -20 115.5t-61 34.5t-61 -34.5t-20 -115.5v-59q0 -80 20 -115t61 -35t61 35t20 115zM45 707v43h95l65 -123l-9 -17h-46zM212 707v43h95l65 -123l-9 -17h-46z" />
    <glyph glyph-name="Oinvertedbreve.sc" unicode="&#xfff7;" horiz-adv-x="506" 
d="M247 562h12q211 0 211 -270v-35q0 -269 -211 -269h-12q-211 0 -211 269v35q0 270 211 270zM334 245v59q0 81 -20 115.5t-61 34.5t-61 -34.5t-20 -115.5v-59q0 -80 20 -115t61 -35t61 35t20 115zM190 609h-83q0 144 147 144q144 0 144 -144h-82q0 24 -16 42.5t-46 18.5
q-32 0 -48 -18.5t-16 -42.5z" />
    <glyph glyph-name="Rdblgrave.sc" unicode="&#xfff8;" horiz-adv-x="561" 
d="M90 118v314l-70 16v102h273q112 0 164 -48t51 -126v-4q0 -112 -95 -140v-4q19 -11 36 -46l28 -65l64 -15v-102h-159l-72 167q-7 18 -18 25.5t-33 7.5h-34v-82l60 -16v-102h-265v102zM279 438h-54v-140h58q48 0 69 15.5t21 48.5v4q0 38 -22.5 55t-71.5 17zM60 706v43h95
l65 -123l-9 -17h-46zM227 706v43h95l65 -123l-9 -17h-46z" />
    <glyph glyph-name="Rinvertedbreve.sc" unicode="&#xfff9;" horiz-adv-x="561" 
d="M90 118v314l-70 16v102h273q112 0 164 -48t51 -126v-4q0 -112 -95 -140v-4q19 -11 36 -46l28 -65l64 -15v-102h-159l-72 167q-7 18 -18 25.5t-33 7.5h-34v-82l60 -16v-102h-265v102zM279 438h-54v-140h58q48 0 69 15.5t21 48.5v4q0 38 -22.5 55t-71.5 17zM218 609h-83
q0 144 147 144q144 0 144 -144h-82q0 24 -16 42.5t-46 18.5q-32 0 -48 -18.5t-16 -42.5z" />
    <glyph glyph-name="Udblgrave.sc" unicode="&#xfffa;" horiz-adv-x="600" 
d="M220 432v-236q0 -96 80 -96t80 96v236l-55 16v102h255v-102l-65 -16v-227q0 -217 -207 -217h-16q-207 0 -207 217v227l-65 16v102h255v-102zM95 706v43h95l65 -123l-9 -17h-46zM262 706v43h95l65 -123l-9 -17h-46z" />
    <glyph glyph-name="Uinvertedbreve.sc" unicode="&#xfffb;" horiz-adv-x="600" 
d="M220 432v-236q0 -96 80 -96t80 96v236l-55 16v102h255v-102l-65 -16v-227q0 -217 -207 -217h-16q-207 0 -207 217v227l-65 16v102h255v-102zM237 610h-83q0 144 147 144q144 0 144 -144h-82q0 24 -16 42.5t-46 18.5q-32 0 -48 -18.5t-16 -42.5z" />
    </font>
</defs>
</svg>
